<svg width="65" height="65" viewBox="0 0 65 65" fill="none" xmlns="http://www.w3.org/2000/svg">
<g clip-path="url(#clip0_1_723)">
<path d="M32.5 7.36328C38.3155 7.36286 43.9513 9.37892 48.447 13.0679C52.9428 16.757 56.0203 21.8907 57.1552 27.5944C58.2901 33.2981 57.4123 39.2189 54.6712 44.3479C51.9301 49.477 47.4954 53.4969 42.1227 55.7227C36.7499 57.9485 30.7716 58.2426 25.2064 56.5548C19.6412 54.8669 14.8334 51.3016 11.6022 46.4664C8.37097 41.6311 6.91629 35.8251 7.486 30.0375C8.05571 24.25 10.6146 18.839 14.7266 14.7266C17.0552 12.3852 19.8251 10.5288 22.8759 9.26493C25.9266 8.00103 29.1978 7.35468 32.5 7.36328ZM32.5 0C14.5501 0 0 14.5514 0 32.5C0 50.4486 14.5501 65 32.5 65C50.4499 65 65 50.4486 65 32.5C65 14.5514 50.4486 0 32.5 0Z" fill="#FFFFF6"/>
<path d="M40.9907 37.9588C39.8253 39.6572 38.147 40.938 36.2013 41.614C34.2556 42.2899 32.1447 42.3254 30.1774 41.7153C28.21 41.1053 26.4896 39.8816 25.2677 38.2235C24.0458 36.5653 23.3866 34.5596 23.3866 32.4998C23.3866 30.4401 24.0458 28.4344 25.2677 26.7762C26.4896 25.118 28.21 23.8944 30.1774 23.2843C32.1447 22.6742 34.2556 22.7098 36.2013 23.3857C38.147 24.0616 39.8253 25.3425 40.9907 27.0408L47.0616 22.8755C46.4666 22.0088 45.7931 21.1988 45.0494 20.4558C38.4085 13.8149 27.6048 13.8149 20.9638 20.4558C14.3229 27.0967 14.3229 37.9004 20.9638 44.5413C22.7339 46.3092 24.8715 47.6658 27.2248 48.5147C29.5781 49.3636 32.0895 49.684 34.5806 49.4531C37.0716 49.2223 39.4813 48.4459 41.6386 47.179C43.7959 45.9122 45.6478 44.1859 47.0629 42.1229L40.9907 37.9588Z" fill="#FFFFF6"/>
</g>
<defs>
<clipPath id="clip0_1_723">
<rect width="65" height="65" fill="white"/>
</clipPath>
</defs>
</svg>
