<svg xmlns="http://www.w3.org/2000/svg" width="65" height="65" fill="none" viewBox="0 0 65 65"><g fill="#fffff6" clip-path="url(#a)"><path d="M32.5 7.363a25.137 25.137 0 1 1-17.773 7.364A24.97 24.97 0 0 1 32.5 7.363M32.5 0C14.55 0 0 14.551 0 32.5S14.55 65 32.5 65 65 50.449 65 32.5 50.449 0 32.5 0"/><path d="M40.99 37.959a9.649 9.649 0 1 1 0-10.918l6.072-4.166a17 17 0 0 0-2.013-2.42c-6.64-6.64-17.444-6.64-24.085 0-6.641 6.642-6.641 17.445 0 24.086a17.044 17.044 0 0 0 26.099-2.418z"/></g><defs><clipPath id="a"><path fill="#fff" d="M0 0h65v65H0z"/></clipPath></defs></svg>