<svg width="1920" height="1017" viewBox="0 0 1920 1017" fill="none" xmlns="http://www.w3.org/2000/svg">
<path d="M595.795 738.192C595.296 737.601 593.474 736.201 592.602 736.73L587.93 739.624C587.198 740.075 586.825 736.652 587.572 736.403L592.882 734.614L589.752 729.93C589.129 728.996 586.093 729.728 586.139 729.634C586.42 726.382 585.657 722.679 584.38 720.843L575.347 725.838L574.413 724.686L581.981 718.805C582.402 717.622 580.175 714.184 578.836 714.65L572.482 716.813L577.434 711.896C578.493 710.838 576.188 706.559 574.771 706.839L568.386 708.115L573.338 703.074L565.038 690.641L560.771 690.937C561.955 689.443 563.123 685.6 561.97 684.2C560.818 682.799 557.345 682.924 554.215 682.815C554.044 682.737 559.198 680.714 558.513 679.594L555.321 674.35C551.723 676.98 549.668 678.38 544.264 678.629L551.272 673.992C552.455 673.199 554.916 670.133 553.67 669.495C548.733 666.944 547.799 670.538 544.902 668.966C547.441 667.675 550.555 666.617 550.384 665.061C550.244 663.769 548.391 660.16 547.16 660.58L541.305 662.602L546.024 657.872L539.685 648.178L536.104 649.034C535.699 649.128 535.87 648.35 536.135 648.007C536.431 647.649 538.268 645.782 538.035 645.393L532.242 635.871L526.059 636.493L530.855 632.867C531.774 632.167 528.722 628.713 527.694 629.18L518.537 633.319L518.366 631.343L526.464 626.846L520.873 618.35C520.577 617.899 517.369 616.607 517.525 615.596L518.21 611.115L517.51 610.337L514.239 611.644C513.772 611.83 514.006 610.368 514.099 609.885L514.971 605.326L502.528 610.026L511.67 603.039C512.075 602.79 510.502 596.893 508.804 596.971L501.189 597.313C501.594 595.679 507.714 592.505 509.458 594.014L518.646 609.17L519.3 610.212L550.945 661.716C564.929 684.48 577.512 706.917 592.96 729.526L592.929 383.785C592.929 364.117 555.912 358.064 540.713 371.181C537.194 374.215 533.954 382.991 533.954 388.375L533.83 627.593L532.319 626.644L532.351 398.816L293.275 397.929L134.198 397.446C126.645 397.431 117.909 400.714 112.162 403.935C115.977 400.123 122.767 395.719 130.009 395.719L532.335 395.595C532.179 387.192 531.992 377.436 537.381 371.228C546.522 360.694 573.775 359.62 587.354 368.925C590.36 370.979 594.642 377.358 594.642 381.855L594.611 725.293C594.611 730.786 594.175 733.711 595.81 738.146L595.795 738.192Z" fill="#B8926A" stroke="#B8926A" stroke-width="0.5" stroke-miterlimit="10"/>
<path d="M112.161 403.982C108.315 406.144 102.74 414.049 102.693 418.686L102.21 471.9L181.305 471.869L181.539 457.476L182.162 406.456L183.516 407.342L183.423 471.947H256.148L256.974 446.911L258.204 447.783L258.36 471.932L304.425 472.025L305.25 459.375L306.418 460.246L307.181 472.072L346.518 472.009L347.717 446.834L349.352 472.025L410.601 471.978L411.068 451.595L412.329 452.435L412.765 471.994L465.869 472.025L467.738 449.93L468.983 472.383C479.106 471.994 486.924 471.107 496.407 473.363C486.815 476.071 479.402 474.826 468.532 474.297L468.407 547.537L491.907 548.455L491.035 549.591L468.345 549.996L468.532 648.381L490.365 649.641L489.462 650.793L468.345 650.87L467.893 686.751L465.713 663.116L465.433 650.855L412.999 650.653L411.675 662.042L409.915 650.621L390.356 650.699L397.083 676.684C407.86 675.797 414.759 673.852 423.651 678.427L399.746 678.723C399.201 678.723 397.208 678.987 397.348 679.485L398.329 683.033L421.175 683.577L424.476 678.738L424.305 683.531C424.274 684.464 421.253 684.978 420.287 684.993L398.937 685.382L419.664 772.3L423.433 763.151C424.959 759.447 434.521 769.203 428.79 787.191C424.943 785.339 422.405 782.647 420.365 780.095C421.72 788.684 422.654 797.429 419.539 805.1C420.567 813.378 420.692 820.987 418.932 829.405L452.897 829.249C452.897 829.731 451.246 831.163 450.514 831.178L417.39 831.816C409.028 806.563 403.188 782.912 397.628 756.958L328.89 756.818C323.595 783.596 317.677 806.236 310.42 830.12C303.973 822.854 310.389 810.779 306.869 795.546L306.029 780.967L304.58 786.895C304.238 788.295 298.881 788.544 298.678 787.035C297.931 781.542 298.133 771.133 298.74 765.594L299.519 764.504C299.846 763.742 303.07 762.124 303.708 763.088L307.601 769.094L312.445 745.272L319.826 720.003L327.55 685.149L306.714 685.071C305.141 685.071 302.4 683.562 301.621 682.613C300.64 681.399 303.381 677.307 305.265 677.307L329.684 677.229L345.459 607.458C340.133 599.025 335.882 588.071 341.099 577.646C343.45 572.946 348.885 568.854 353.9 565.602C353.479 555.566 352.498 544.767 353.978 534.482C354.834 528.523 369.706 530.079 369.862 535.4L370.734 566.909C378.131 570.939 383.348 576.976 385.232 582.562C388.16 591.245 383.753 599.149 379.766 605.669L390.278 648.708L410.118 647.945L411.597 619.548L412.952 647.867L466.398 647.836L466.539 565.415L465.853 550.385L440.174 548.875L466.539 547.226L466.99 485.873L413.03 485.764L411.551 515.608L410.351 485.873L349.103 485.795L347.717 504.779L346.347 485.842H307.087L305.67 512.512L304.331 485.889L258.827 485.718L257.41 512.496L255.962 485.811L197.454 485.842V547.35L239.735 548.704L219.163 549.824L219.428 579.139L256.102 578.641L256.242 549.949L247.864 548.86L255.868 546.853L257.457 521.443L258.469 547.148L280.193 548.938L258.22 550.042L258.282 578.797L304.736 579.186L304.674 550.291L292.06 548.891L304.238 547.226L305.686 522.984L307.025 547.786L346.939 548.175V514.581L348.387 513.757L348.558 549.544L306.683 549.871L306.418 580.695L258.329 580.898C258.407 585.643 258.998 589.938 259.964 593.61L257.083 603.304L255.65 594.341C247.054 594.621 240.062 595.446 231.777 593.174C240.529 590.887 246.696 591.836 255.868 592.178L255.946 580.944L217.668 580.68V549.591L197.345 549.778L197.376 592.038L216.562 591.447C218.275 591.4 221.016 592.816 222.667 594.621L197.345 594.45L197.501 647.727L216.111 647.867V650.762L197.734 649.812L197.33 670.989L255.977 671.02L256.086 650.295L228.865 650.917L226.98 647.603L255.868 647.852L257.379 613.262L258.484 647.758H304.004L305.686 636.493L307.383 648.287C315.995 647.883 322.91 646.654 331.272 649.346C322.52 651.306 316.416 650.621 306.916 650.341L306.34 672.39L258.734 672.95L258.625 684.184L292.651 685.787L258.484 686.674L258.142 698.235L256.989 699.075L255.681 686.565L183.236 686.44L183.501 733.213L182.115 756.507L203.59 755.48L251.243 754.328C270.32 753.877 288.976 752.212 308.287 755.962L213.837 757.238L181.944 758.747C182.13 765.485 183.407 776.065 179.312 781.729C167.725 797.725 123.514 796.091 110.121 779.722C130.132 791.47 154.909 796.371 174.905 783.767C182.333 779.084 180.962 766.558 178.735 759.463C164.097 761.641 140.66 761.766 140.411 759.525L139.928 755.137C153.554 752.383 165.888 752.974 180.137 756.273L180.589 686.44L102.272 686.347L102.475 758.171C102.49 765.376 105.683 771.755 108.502 778.415C102.709 774.089 99.8431 765.407 99.8275 757.347L99.6095 686.098C86.2324 686.207 74.0232 687.732 60.5215 684.978C73.5093 682.255 84.971 683.515 99.3603 683.904V474.623L82.4637 473.083L87.1356 491.381L82.2768 482.917L80.377 489.499L81.5138 490.308L83.8964 493.778L83.5383 565.898L80.7974 568.17L80.5638 491.241L78.991 491.055L77.5894 488.083L81.3425 473.705L61.7829 473.036L62.7484 471.885L99.5939 471.558C100.793 443.55 93.0222 413.302 112.068 403.888L112.161 403.982ZM167.788 594.512L168.551 591.821L180.885 591.93L180.667 550.058L145.986 548.984L180.682 547.242L180.604 473.939C169.47 475.106 159.067 475.246 148.508 474.25C133.449 472.834 118.172 473.472 102.428 474.25L102.459 683.811L180.713 683.717L180.667 650.466L149.085 648.381L181.305 647.401C182.146 629.304 182.146 612.204 181.134 594.808L167.803 594.559L167.788 594.512ZM196.13 482.715L256.211 483.01L255.744 474.717C230.858 475.106 208.417 475.215 183.532 474.328L183.47 547.413L195.585 547.475L196.146 482.715H196.13ZM304.767 482.948L304.175 474.904L258.952 474.437L258.92 482.995L304.767 482.964V482.948ZM306.651 474.561V483.29L346.721 483.321V474.592L306.651 474.561ZM348.947 474.561V483.29L410.788 483.321V474.592L348.947 474.561ZM466.118 484.084V474.888H412.828L413.014 483.15L451.495 482.652L466.118 484.084ZM368.896 564.7L368.663 534.654L356.376 534.078L356.204 565.384L368.896 564.7ZM183.298 549.7L183.236 592.21H194.838L194.9 549.731H183.298V549.7ZM372.089 600.285L362.994 605.436C363.025 606.011 364.692 610.679 365.361 612.002C373.366 610.197 378.567 604.922 381.822 598.636C386.431 589.72 384.5 581.831 377.882 574.767C372.073 568.559 364.006 565.555 355.348 569.586L363.757 573.133C367.931 574.891 372.509 576.494 373.849 580.493C367.542 576.681 360.907 575.794 356.282 580.104C351.206 584.834 351.237 591.463 354.756 595.788C359.662 601.81 364.318 601.468 372.089 600.301V600.285ZM351.206 594.186L348.636 578.968C352.872 576.012 355.27 574.082 354.709 568.839C345.054 572.589 338.903 583.014 341.223 593.501C343.232 602.572 350.536 611.722 361.281 611.239C359.599 603.88 355.659 599.787 351.206 594.186ZM194.838 625.29L194.744 594.621L183.579 594.668L183.485 647.758L195.087 647.836L194.838 625.29ZM317.864 798.005L340.694 692.742L358.307 614.351L347.452 609.077L319.826 729.401C318.534 735.018 317.085 739.593 314.407 744.479C309.579 762.886 308.38 781.822 310.062 800.51C311.853 801.879 314.002 803.777 315.061 803.342C316.12 802.906 317.397 800.136 317.864 798.005ZM419.431 790.489C416.752 769.919 413.108 750.236 408.031 730.086L396.71 685.164L378.287 607.972L365.829 615.332L380.218 672.452L411.239 805.847C420.116 803.357 420.271 796.978 419.431 790.505V790.489ZM371.513 676.824L377.415 677.229C378.707 677.322 377.882 672.53 377.711 671.394C372.93 651.695 369.005 633.832 362.138 612.5C354.507 634.968 351.097 655.103 346.721 677.213L356.282 676.575L357.061 660.44C357.186 657.732 364.754 657.172 367.074 658.619C373.226 662.478 368.803 676.653 371.497 676.824H371.513ZM305.125 671.083L304.378 650.497L258.484 650.295L258.313 670.989L305.125 671.067V671.083ZM243.425 672.857L196.146 672.514L195.087 650.341L183.423 650.575L183.283 683.671H256.102L255.899 673.339L243.441 672.841L243.425 672.857ZM366.047 695.372L367.417 678.769L368.803 666.446C369.005 664.719 367.651 660.393 366.031 660.269C364.302 660.129 360.814 660.409 359.257 660.891C357.699 661.373 358.104 665.948 358.229 667.971L360.067 696.663C360.144 697.784 361.141 700.211 361.966 700.693C362.792 701.176 365.595 700.755 365.673 699.791L366.031 695.372H366.047ZM328.407 683.406C327.784 680.341 326.803 678.629 325.977 678.645L307.087 678.925C306.309 678.925 303.973 680.699 303.35 681.15C302.727 681.601 306.247 683.546 307.212 683.531L328.407 683.391V683.406ZM369.488 685.662L367.215 702.171C364.287 702.28 359.895 701.689 358.12 700.631L357.528 685.787L344.307 685.522L329.388 755.153L397.301 754.686L381.324 686.082L369.488 685.662ZM170.295 757.44C161.481 755.013 152.153 754.079 142.871 757.44C151.623 760.894 158.397 760.132 170.295 757.44ZM301.637 766.247L300.889 767.539C299.986 772.129 300.111 780.609 301.544 786.039C304.845 777.092 305.561 766.574 301.637 766.247ZM427.092 784.312C428.556 776.766 428.354 770.495 425.644 765.329C421.938 772.191 423.09 779.784 427.092 784.312ZM314.874 805.707L309.392 803.342L310.155 823.881L314.874 805.723V805.707ZM417.577 806.174C414.883 807.263 412.547 808.694 412.796 809.41L417.749 823.99L417.577 806.174Z" fill="#B8926A" stroke="#B8926A" stroke-width="0.5" stroke-miterlimit="10"/>
<path d="M625.57 786.428L619.995 779.675L613.47 782.818L613.252 780.64L619.419 777.761C618.282 775.645 616.881 772.377 615.541 772.657L610.122 773.762L612.941 769.561C613.579 768.627 612.255 765.593 611.446 764.644L605.076 757.082C604.095 755.931 603.846 750.827 602.382 751.185L595.826 752.756L600.124 748.368L595.764 738.177L620.789 775.614L625.539 786.412L625.57 786.428Z" fill="#B8926A" stroke="#B8926A" stroke-width="0.5" stroke-miterlimit="10"/>
<path d="M452.928 829.28V801.21L458.628 798.161C461.555 783.814 466.212 769.888 472.815 756.678L421.455 756.429C426.859 753.675 432.559 753.208 438.85 753.332L473.406 754.033L482.516 742.876C473.874 760.646 464.608 775.365 462.178 793.866C461.509 798.939 459.764 801.755 454.501 803.575L454.532 828.191L645.082 828.269L644.226 801.63L629.914 802.642L603.845 801.942L485.008 801.599C486.207 777.015 505.097 741.771 526.183 737.881C518.49 742.907 511.778 746.72 506.39 754.966L544.87 754.935L541.071 750.034C547.487 752.617 550.352 753.893 554.993 752.274C560.007 751.076 562.873 749.38 568.744 746.159L558.902 756.88L504.661 756.662C494.617 769.406 488.419 784.157 486.783 800.152L582.012 800.183L580.782 793.353L585.858 800.37L612.068 799.639L623.545 791.516C624.791 790.63 626.473 787.518 625.538 786.382C627.095 787.253 629.509 790.552 628.123 791.485L615.712 799.81L647.418 800.495L647.294 828.471L714.522 828.067C717.2 828.051 721.607 826.308 722.978 824.535C724.161 823.01 724.722 817.657 724.27 815.572L705.007 725.62C698.451 694.983 686.179 660.844 700.724 632.308C707.903 618.226 734.876 615.285 753.423 616.654C759.138 617.074 765.243 620.311 769.074 623.221L770.024 624.263C777.468 633.226 781.906 645.347 780.847 657.297C777.701 645.098 774.898 634.61 769.089 625.134L768.202 624.076C760.322 619.44 745.496 621.805 734.471 625.85C731.076 627.095 727.027 634.579 727.074 638.189L727.447 664.268L736.433 709.905C743.783 747.233 755.697 782.212 767.859 819.695L769.775 737.166L771.347 702.841C776.595 663.754 793.321 617.961 830.275 601.141C807.772 617.214 791.545 635.949 783.448 662.276C778.62 678.007 772.827 693.489 772.609 710.418L771.643 789.12L770.491 806.298C769.977 813.892 771.939 820.629 768.124 828.549L736.121 717.934L725.018 661.669C722.729 650.093 722.402 637.162 729.955 627.048C733.708 622.038 742.288 621.12 749.063 618.833C737.289 618.117 724.784 619.564 712.762 624.201C696.831 630.347 692.969 661.685 697.516 681.866L717.792 771.973L726.357 816.646C727.51 822.636 725.252 827.864 718.275 829.125L706.408 831.272L460.777 831.303C458.067 831.303 454.516 830.401 452.897 829.234L452.928 829.28Z" fill="#B8926A" stroke="#B8926A" stroke-width="0.5" stroke-miterlimit="10"/>
<path d="M1216.7 730.522L1212.64 722.711L1194.18 721.326L1170.92 719.645L1151.98 718.276L1134.51 717.218L1140.78 742.363C1142.36 748.664 1134.77 753.146 1130.07 754.515L1103.75 762.155C1108.66 765.983 1111.77 766.994 1116.43 767.648L1183.44 777.092L1182.44 778.897L1109.34 768.566L1104.41 765.889C1103.3 765.282 1103.86 761.501 1104.25 759.65L1128.22 752.975C1135.16 751.045 1140.75 746.362 1138.18 737.601L1132.22 717.202L1111.6 715.74L1089.85 714.199L1069.49 712.768L1044.7 711.041L1024.35 709.625L1009.54 707.835C1000.33 706.731 995.116 699.884 995.318 690.579L995.972 659.724L997.187 568.994L998.417 474.359C998.542 464.696 1005.08 459.577 1013.2 458.924L1030.73 457.523L1050.96 455.905L1069.66 454.396L1088.35 452.886L1108.58 451.284L1128.84 449.697L1147.53 448.187L1166.22 446.631L1184.9 445.075L1203.59 443.488L1220.74 442.01L1239.41 440.439L1259.65 438.805L1278.34 437.295L1298.55 435.677L1322.01 434.292C1327.64 433.966 1333.3 434.712 1337.53 438.151C1340.68 440.703 1343.86 446.491 1343.78 451.548L1342.91 506.833L1341.66 568.248L1341.07 588.818L1409.28 588.569C1420.12 588.522 1430.71 584.741 1439.91 577.521C1423.26 571.235 1406.12 566.536 1388.83 566.847C1386.15 573.133 1382.1 578.315 1375.7 578.081C1368.41 577.817 1363.07 573.787 1362.54 565.805C1362.18 560.296 1368.26 553.917 1374.13 552.874C1381.23 551.614 1386.21 557.776 1388.41 564.529C1406.61 564.747 1424.52 569.072 1442.15 575.903L1461.01 560.359L1462.61 559.083C1484.17 541.967 1492.48 543.818 1500.44 538.653C1501.41 538.03 1501.1 534.171 1499.99 534.529L1496.67 535.556C1496.19 535.712 1494.55 535.681 1494.76 535.229L1496.49 531.448L1482.25 523.388C1469.5 516.184 1457.07 508.326 1447.85 497.17C1441.84 497.512 1435.22 496.143 1432.62 491.195C1429.8 485.858 1430.1 479.525 1433.85 475.464C1437.6 471.403 1444.88 470.267 1450.45 473.083C1459.47 477.642 1456.76 490.121 1451.15 496.439C1458.72 508.015 1470.93 515.219 1482.77 521.257L1498.17 529.114C1498.84 529.457 1501.92 529.566 1502.06 530.235L1502.84 533.845C1508.06 532.818 1512.87 532.818 1516.81 534.825C1512.68 535.556 1507.71 535.976 1505.67 537.517C1503.63 539.057 1504.15 545.25 1505.61 547.319C1507.08 549.389 1512.67 550.494 1515.42 549.544C1517.82 548.735 1518.77 544.316 1520.53 539.773C1521.73 542.449 1520.89 547.771 1518.27 550.447C1516.29 552.47 1510.61 553.466 1507.7 551.847C1504.33 549.996 1502.53 546.012 1500.53 541.111C1497.75 544.005 1497.61 549.793 1500.22 552.905C1502.7 555.846 1507.25 557.682 1512.25 557.885C1517.24 558.087 1522.35 553.761 1524.27 550.011C1527.2 544.254 1525.64 539.399 1525.03 532.086C1526.9 535.245 1528.24 538.917 1529.56 543.414C1542.54 546.152 1556.58 553.855 1560.02 566.925C1551.38 556.095 1542.63 546.588 1528.96 546.464L1522.96 555.566C1527.55 563.984 1527.73 576.619 1520.06 584.274C1503.48 600.845 1466.65 587.246 1442.74 578.626C1432.92 584.974 1420.49 591.354 1407.14 591.401L1340.88 591.603L1339.82 629.771L1338.39 681.228L1337.1 711.321C1336.86 716.876 1333.59 723.878 1329.78 726.274C1323.89 729.993 1317.71 729.526 1311.12 729.106L1286.24 727.519L1261.32 725.931L1237.91 724.438L1216.08 723.037L1218.26 729.09L1218.9 730.226L1227.23 751.901C1229.27 757.222 1229.07 765.998 1224.22 769.344C1216 775.007 1206.33 776.174 1197.17 777.87C1200.38 778.664 1205.4 779.893 1208.29 779.924L1325.76 780.749L1453.36 780.796C1479.18 780.796 1501.31 770.946 1522.91 758.016C1504.21 777.264 1461.8 784.125 1434.93 784.032L1394.3 783.892L1294.6 782.398L1209.9 781.62C1201.25 781.543 1193.87 782.103 1185.46 778.757L1215.53 771.74C1222.25 770.168 1227.98 763.758 1225.58 756.476L1217.25 731.253L1216.81 730.522H1216.7ZM1015.58 472.772L1035.39 471.512L1060.35 469.956L1086.82 468.337L1111.74 466.813L1136.55 465.179L1156.92 463.794L1183.38 462.129L1209.85 460.542L1234.77 459.033L1259.68 457.508L1287.67 455.889L1315.9 454.333C1318.97 454.162 1324.61 455.718 1326.41 458.255L1325.73 512.994L1324.93 571.468L1324.11 589.533L1338.48 589.238L1339.85 545.841L1340.96 478.109C1341.11 468.228 1343.47 457.85 1341.01 448.514C1338.51 439.069 1330.93 435.101 1321.9 435.802L1303.19 437.264L1282.98 438.914L1265.84 440.376L1247.15 441.963L1228.46 443.535L1209.77 445.091L1191.09 446.647L1172.4 448.203L1153.71 449.759L1135.02 451.284L1114.78 452.902L1096.07 454.396L1075.85 456.014L1057.14 457.508L1036.91 459.126L1018.05 460.635C1013.52 460.993 1008.15 461.398 1004.88 463.981C1001.86 466.361 1001.27 472.01 1001.02 476.444L999.974 495.458L998.76 591.043L997.903 667.955L1035.43 669.682L1047.81 670.663L1084.55 671.83L1126.24 673.464L1162.4 674.973L1201.02 676.591L1240.26 678.085L1281.94 679.703L1314.17 681.01L1335.76 682.053L1336.89 663.101L1337.81 610.43L1338.67 591.634L1323.94 592.319L1322.97 643.044L1321.84 660.362C1321.66 663.054 1321.37 667.037 1319.8 668.173C1318.47 669.122 1314.45 669.978 1312.76 669.9L1284.62 668.469L1247.71 667.286L1205.69 665.715L1163.94 664.065L1121.6 662.603L1078.31 660.953L1038.6 659.662L1021.2 658.744C1017.01 658.526 1013.01 657.997 1008.8 656.846L1009.3 545.857L1010.3 481.501L1013.8 474.873L1015.56 472.85L1015.58 472.772ZM1014.54 476.491L1012.37 490.961L1011.23 570.846L1010.36 650.948C1010.31 654.854 1014.41 657.032 1017.95 657.11L1050.07 657.841L1095.41 659.304L1137.19 660.984L1179.51 662.447L1221.28 664.096L1264.84 665.637L1302.95 666.897C1307.94 667.068 1315.31 669.807 1319.83 665.497L1321.17 625.383L1321.71 592.07C1303.88 593.61 1268.19 605.264 1271.25 610.337L1273.43 613.947L1244.42 600.005L1251.74 630.3C1246.74 619.953 1244.28 610.508 1242.02 596.675L1267.66 608.781L1273.59 604.051C1288.63 595.96 1305.67 592.303 1321.99 589.565L1322.99 560.701L1323.78 493.607C1323.92 481.252 1326.41 470.454 1323.64 457.228C1314.55 455.672 1306.01 456.823 1296.9 457.368L1269.01 459.048L1244.1 460.542L1217.62 462.129L1191.15 463.716L1166.23 465.288L1144.32 466.75L1119.51 468.4L1096.17 469.878L1068.11 471.527L1043.2 473.021L1015.89 474.717L1014.5 476.491H1014.54ZM1442.95 488.161L1444.86 487.881L1448.65 493.887C1454.1 490.775 1455.78 484.006 1453.05 478.42C1450.97 474.141 1444.11 471.729 1438.9 474.281C1435.07 476.148 1431.28 482.575 1432.95 487.258C1434.77 492.393 1440.05 495.629 1445.31 494.603L1442.96 488.145L1442.95 488.161ZM1462.19 561.494L1445.13 576.634C1468.19 585.659 1499.23 597.298 1516.79 584.165C1524.97 578.05 1526.59 565.789 1520.97 557.573C1515.14 560.81 1509.57 561.012 1503.96 558.414C1498.35 555.815 1495.64 550.649 1495.88 543.772C1483.64 546.806 1472.71 553.497 1463.04 560.67L1462.19 561.51V561.494ZM1385.09 563.222C1385.2 559.55 1378.52 554.913 1374.02 555.597C1368.76 556.391 1364.99 560.421 1365.24 565.929C1365.46 570.799 1368.68 575.561 1374.19 576.183C1377.71 576.572 1383.8 572.558 1384.47 569.243C1384.56 568.761 1382.26 566.769 1381.87 566.458C1380.02 565.027 1385.01 565.649 1385.08 563.222H1385.09ZM1271.3 724.453L1295.39 725.994L1315.64 727.363C1325.48 728.032 1334.15 723.395 1334.65 712.97L1336.05 683.717L1305.28 682.815L1266.74 681.119L1227.49 679.641L1184.23 678.038L1146.55 676.529L1109.45 674.895L1070.24 673.432L1031.37 671.83L997.888 670.414L997.966 694.718C997.966 698.997 1002.96 704.568 1007.23 705.175L1021.29 707.197L1043.11 708.862L1064.91 710.418L1085.25 711.834L1110.14 713.499C1118.22 714.044 1127.45 716.238 1134.79 713.032C1143.15 709.391 1151.31 712.566 1160.1 712.674L1210.3 713.266C1212.93 719.739 1216.22 721.186 1222.11 721.528L1245.53 722.882L1271.25 724.438L1271.3 724.453ZM1211.77 720.314C1211.42 718.105 1207.89 714.744 1205.27 714.728L1153.71 714.339L1137.81 713.577C1141.38 715.351 1144.71 715.973 1148.85 716.222L1166.14 717.311L1189.42 718.852L1211.77 720.33V720.314Z" fill="#B8926A" stroke="#B8926A" stroke-width="0.5" stroke-miterlimit="10"/>
<path d="M945.671 724.048C944.27 723.768 942.354 721.761 941.809 720.703L932.917 703.151C931.983 701.3 931.515 697.519 931.438 695.231L945.656 724.048H945.671Z" fill="#B8926A" stroke="#B8926A" stroke-width="0.5" stroke-miterlimit="10"/>
<path d="M931.454 695.232C930.504 696.461 930.271 698.188 930.162 700.584L927.779 748.882C927.405 756.444 931.548 762.17 939.474 762.435L968.253 763.369L984.013 764.551L1013.48 767.663C1012.29 758.747 1014.07 751.683 1021.56 745.615L1003 742.176C987.454 739.297 972.535 736.574 957.508 731.829C950.655 729.666 944.676 731.253 940.237 736.061C940.128 730.428 942.355 728.001 945.672 724.064C956.013 732.56 996.175 739.22 1017.29 742.3C1025 743.421 1030.75 746.299 1038.99 743.141C1049.26 739.188 1061.21 738.799 1071.92 739.764L1076.06 745.35C1077.45 745.257 1076.22 747.233 1074.16 748.291C1068.67 744.214 1061.19 739.577 1054.31 741.227L1025.25 748.198C1022.46 754.391 1020.94 760.117 1019.66 768.052C1024.67 769.141 1028.78 768.643 1033.55 767.352L1058.79 760.506L1044.61 756.958C1053.37 746.517 1066.92 748.54 1074.87 756.709C1065.27 753.737 1056.97 750.438 1049.08 756.289L1060.57 756.444C1066.7 759.836 1073.81 761.937 1080.28 762.793L1073.32 755.48L1088.2 763.166L1083.74 754.639C1085.03 753.052 1090.31 755.931 1090.83 758.358C1091.45 761.299 1089.88 763.571 1087.14 765.454C1091.62 770.511 1098.12 773.078 1105.23 774.167L1195.65 785.697L1198.11 787.969C1198.48 788.311 1198.62 788.949 1198.12 788.933L1194.96 788.84L1190.91 788.747C1190.17 788.731 1189.84 787.237 1189.5 786.677L1096.18 775.287C1099.89 779.395 1102.62 783.176 1102.43 785.977L1100.59 787.082C1093.65 799.265 1082.46 784.141 1064.1 791.439L1045.45 798.845L1149.97 809.301L1186.59 790.816C1178.57 797.663 1168.21 800.463 1159.85 806.221C1152.59 811.215 1147.25 811.122 1138.87 810.282L1047.92 801.257C1042.71 800.743 1038.11 797.616 1031.77 801.77L1142.31 817.859C1147.76 818.653 1152.37 818.248 1158.59 817.968C1153.06 821.034 1147.33 820.52 1140.38 819.54L1027.43 803.529C1022.34 808.212 1016.02 808.975 1009.16 809.224L995.428 814.903C965.715 822.574 936.655 828.533 905.961 831.692C896.306 832.688 886.698 833.357 879.191 826.931C886.869 828.673 893.83 830.603 901.476 829.934C936.905 826.853 970.433 819.773 1005.16 810.188C1010.78 798.705 1010.41 784.063 1003.07 774.183C994.244 772.02 985.321 772.16 977.254 773.062C957.134 775.287 937.341 771.973 917.22 769.188C911.723 776.828 905.821 784.188 897.209 788.373C896.181 780.142 900.589 774.058 905.992 770.791L899.763 784.157C906.646 779.535 911.957 773.078 916.037 766.838L953.864 771.429C960.062 772.175 966.244 772.269 972.349 771.46C992.313 768.846 1004.97 773.903 1018.8 770.106L977.737 766.014L961.899 764.862L937.605 764.084C930.333 763.851 926.44 758.529 926.268 752.056L925.77 732.887C924.197 744.214 924.026 754.11 918.778 763.104C921.176 751.263 923.45 740.884 923.777 729.152C924.104 717.42 923.294 705.066 925.365 693.1C925.957 689.661 927.748 685.227 926.891 681.975L918.684 650.855L911.957 652.286L910.415 640.71C909.777 640.71 909.512 640.772 909.418 640.508L908.219 636.773L878.023 606.463L879.456 605L904.56 629.802C908.297 621.369 913.094 615.83 920.179 609.512L910.649 601.966L909.621 601.203C898.86 593.252 895.341 587.122 897.427 569.617L900.386 587.199C901.118 591.587 907.254 597.547 910.618 599.99L911.645 600.736L921.612 607.707C930.582 613.994 944.317 618.553 950.811 610.85C950.142 620.046 936.718 617.339 923.029 612.002C915.087 613.76 909.527 624.528 907.269 631.156L911.381 638.64L911.599 639.807L914.838 648.957C916.162 640.414 914.994 635.435 912.455 628.775C915.539 630.643 917.065 634.221 916.909 638.314C916.722 643.464 918.669 647.276 920.46 651.929C925.926 666.197 928.635 681.15 931.407 695.185L931.454 695.232ZM1100.39 784.732C1094.25 774.945 1081.14 770.931 1067.73 769.997C1075.08 767.507 1081.94 769.375 1090.11 771.973C1080.46 759.961 1058.82 761.75 1042.19 766.683L1021.98 772.673C1026.56 781.449 1027.21 790.256 1027.26 800.23L1067.19 788.638C1076.19 786.024 1086.06 789.338 1095.89 790.412C1090.41 780.92 1080.39 781.325 1069.96 779.349C1079.47 776.283 1089.38 779.535 1097.57 786.397L1099.97 786.273L1100.39 784.732ZM1023.15 804.991C1025.73 793.352 1025.48 784.328 1020.17 774.432L1007.09 773.887C1010.46 786.662 1010.78 793.057 1010.41 806.252C1013.1 806.423 1019.25 805.894 1023.15 804.991Z" fill="#B8926A" stroke="#B8926A" stroke-width="0.5" stroke-miterlimit="10"/>
<path d="M1653.01 495.023C1657.51 496.874 1660.98 500.313 1662.9 505.541C1678.97 502.056 1693.03 495.847 1708.31 488.752C1704.31 493.451 1698.4 496.47 1692.63 498.446L1664.66 507.968L1664.95 516.215C1681.2 522.813 1697.05 526.267 1714.32 525.022L1739.14 523.233C1744.72 522.828 1748.03 520.136 1749.53 515.235C1750.32 517.071 1750.79 519.187 1751.69 519.452L1756.93 520.977L1749.61 524.151C1751.02 527.107 1754.54 531.433 1757.53 532.397C1761.36 533.642 1768.08 531.075 1769.6 527.574C1771.83 522.455 1770.55 516.978 1766.72 513.757C1763.4 510.971 1758.86 511.252 1752.94 511.905C1758.59 505.837 1768.09 509.851 1772.16 517.18C1775.71 523.575 1770.6 532.086 1764.7 533.798C1756.26 536.241 1749.47 531.635 1747.3 523.793L1721.31 527.387C1702.03 530.064 1681.8 523.808 1663.43 518.954C1657.84 528.025 1646.98 535.152 1635.52 527.698C1624.48 538.948 1615.18 551.272 1605.99 565.851C1629.98 567.236 1654.36 569.259 1672.29 586.982C1656.81 577.91 1641.87 569.679 1623.19 569.103L1604.33 568.528C1592.94 589.969 1585.64 611.131 1580.92 634.081L1603.64 628.402C1603.38 620.482 1608.13 611.893 1614.73 609.575C1623.39 606.54 1631.22 610.041 1635.68 616.794C1640.47 624.061 1638.79 634.081 1631.83 639.029L1643.35 650.995L1641.94 652.349L1629.48 639.932C1622.47 645.705 1614.23 643.386 1608.17 637.894C1590.98 659.786 1596.17 684.729 1610.23 708.178C1616.74 706.108 1622.03 707.493 1625.86 712.332C1629.7 717.171 1629.1 723.784 1625.38 727.939C1621.12 732.7 1612.11 733.836 1608.24 729.012C1613.67 729.884 1618.19 730.584 1622.49 728.017C1626 725.916 1626.88 718.821 1624.39 714.137C1622.63 710.854 1616.16 707.804 1612.92 710.2L1605.39 714.728L1606.29 726.834C1600.85 722.477 1603.55 713.437 1608.06 708.971C1591.46 680.87 1588.3 652.224 1612.5 631.498C1611.94 627.266 1611.9 622.816 1612.29 620.295L1614.76 618.537C1617.67 616.468 1624.62 614.943 1628.64 618.63C1631.27 621.058 1631.56 627.546 1629.52 632.012C1625.96 639.807 1615.28 632.37 1610.01 635.84C1614.51 641.301 1619.88 642.157 1625.54 639.979C1631.6 637.66 1636.03 632.743 1636.36 626.488C1636.66 621.104 1632.55 614.896 1627.16 611.846C1621.77 608.797 1615.49 610.026 1610.74 614.74C1607.78 617.681 1606.06 624.232 1605.9 629.616L1580.55 637.084L1575.78 660.175C1571.45 681.166 1566.81 701.098 1557.59 720.423L1566.33 736.528L1567.01 738.162L1586.03 758.778L1587.66 759.665C1603.35 770.059 1621.58 778.726 1641.94 779.177L1712.23 780.765L1992.33 781.605L1993.28 783.036L1653.99 782.974L1638.53 780.905C1619.39 778.337 1601.8 772.907 1586.95 761.066L1585.48 760.023C1578.54 754.531 1571.61 747.404 1566.31 739.624L1565.11 737.866L1556.02 722.259C1552.97 726.958 1550.01 731.595 1546.02 734.972L1554.56 719.35C1547.77 698.655 1543.24 677.976 1553.68 659.958C1552.35 669.34 1548.67 678.738 1549.64 687.467C1550.77 697.784 1552.72 706.357 1556.27 716.564C1563.76 702.56 1568.14 688.277 1571.14 672.561L1577.62 638.703L1567.48 642.826L1577.96 635.435C1583.21 612.173 1590.55 589.969 1602.02 568.201C1589.42 568.092 1576.19 570.457 1564.68 573.538L1568.73 597.656L1568.65 607.474C1568.53 621.493 1562.97 633.521 1551.94 642.764L1531.35 656.223C1526.24 659.568 1522.4 665.014 1517.35 665.03C1510.42 665.046 1503.71 665.263 1501.2 657.857C1509.63 664.672 1520.28 666.197 1526.56 656.612C1505.47 660.689 1505.47 645.502 1497.76 648.505L1500.72 659.18L1494.76 648.443C1482.69 647.183 1467.25 653.796 1458.67 663.178C1461.63 670.165 1462.94 677.618 1456.59 682.161C1450.23 686.705 1442.85 686.098 1438.37 679.781C1434.22 673.93 1433.85 664.501 1443.09 661.685C1439.07 666.664 1436.17 671.503 1438.15 675.409C1441.67 682.364 1448.12 684.495 1452.49 682.255C1459 678.925 1461.63 671.721 1456.88 666.882C1455 666.104 1453.05 665.108 1453.16 664.003C1453.27 662.898 1454.78 661.949 1456.54 660.938C1466.26 653.313 1476.15 648.77 1489.09 645.393C1458.81 634.097 1431.53 631.685 1399.61 639.325C1398.69 645.082 1396.55 649.952 1392.57 652.038C1387.16 654.854 1381.31 654.294 1377.82 649.595L1390.67 650.59C1393.8 650.839 1397.16 643.588 1396.68 641.239L1390.82 639.201L1396.15 637.178C1396.91 636.882 1395.37 634.642 1394.67 633.817C1390.51 628.916 1383.44 627.36 1378.68 632.043C1373.68 636.96 1373.74 642.593 1378.46 649.174C1371.62 646.7 1372.12 639.854 1374.5 634.113C1376.31 629.771 1381.76 626.924 1388.11 627.079C1392.12 627.173 1396.8 632.494 1399.78 636.602L1427.36 632.868C1433.46 632.043 1439.33 631.856 1445.36 632.914L1469.48 637.116L1494.65 644.693L1498.21 636.773L1498.82 635.435C1501.39 631.561 1505.91 629.102 1512.37 628.153C1512.21 618.522 1514.19 608.112 1519.75 599.772L1521.09 598.449C1529.2 585.877 1543 578.844 1557.31 572.947C1560.27 571.795 1563.17 570.737 1566.06 570.348L1603.38 565.4C1613 551.334 1622.92 535.976 1635.27 525.442C1642.48 529.27 1654.39 529.519 1659.07 521.085C1659.53 520.261 1660.47 516.915 1659.7 516.402L1655.56 513.601C1653.1 520.759 1647.01 523.357 1640.71 521.148C1635.74 519.405 1633.36 511.781 1636 506.49C1638.65 501.2 1646.89 499.208 1651.87 504.888L1655.1 508.575C1655.97 509.571 1658.82 507.502 1661.22 505.65L1652.96 495.925L1651.17 495.225C1644.19 494.478 1636.89 494.602 1631.64 500.282C1627.2 505.074 1627.31 512.247 1628.47 520.261C1623.45 513.835 1624.74 504.856 1630.09 499.068C1635.43 493.28 1643.84 489.328 1651.45 493.965L1653.02 494.929L1653.01 495.023ZM1640.15 505.105C1636.08 507.626 1635.91 513.554 1638.14 516.231C1641.05 519.732 1645.88 520.541 1648.68 518.845C1653.12 516.153 1653.13 510.629 1651.02 507.517C1649.15 504.794 1643.04 503.3 1640.15 505.09V505.105ZM1521.18 600.923C1516.33 609.606 1513.15 618.459 1515.59 627.873C1527.68 630.129 1533.83 640.71 1531.87 652.224C1566.61 638.469 1572.68 608.843 1562.06 574.565C1545.1 578.875 1532.3 587.526 1522.1 599.585L1521.18 600.939V600.923ZM1614.92 620.731C1612.07 624.061 1612.36 629.056 1615.6 632.012C1618.84 634.968 1623.84 634.828 1626.91 631.701C1629.98 628.573 1629.99 623.563 1626.95 620.404C1623.92 617.246 1618.92 617.059 1615.65 619.984C1615.38 620.218 1615.14 620.466 1614.92 620.731ZM1499.19 638.423L1497.89 644.989C1497.59 646.452 1502.75 646.483 1503.46 645.191L1506.4 639.87C1506.22 643.869 1505.69 647.992 1507.04 650.264C1508.68 652.987 1514.91 655.041 1517.46 653.593C1521.7 651.197 1522.01 645.269 1519.98 641.472C1518.51 638.672 1513.23 638.174 1508.79 637.505C1510.33 636.898 1516.89 636.478 1519.16 637.567C1523.54 640.445 1524.52 649.034 1521.59 653.796C1524.19 655.243 1528.97 653.049 1529.52 650.124C1531.09 641.737 1526.43 634.782 1520.44 631.934C1513.23 628.511 1504.41 631.934 1500.42 637.022C1500.27 637.209 1499.19 638.251 1499.16 638.438L1499.19 638.423Z" fill="#B8926A" stroke="#B8926A" stroke-width="0.5" stroke-miterlimit="10"/>
<path d="M843.683 589.175C845.256 586.063 849.149 581.286 852.186 580.26L856.967 582.438C858.026 582.92 860.05 578.641 859.957 577.428L858.54 556.702C855.815 542.838 851.034 529.97 852.217 516.308C853.946 496.096 862.386 480.676 881.37 475.479C894.638 451.937 932.994 466.392 954.609 482.761L932.433 472.149C914.696 463.654 889.437 460.853 883.379 477.331C854.943 484.317 851.283 512.683 856.967 541.344L863.134 572.464C864.769 573.491 869.114 575.747 871.014 575.405C872.914 575.062 875.639 573.117 878.38 571.608C876.309 577.957 870.297 579.544 863.056 575.763L859.241 584.927L874.985 600.301L874.455 602.604L857.979 587.028L851.08 604.533L863.85 618.335L849.367 607.972C849.445 623.111 835.056 629.787 839.058 632.712C846.393 638.065 873.443 639.869 878.099 671.269C873.848 670.46 871.232 667.488 869.394 663.007L875.078 666.337C870.951 651.617 859.163 641.612 844.478 637.769C839.463 636.462 836.411 633.77 834.262 627.966C843.029 624.138 849.336 614.989 846.253 605.015L839.697 597.142L834.293 597.515L842.936 590.42C843.169 590.233 843.341 589.844 843.699 589.191L843.683 589.175ZM843.699 590.965C841.192 595.368 843.154 600.098 849.118 603.646L856.11 585.954L852.389 582.313L844.571 590.14L843.714 590.949L843.699 590.965Z" fill="#B8926A" stroke="#B8926A" stroke-width="0.5" stroke-miterlimit="10"/>
<path d="M969.296 569.912C964.359 562.583 963.986 554.601 968.206 546.199L968.595 524.166C959.516 518.331 947.385 515.421 936.344 517.787C933.992 526.251 929.305 531.542 919.977 533.144C915.056 533.984 916.068 544.083 911.318 551.24C910.462 552.532 905.167 550.54 905.042 549.031C904.7 545.11 903.734 537.625 901.881 533.642C900.199 530.048 891.058 529.721 889.516 532.88C883.1 546.074 890.98 562.226 893.363 561.977L900.199 561.261C899.825 562.506 897.583 565.54 896.01 565.571C886.978 565.711 882.929 548.797 884.782 535.976C885.311 532.335 891.322 528.072 894.53 527.854C898.782 527.574 904.263 531.837 905.26 535.976L909.044 551.754L915.211 534.747C916.815 530.328 924.835 526.796 929.367 526.967L935.036 515.748C945.438 514.737 954.891 516.199 965.34 518.207C957.18 513.694 945.672 511.329 935.674 512.636C932.637 513.041 929.32 519.529 928.106 521.661C927.639 517.787 930.582 512.169 933.572 510.785C941.436 507.159 962.382 512.138 973.547 519.794C975.977 518.673 981.365 512.652 980.804 509.54C979.714 503.44 976.569 496.205 973.392 492.315L957.211 484.737C972.831 485.92 978.593 492.284 982.066 506.163C984.199 514.69 978.609 521.132 970.853 522.843L971.538 544.876L966.664 554.601L969.981 569.087L970.838 570.13C972.566 572.262 973.61 578.781 971.679 580.275C960.357 579.839 964.126 589.736 955.156 602.277L954.626 592.801C958.862 590.233 960.809 586.981 960.762 580.555L970.947 578.237L969.95 570.721L969.296 569.928V569.912Z" fill="#B8926A" stroke="#B8926A" stroke-width="0.5" stroke-miterlimit="10"/>
<path d="M304.97 829.778H-74.2305V831.334H304.97V829.778Z" fill="#B8926A" stroke="#B8926A" stroke-width="0.5" stroke-miterlimit="10"/>
<path d="M806.108 713.888C789.881 695.729 789.912 666.228 806.108 647.603C795.705 666.975 791.391 689.786 804.66 708.815L806.092 681.834C806.653 671.363 809.16 659.584 817.133 652.053C829.358 640.492 849.665 642.919 860.613 653.842C846.488 647.042 831.118 642.592 819.298 653.064C804.379 666.29 810.032 692.602 806.108 713.888Z" fill="#B8926A" stroke="#B8926A" stroke-width="0.5" stroke-miterlimit="10"/>
<path d="M1552.97 496.936C1549.04 499.301 1545.18 504.452 1546.54 508.544C1548.28 513.819 1556.49 512.932 1559.4 510.582C1557.28 515.204 1548.47 515.375 1545.85 511.298C1542.39 505.883 1544.99 498.928 1547.97 494.385L1543.98 492.906L1551.88 486.76C1552.81 471.418 1553.53 454.489 1547.89 440.501C1541.01 438.696 1533.69 435.802 1533.8 427.337C1533.88 421.082 1537.74 414.796 1544.54 413.364C1551.35 411.933 1558.26 416.943 1559.82 423.369C1561.38 429.795 1557.52 436.797 1550.54 439.583L1554.17 457.959C1555.9 466.688 1555.21 475.495 1554.77 484.426C1554.14 497.574 1545.82 494.12 1552.97 496.952V496.936ZM1546.65 429.375L1551.07 437.249C1554.95 434.323 1558.95 428.659 1558.05 425.159C1556.63 419.681 1552.44 415.854 1548.48 415.589C1542.6 415.185 1537.75 417.596 1536.69 423.711C1536.21 426.497 1536.69 433.016 1538.8 434.448C1540.68 435.724 1544.42 437.077 1547.24 438.011L1546.66 429.375H1546.65Z" fill="#B8926A" stroke="#B8926A" stroke-width="0.5" stroke-miterlimit="10"/>
<path d="M1543.98 492.875C1538.77 499.722 1537.38 510.334 1543.42 516.604C1548.28 521.646 1556.33 521.179 1561.66 517.818C1566.35 514.862 1569.29 507.471 1567.58 502.18C1567.31 501.371 1564.88 499.628 1564.7 500.375L1563.87 503.581C1563.15 506.366 1562.06 509.229 1559.4 510.567C1561.18 509.136 1562.67 503.176 1561.1 501.511C1559.52 499.846 1555.23 497.823 1552.97 496.921C1555.16 495.832 1558.93 497.419 1562.44 499.177L1567.23 496.299C1570.15 501.994 1570.8 509.96 1567.2 515.344C1563.43 520.977 1556.68 522.673 1549 521.692C1541.99 520.805 1538.24 514.659 1537.16 507.984C1536.21 502.056 1539.73 496.174 1544 492.86L1543.98 492.875Z" fill="#B8926A" stroke="#B8926A" stroke-width="0.5" stroke-miterlimit="10"/>
<path d="M1733.57 703.759L1728.41 706.637C1729.89 710.869 1737.74 713.157 1742.23 710.714C1748.13 707.493 1748.11 700.942 1745.51 693.069C1752.72 697.519 1749.92 707.384 1744.76 711.523C1737.01 717.731 1730.22 713.017 1725 706.964C1707.44 708.022 1688.23 704.272 1675.18 691.451L1660.67 677.198L1662.1 675.813L1676.79 689.879C1689.25 701.814 1707.53 706.497 1723.97 704.552C1722.9 697.55 1725.31 691.451 1730.06 689.148C1735.3 686.612 1743.1 687.141 1745.4 692.898C1740.73 690.766 1735.98 688.37 1731.62 690.455C1728.4 691.995 1725.7 697.379 1725.3 702.125L1733.6 703.759H1733.57Z" fill="#B8926A" stroke="#B8926A" stroke-width="0.5" stroke-miterlimit="10"/>
<path d="M86.9023 664.361C86.2483 671.425 85.1114 674.895 82.2304 682.052L78.1348 668.173C79.4585 665.621 80.7666 661.809 80.7666 658.759L80.7354 586.981L83.741 587.013L83.4451 643.153L81.6075 664.454C81.2649 668.5 81.2649 672.172 82.3394 674.366L86.8867 664.361H86.9023Z" fill="#B8926A" stroke="#B8926A" stroke-width="0.5" stroke-miterlimit="10"/>
<path d="M913.077 766.169C910.04 764.396 906.817 760.272 905.711 757.222C901.257 744.868 896.772 733.914 890.216 722.633C887.335 717.685 885.077 711.181 884.267 705.423L881.152 683.531L882.85 684.387L888.394 712.301L902.954 743.965C906.583 751.87 908.981 758.778 913.077 766.169Z" fill="#B8926A" stroke="#B8926A" stroke-width="0.5" stroke-miterlimit="10"/>
<path d="M1677.97 638.64C1676.21 633.599 1677.41 627.484 1681.3 624.107C1680.14 631.047 1678.7 637.084 1682.27 642.795C1684.73 646.731 1690.87 651.306 1696.88 650.621C1701.86 650.046 1706.94 645.953 1709.01 642.826C1712.26 637.893 1711.59 631.156 1709.49 626.208L1703.78 624.247C1724.27 608.158 1766.66 610.057 1784.68 627.328C1758.56 613.464 1736.63 611.426 1709.15 621.867C1713.68 629.507 1714.65 637.318 1710.49 644.273C1707.33 649.548 1700.32 653.515 1692.38 652.193C1686.32 651.197 1680.54 645.984 1677.97 638.64Z" fill="#B8926A" stroke="#B8926A" stroke-width="0.5" stroke-miterlimit="10"/>
<path d="M1619.29 428.488C1617.7 423.276 1615.63 415.683 1620.29 412.586C1619.98 417.643 1619.96 422.607 1620.99 425.392L1624.9 423.898C1625.34 423.727 1627.06 423.774 1626.75 424.116C1626.29 424.63 1624.29 427.508 1624.54 428.162C1625.93 431.787 1634.32 432.052 1637.42 428.457C1641.67 423.556 1641.89 418.701 1638.76 414.22C1634.68 408.369 1629.43 409.132 1622.08 411.139C1626.58 405.522 1635.58 407.062 1639.55 411.808C1643.73 416.787 1643.94 424.147 1639.63 429.111C1635.16 434.246 1627.67 434.199 1621.4 430.215C1605.12 447.02 1615.63 475.417 1594.16 484.535C1602.82 475.868 1607.71 466.812 1608.53 454.691C1609.17 445.526 1614.08 437.093 1619.26 428.488H1619.29Z" fill="#B8926A" stroke="#B8926A" stroke-width="0.5" stroke-miterlimit="10"/>
<path d="M305.08 626.068L304.971 595.01L270.711 594.637L270.664 591.743L306.342 591.836L306.606 625.228L305.08 626.068Z" fill="#B8926A" stroke="#B8926A" stroke-width="0.5" stroke-miterlimit="10"/>
<path d="M411.644 576.338L410.289 550.244L381.105 548.953L410.32 547.428L411.613 526.158L413.061 547.397L429.786 548.937L412.968 550.26L411.644 576.338Z" fill="#B8926A" stroke="#B8926A" stroke-width="0.5" stroke-miterlimit="10"/>
<path d="M1700.96 627.048C1697.69 626.084 1691.52 625.881 1689.62 628.418C1687.19 631.67 1687.17 638.22 1689.96 640.103C1694.03 642.857 1699.42 641.332 1703.54 638.749C1702.83 643.262 1696.85 644.911 1692.72 643.728C1688.16 642.406 1684.96 637.66 1685.23 633.194C1685.54 627.733 1689.35 624.154 1695.24 623.625L1704.55 602.401L1698.87 620.855C1698.51 622.007 1700.61 626.441 1700.97 627.048H1700.96Z" fill="#B8926A" stroke="#B8926A" stroke-width="0.5" stroke-miterlimit="10"/>
<path d="M851.502 796.853C846.643 792.699 842.843 787.019 839.744 780.904L821.617 745.179L823.252 743.934L841.815 780.266L851.517 796.853H851.502Z" fill="#B8926A" stroke="#B8926A" stroke-width="0.5" stroke-miterlimit="10"/>
<path d="M1716.06 481.314C1718.93 483.866 1720.69 486.698 1722.71 486.869C1725.03 487.071 1728.88 485.718 1732.6 484.66C1729.72 490.495 1719.85 490.261 1714.85 485.904C1709.85 481.548 1710.26 469.878 1717.25 466.921C1714.54 472.087 1711.97 477.658 1716.08 481.314H1716.06Z" fill="#B8926A" stroke="#B8926A" stroke-width="0.5" stroke-miterlimit="10"/>
<path d="M1732.03 578.439L1728.27 584.118C1731.11 584.959 1735.76 584.85 1741.04 584.43C1737.09 589.051 1729.1 588.864 1724.69 583.916C1721.02 579.793 1719.33 573.164 1723.02 568.201L1724.16 580.384L1732.01 578.439H1732.03Z" fill="#B8926A" stroke="#B8926A" stroke-width="0.5" stroke-miterlimit="10"/>
<path d="M1797.7 647.929C1793.51 650.59 1795 657.188 1798.43 662.898C1791.42 660.253 1792 650.263 1797.03 644.584L1791.89 636.244L1793.13 635.264L1801.14 645.113C1801.5 645.549 1801.01 648.63 1801.56 648.785C1802.1 648.941 1800.16 648.49 1797.71 647.914L1797.7 647.929Z" fill="#B8926A" stroke="#B8926A" stroke-width="0.5" stroke-miterlimit="10"/>
<path d="M569.117 728.654C560.833 714.899 545.587 709.796 530.652 711.663C512.899 713.872 500.005 724.5 486.846 736.559C495.349 721.435 510.999 714.962 528.457 709.376L499.07 659.755L500.69 658.417L531.384 710.091C546.225 708.302 562.296 713.032 570.067 726.429C573.042 731.564 572.839 738.519 570.317 742.612L569.102 728.654H569.117Z" fill="#B8926A" stroke="#B8926A" stroke-width="0.5" stroke-miterlimit="10"/>
<path d="M1066.55 573.086L1097.2 583.076L1097.8 551.816L1086.37 554.197L1097.52 548.937L1097.41 520.587C1082.9 514.986 1069.76 511.438 1056.43 504.452L1097.18 517.724L1097.35 486.916L1060.94 500.017C1060.43 499.426 1062.92 497.465 1063.98 497.061L1098.68 483.85L1144.74 501.526L1145.43 516.106L1145.38 566.209L1169.59 566.878C1173.61 566.987 1179.39 569.959 1181.69 572.402L1182.94 574.471L1190.48 589.191C1194.17 596.38 1197.94 603.257 1205.65 606.851C1210.86 609.294 1218.4 609.59 1223.88 607.085C1228.07 605.171 1233.61 598.745 1234.05 592.925L1235.3 576.058L1215.95 576.214C1213.6 576.23 1209.23 573.444 1208.14 571.686L1208.29 483.321C1216.9 480.178 1224.33 479.556 1233.32 479.587L1298.51 479.743C1300.62 479.743 1303.3 485.313 1303.29 487.383L1302.8 552.874L1301.5 575.887L1237.76 576.37L1236.71 588.895C1235.92 598.402 1231.04 608.516 1220.78 610.243C1210.4 611.986 1198.98 609.279 1193.93 599.569L1181.74 576.058C1181.35 575.312 1181.12 574.642 1180.93 574.471C1178.6 572.277 1173.05 568.434 1169.52 568.434H1143.28L1098.83 586.39L1066.56 573.102L1066.55 573.086ZM1278.17 569.648L1262.72 571.064C1254.16 571.842 1246.65 571.686 1238.75 570.457L1256.48 568.652L1281.64 568.574L1284.02 574.331C1284.38 575.218 1288.28 575.234 1289.32 575.047L1300.13 573.133L1300.02 481.423L1248.7 481.75L1218.84 482.761C1216 482.855 1209.79 483.959 1209.79 487.429V572.682L1235.2 573.413L1229.81 559.658C1237.07 560.452 1236.12 561.992 1238.82 567.096L1236.65 574.16L1279.29 574.751L1281.41 572.34C1281.72 571.982 1278.62 569.617 1278.17 569.648ZM1113.64 512.916L1140.3 502.009L1099.44 486.667L1099.22 518.129L1112.27 513.476L1113.64 512.916ZM1112.82 514.955L1099.38 520.51L1099.98 549.793L1142.98 565.649L1142.72 503.783L1114.19 514.348L1112.82 514.955ZM1140.33 567.205L1099.69 551.801L1099.95 583.62L1140.33 567.205Z" fill="#B8926A" stroke="#B8926A" stroke-width="0.5" stroke-miterlimit="10"/>
<path d="M1060.93 500.001L1056.41 504.436L1052.33 505.899L1052.66 565.415C1056.21 565.68 1057.55 565.664 1057.89 566.427C1058.14 567.002 1058.61 568.745 1059.17 569.056L1066.56 573.086C1061.53 571.437 1055.18 570.286 1050.6 567.5L1051.08 504.312C1051.12 500.639 1058.45 500.904 1060.94 500.001H1060.93Z" fill="#B8926A" stroke="#B8926A" stroke-width="0.5" stroke-miterlimit="10"/>
<path d="M1173.36 640.897C1173.32 645.969 1161.39 645.549 1158.32 643.106L1095.44 642.188L1033.83 641.27L1021.45 639.107L1021.29 602.479C1021.29 600.114 1023.1 595.197 1025.14 594.419C1027.63 593.47 1032.47 594.388 1035.64 594.388L1084.77 594.295L1099.58 594.342L1173.74 594.98L1173.36 640.881V640.897ZM1119.09 640.772L1172.26 641.395L1172.37 596.504L1024.56 596.349L1024.06 627.157C1024.02 630.098 1021.96 637.707 1025.67 637.972L1056.69 639.216L1119.11 640.788L1119.09 640.772Z" fill="#B8926A" stroke="#B8926A" stroke-width="0.5" stroke-miterlimit="10"/>
<path d="M1322.07 439.551C1324.28 438.244 1329.92 440.936 1330.43 443.115C1331.01 445.589 1329.23 449.774 1326.62 451.128C1324.59 452.186 1320.18 450.879 1318.95 448.81C1317.54 446.429 1318.44 441.683 1322.07 439.551Z" fill="#B8926A" stroke="#B8926A" stroke-width="0.5" stroke-miterlimit="10"/>
<path d="M1303.33 449.884C1301.98 447.316 1302.76 440.89 1305.06 440.221C1307.68 439.474 1312.38 441.497 1313.94 444.624C1314.83 446.414 1312.97 450.646 1311.18 451.408C1309.39 452.171 1304.24 451.611 1303.32 449.884H1303.33Z" fill="#B8926A" stroke="#B8926A" stroke-width="0.5" stroke-miterlimit="10"/>
<path d="M1164.7 701.129C1160.24 707.633 1153.2 708.053 1148.37 705.128C1142.72 701.72 1140.86 695.667 1143.91 688.806C1146.47 683.095 1154.16 682.146 1159.52 684.682C1164.88 687.218 1168.74 695.247 1164.7 701.129ZM1163.97 698.001C1166.15 689.957 1157.84 683.749 1151.12 685.46C1146.69 686.596 1143.67 692.198 1144.23 696.523C1144.65 699.791 1149.19 703.556 1153.27 704.552C1156.39 705.315 1162.85 702.094 1163.97 697.986V698.001Z" fill="#B8926A" stroke="#B8926A" stroke-width="0.5" stroke-miterlimit="10"/>
<path d="M1267.63 493.653C1250.43 485.235 1232.29 491.413 1224.35 506.366C1218.21 517.927 1219.46 529.114 1225.72 540.426C1219.35 536.77 1219.23 529.83 1218.84 523.31C1217.87 506.63 1227.87 492.86 1243.95 488.783C1252.32 486.667 1261.57 486.605 1267.63 493.669V493.653Z" fill="#B8926A" stroke="#B8926A" stroke-width="0.5" stroke-miterlimit="10"/>
<path d="M1287.31 534.825C1288.15 532.475 1288.85 528.492 1288.15 526.469C1285.4 518.393 1272.7 528.087 1265.76 524.228L1281.89 520.432C1284.26 519.872 1289.07 523.046 1289.9 525.333C1290.72 527.62 1290.67 533.393 1289.35 535.385L1287.56 538.092C1287.28 538.512 1285.96 538.559 1286.13 538.092L1287.31 534.809V534.825Z" fill="#B8926A" stroke="#B8926A" stroke-width="0.5" stroke-miterlimit="10"/>
<path d="M1238.12 551.334C1252.49 556.064 1265.31 554.975 1278.39 546.401C1268.89 557.604 1250.51 559.549 1238.12 551.334Z" fill="#B8926A" stroke="#B8926A" stroke-width="0.5" stroke-miterlimit="10"/>
<path d="M1030.67 602.604H1163.04V611.939H1030.67V602.604ZM1031.99 606.805C1033.35 608.47 1037.82 610.275 1040.7 610.29L1161.17 610.446L1161.28 605.747L1106.29 604.72L1038.35 604.004L1032.97 605.529C1032.68 605.607 1032.57 605.809 1031.99 606.805Z" fill="#B8926A" stroke="#B8926A" stroke-width="0.5" stroke-miterlimit="10"/>
<path d="M1110.11 630.907L1159.22 630.472L1160.1 628.184L1134.15 626.597L1031.35 626.13C1034.33 630.876 1038.77 630.674 1043.03 630.674L1092.18 630.58L1093.04 632.105L1032.34 632.183C1031.34 629.803 1030.45 623.952 1030.78 623.516L1040.48 623.096L1057.24 624.139L1153.63 624.512C1156.02 624.512 1161.2 626.068 1163.24 626.613C1161.87 632.432 1158.4 634.455 1153.91 634.113L1134.62 632.634L1114.28 632.074C1113.41 632.043 1111.32 631.39 1110.09 630.923L1110.11 630.907Z" fill="#B8926A" stroke="#B8926A" stroke-width="0.5" stroke-miterlimit="10"/>
<path d="M1030.77 615.089L1030.71 618.418L1152.96 620.572L1153.02 617.242L1030.77 615.089Z" fill="#B8926A" stroke="#B8926A" stroke-width="0.5" stroke-miterlimit="10"/>
<path d="M1252.54 493.918C1255.48 493.373 1260.87 496.127 1261.65 498.803C1262.61 502.102 1260.35 507.641 1257.52 508.746C1254.11 510.069 1247.99 507.704 1247.24 504.825C1246.15 500.593 1247.12 494.913 1252.52 493.902L1252.54 493.918ZM1252.97 506.49C1256.65 506.459 1259.56 504.576 1259.92 502.367C1260.31 499.986 1257.88 496.485 1254.93 496.407C1251.99 496.329 1249.39 498.694 1248.61 501.013C1248 502.833 1250.7 506.506 1252.97 506.49Z" fill="#B8926A" stroke="#B8926A" stroke-width="0.5" stroke-miterlimit="10"/>
<path d="M1234.89 533.735C1232.57 534.42 1227.39 532.288 1226.31 530.452C1225.08 528.352 1225.95 523.201 1227.73 521.552C1229.81 519.623 1235.41 519.965 1237.06 521.832C1240.56 525.8 1240.2 532.164 1234.89 533.735ZM1236.81 526.593C1236.81 524.166 1234.84 522.205 1232.42 522.205C1229.99 522.205 1228.02 524.166 1228.02 526.593C1228.02 529.021 1229.99 530.981 1232.42 530.981C1234.84 530.981 1236.81 529.021 1236.81 526.593Z" fill="#B8926A" stroke="#B8926A" stroke-width="0.5" stroke-miterlimit="10"/>
<path d="M1243.15 534.482C1245.56 533.284 1251.01 535.26 1252.41 537.688C1253.81 540.115 1251.63 545.219 1249.47 546.883C1246.24 549.373 1241.26 547.708 1240 544.97C1238.33 541.313 1239.28 536.396 1243.13 534.482H1243.15ZM1250.47 540.691C1250.47 538.077 1248.33 535.945 1245.72 535.945C1243.1 535.945 1240.97 538.077 1240.97 540.691C1240.97 543.305 1243.1 545.436 1245.72 545.436C1248.33 545.436 1250.47 543.305 1250.47 540.691Z" fill="#B8926A" stroke="#B8926A" stroke-width="0.5" stroke-miterlimit="10"/>
<path d="M1261.27 534.545C1265.01 533.284 1269.59 535.525 1270.33 538.357C1271.35 542.122 1269.52 546.93 1266.27 547.988C1263.44 548.906 1258.51 547.397 1257.22 545.11C1255.38 541.858 1255.73 536.412 1261.27 534.545ZM1267.67 544.161C1269.76 542.885 1267.97 537.019 1265.99 536.303C1264.35 535.712 1260.82 537.05 1258.87 538.466C1257.47 539.493 1258.67 544.021 1260.13 545.405C1261.4 546.588 1265.35 545.592 1267.67 544.145V544.161Z" fill="#B8926A" stroke="#B8926A" stroke-width="0.5" stroke-miterlimit="10"/>
<path d="M1236.04 515.064C1232.77 515.141 1229.66 511.251 1229.57 508.559C1229.43 504.436 1231.47 500.453 1236.39 500.328C1239.66 500.25 1242.77 504.141 1242.86 506.832C1243 510.956 1240.96 514.939 1236.04 515.064ZM1241.21 507.673C1241.21 504.918 1238.97 502.678 1236.21 502.678C1233.46 502.678 1231.22 504.918 1231.22 507.673C1231.22 510.427 1233.46 512.667 1236.21 512.667C1238.97 512.667 1241.21 510.427 1241.21 507.673Z" fill="#B8926A" stroke="#B8926A" stroke-width="0.5" stroke-miterlimit="10"/>
</svg>
