<svg xmlns="http://www.w3.org/2000/svg" width="1920" height="1017" fill="none" viewBox="0 0 1920 1017"><path fill="#b8926a" stroke="#b8926a" stroke-miterlimit="10" stroke-width=".5" d="M595.795 738.192c-.499-.591-2.321-1.991-3.193-1.462l-4.672 2.894c-.732.451-1.105-2.972-.358-3.221l5.31-1.789-3.13-4.684c-.623-.934-3.659-.202-3.613-.296.281-3.252-.482-6.955-1.759-8.791l-9.033 4.995-.934-1.152 7.568-5.881c.421-1.183-1.806-4.621-3.145-4.155l-6.354 2.163 4.952-4.917c1.059-1.058-1.246-5.337-2.663-5.057l-6.385 1.276 4.952-5.041-8.3-12.433-4.267.296c1.184-1.494 2.352-5.337 1.199-6.737s-4.625-1.276-7.755-1.385c-.171-.078 4.983-2.101 4.298-3.221l-3.192-5.244c-3.598 2.63-5.653 4.03-11.057 4.279l7.008-4.637c1.183-.793 3.644-3.859 2.398-4.497-4.937-2.551-5.871 1.043-8.768-.529 2.539-1.291 5.653-2.349 5.482-3.905-.14-1.292-1.993-4.901-3.224-4.481l-5.855 2.022 4.719-4.73-6.339-9.694-3.581.856c-.405.094-.234-.684.031-1.027.296-.358 2.133-2.225 1.9-2.614l-5.793-9.522-6.183.622 4.796-3.626c.919-.7-2.133-4.154-3.161-3.687l-9.157 4.139-.171-1.976 8.098-4.497-5.591-8.496c-.296-.451-3.504-1.743-3.348-2.754l.685-4.481-.7-.778-3.271 1.307c-.467.186-.233-1.276-.14-1.759l.872-4.559-12.443 4.7 9.142-6.987c.405-.249-1.168-6.146-2.866-6.068l-7.615.342c.405-1.634 6.525-4.808 8.269-3.299l9.188 15.156.654 1.042 31.645 51.504c13.984 22.764 26.567 45.201 42.015 67.81l-.031-345.741c0-19.668-37.017-25.721-52.216-12.604-3.519 3.034-6.759 11.81-6.759 17.194l-.124 239.218-1.511-.949.032-227.828-239.076-.887-159.077-.483c-7.553-.015-16.289 3.268-22.036 6.489 3.815-3.812 10.605-8.216 17.847-8.216l402.326-.124c-.156-8.403-.343-18.159 5.046-24.367 9.141-10.534 36.394-11.608 49.973-2.303 3.006 2.054 7.288 8.433 7.288 12.93l-.031 343.438c0 5.493-.436 8.418 1.199 12.853z"/><path fill="#b8926a" stroke="#b8926a" stroke-miterlimit="10" stroke-width=".5" d="M112.161 403.982c-3.846 2.162-9.421 10.067-9.468 14.704l-.483 53.214 79.095-.031.234-14.393.623-51.02 1.354.886-.093 64.605h72.725l.826-25.036 1.23.872.156 24.149 46.065.093.825-12.65 1.168.871.763 11.826 39.337-.063 1.199-25.175 1.635 25.191 61.249-.047.467-20.383 1.261.84.436 19.559 53.104.031 1.869-22.095 1.245 22.453c10.123-.389 17.941-1.276 27.424.98-9.592 2.708-17.005 1.463-27.875.934l-.125 73.24 23.5.918-.872 1.136-22.69.405.187 98.385 21.833 1.26-.903 1.152-21.117.077-.452 35.881-2.18-23.635-.28-12.261-52.434-.202-1.324 11.389-1.76-11.421-19.559.078 6.727 25.985c10.777-.887 17.676-2.832 26.568 1.743l-23.905.296c-.545 0-2.538.264-2.398.762l.981 3.548 22.846.544 3.301-4.839-.171 4.793c-.031.933-3.052 1.447-4.018 1.462l-21.35.389 20.727 86.918 3.769-9.149c1.526-3.704 11.088 6.052 5.357 24.04-3.847-1.852-6.385-4.544-8.425-7.096 1.355 8.589 2.289 17.334-.826 25.005 1.028 8.278 1.153 15.887-.607 24.305l33.965-.156c0 .482-1.651 1.914-2.383 1.929l-33.124.638c-8.362-25.253-14.202-48.904-19.762-74.858l-68.738-.14c-5.295 26.778-11.213 49.418-18.47 73.302-6.447-7.266-.031-19.341-3.551-34.574l-.84-14.579-1.449 5.928c-.342 1.4-5.699 1.649-5.902.14-.747-5.493-.545-15.902.062-21.441l.779-1.09c.327-.762 3.551-2.38 4.189-1.416l3.893 6.006 4.844-23.822 7.381-25.269 7.724-34.854-20.836-.078c-1.573 0-4.314-1.509-5.093-2.458-.981-1.214 1.76-5.306 3.644-5.306l24.419-.078 15.775-69.771c-5.326-8.433-9.577-19.387-4.36-29.812 2.351-4.7 7.786-8.792 12.801-12.044-.421-10.036-1.402-20.835.078-31.12.856-5.959 15.728-4.403 15.884.918l.872 31.509c7.397 4.03 12.614 10.067 14.498 15.653 2.928 8.683-1.479 16.587-5.466 23.107l10.512 43.039 19.84-.763 1.479-28.397 1.355 28.319 53.446-.031.141-82.421-.686-15.03-25.679-1.51 26.365-1.649.451-61.353-53.96-.109-1.479 29.844-1.2-29.735-61.248-.078-1.386 18.984-1.37-18.937h-39.26l-1.417 26.67-1.339-26.623-45.504-.171-1.417 26.778-1.448-26.685-58.508.031v61.508l42.281 1.354-20.572 1.12.265 29.315 36.674-.498.14-28.692-8.378-1.089 8.004-2.007 1.589-25.41 1.012 25.705 21.724 1.79-21.973 1.104.062 28.755 46.454.389-.062-28.895-12.614-1.4 12.178-1.665 1.448-24.242 1.339 24.802 39.914.389v-33.594l1.448-.824.171 35.787-41.875.327-.265 30.824-48.089.203c.078 4.745.669 9.04 1.635 12.712l-2.881 9.694-1.433-8.963c-8.596.28-15.588 1.105-23.873-1.167 8.752-2.287 14.919-1.338 24.091-.996l.078-11.234-38.278-.264v-31.089l-20.323.187.031 42.26 19.186-.591c1.713-.047 4.454 1.369 6.105 3.174l-25.322-.171.156 53.277 18.61.14v2.895l-18.377-.95-.404 21.177 58.647.031.109-20.725-27.221.622-1.885-3.314 28.888.249 1.511-34.59 1.105 34.496h45.52l1.682-11.265 1.697 11.794c8.612-.404 15.527-1.633 23.889 1.059-8.752 1.96-14.856 1.275-24.356.995l-.576 22.049-47.606.56-.109 11.234 34.026 1.603-34.167.887-.342 11.561-1.153.84-1.308-12.51-72.445-.125.265 46.773-1.386 23.294 21.475-1.027 47.653-1.152c19.077-.451 37.733-2.116 57.044 1.634l-94.45 1.276-31.893 1.509c.186 6.738 1.463 17.318-2.632 22.982-11.587 15.996-55.798 14.362-69.191-2.007 20.011 11.748 44.788 16.649 64.784 4.045 7.428-4.683 6.057-17.209 3.83-24.304-14.638 2.178-38.075 2.303-38.324.062l-.483-4.388c13.626-2.754 25.96-2.163 40.209 1.136l.452-69.833-78.317-.093.203 71.824c.015 7.205 3.208 13.584 6.027 20.244-5.793-4.326-8.659-13.008-8.674-21.068l-.219-71.249c-13.377.109-25.586 1.634-39.087-1.12 12.987-2.723 24.449-1.463 38.838-1.074V474.623l-16.896-1.54 4.672 18.298-4.86-8.464-1.899 6.582 1.137.809 2.382 3.47-.358 72.12-2.74 2.272-.234-76.929-1.573-.186-1.402-2.972 3.754-14.378-19.56-.669.965-1.151 36.846-.327c1.199-28.008-6.572-58.256 12.474-67.67zm55.627 190.53.763-2.691 12.334.109-.218-41.872-34.681-1.074 34.696-1.742-.078-73.303c-11.134 1.167-21.537 1.307-32.096.311-15.059-1.416-30.336-.778-46.08 0l.031 209.561 78.254-.094-.046-33.251-31.582-2.085 32.22-.98c.841-18.097.841-35.197-.171-52.593l-13.331-.249zm28.342-111.797 60.081.295-.467-8.293c-24.886.389-47.327.498-72.212-.389l-.062 73.085 12.115.062.561-64.76zm108.637.233-.592-8.044-45.223-.467-.032 8.558 45.847-.031zm1.884-8.387v8.729l40.07.031v-8.729zm42.296 0v8.729l61.841.031v-8.729zm117.171 9.523v-9.196h-53.29l.186 8.262 38.481-.498zM368.896 564.7l-.233-30.046-12.287-.576-.172 31.306zm-185.598-15-.062 42.51h11.602l.062-42.479h-11.602zm188.791 50.585-9.095 5.151c.031.575 1.698 5.243 2.367 6.566 8.005-1.805 13.206-7.08 16.461-13.366 4.609-8.916 2.678-16.805-3.94-23.869-5.809-6.208-13.876-9.212-22.534-5.181l8.409 3.547c4.174 1.758 8.752 3.361 10.092 7.36-6.307-3.812-12.942-4.699-17.567-.389-5.076 4.73-5.045 11.359-1.526 15.684 4.906 6.022 9.562 5.68 17.333 4.513zm-20.883-6.099-2.57-15.218c4.236-2.956 6.634-4.886 6.073-10.129-9.655 3.75-15.806 14.175-13.486 24.662 2.009 9.071 9.313 18.221 20.058 17.738-1.682-7.359-5.622-11.452-10.075-17.053ZM194.838 625.29l-.094-30.669-11.165.047-.094 53.09 11.602.078zm123.026 172.715 22.83-105.263 17.613-78.391-10.855-5.274-27.626 120.324c-1.292 5.617-2.741 10.192-5.419 15.078-4.828 18.407-6.027 37.343-4.345 56.031 1.791 1.369 3.94 3.267 4.999 2.832s2.336-3.206 2.803-5.337Zm101.567-7.516c-2.679-20.57-6.323-40.253-11.4-60.403l-11.321-44.922-18.423-77.192-12.458 7.36 14.389 57.12 31.021 133.395c8.877-2.49 9.032-8.869 8.192-15.342zm-47.918-113.665 5.902.405c1.292.093.467-4.699.296-5.835-4.781-19.699-8.706-37.562-15.573-58.894-7.631 22.468-11.041 42.603-15.417 64.713l9.561-.638.779-16.135c.125-2.708 7.693-3.268 10.013-1.821 6.152 3.859 1.729 18.034 4.423 18.205zm-66.388-5.741-.747-20.586-45.894-.202-.171 20.694 46.812.078zm-61.7 1.774-47.279-.343-1.059-22.173-11.664.234-.14 33.096h72.819l-.203-10.332-12.458-.498zm122.622 22.515 1.37-16.603 1.386-12.323c.202-1.727-1.152-6.053-2.772-6.177-1.729-.14-5.217.14-6.774.622s-1.153 5.057-1.028 7.08l1.838 28.692c.077 1.121 1.074 3.548 1.899 4.03.826.483 3.629.062 3.707-.902l.358-4.419zm-37.64-11.966c-.623-3.065-1.604-4.777-2.43-4.761l-18.89.28c-.778 0-3.114 1.774-3.737 2.225s2.897 2.396 3.862 2.381l21.195-.14zm41.081 2.256-2.273 16.509c-2.928.109-7.32-.482-9.095-1.54l-.592-14.844-13.221-.265-14.919 69.631 67.913-.467-15.977-68.604zM170.295 757.44c-8.814-2.427-18.142-3.361-27.424 0 8.752 3.454 15.526 2.692 27.424 0Zm131.342 8.807-.748 1.292c-.903 4.59-.778 13.07.655 18.5 3.301-8.947 4.017-19.465.093-19.792Zm125.455 18.065c1.464-7.546 1.262-13.817-1.448-18.983-3.706 6.862-2.554 14.455 1.448 18.983Zm-112.218 21.395-5.482-2.365.763 20.539 4.719-18.158zm102.703.467c-2.694 1.089-5.03 2.52-4.781 3.236l4.953 14.58zM625.57 786.428l-5.575-6.753-6.525 3.143-.218-2.178 6.167-2.879c-1.137-2.116-2.538-5.384-3.878-5.104l-5.419 1.105 2.819-4.201c.638-.934-.686-3.968-1.495-4.917l-6.37-7.562c-.981-1.151-1.23-6.255-2.694-5.897l-6.556 1.571 4.298-4.388-4.36-10.191 25.025 37.437 4.75 10.798z"/><path fill="#b8926a" stroke="#b8926a" stroke-miterlimit="10" stroke-width=".5" d="M452.928 829.28v-28.07l5.7-3.049c2.927-14.347 7.584-28.273 14.187-41.483l-51.36-.249c5.404-2.754 11.104-3.221 17.395-3.097l34.556.701 9.11-11.157c-8.642 17.77-17.908 32.489-20.338 50.99-.669 5.073-2.414 7.889-7.677 9.709l.031 24.616 190.55.078-.856-26.639-14.312 1.012-26.069-.7-118.837-.343c1.199-24.584 20.089-59.828 41.175-63.718-7.693 5.026-14.405 8.839-19.793 17.085l38.48-.031-3.799-4.901c6.416 2.583 9.281 3.859 13.922 2.24 5.014-1.198 7.88-2.894 13.751-6.115l-9.842 10.721-54.241-.218c-10.044 12.744-16.242 27.495-17.878 43.49l95.229.031-1.23-6.83 5.076 7.017 26.21-.731 11.477-8.123c1.246-.886 2.928-3.998 1.993-5.134 1.557.871 3.971 4.17 2.585 5.103l-12.411 8.325 31.706.685-.124 27.976 67.228-.404c2.678-.016 7.085-1.759 8.456-3.532 1.183-1.525 1.744-6.878 1.292-8.963l-19.263-89.952c-6.556-30.637-18.828-64.776-4.283-93.312 7.179-14.082 34.152-17.023 52.699-15.654 5.715.42 11.82 3.657 15.651 6.567l.95 1.042c7.444 8.963 11.882 21.084 10.823 33.034-3.146-12.199-5.949-22.687-11.758-32.163l-.887-1.058c-7.88-4.636-22.706-2.271-33.731 1.774-3.395 1.245-7.444 8.729-7.397 12.339l.373 26.079 8.986 45.637c7.35 37.328 19.264 72.307 31.426 109.79l1.916-82.529 1.572-34.325c5.248-39.087 21.974-84.88 58.928-101.7-22.503 16.073-38.73 34.808-46.827 61.135-4.828 15.731-10.621 31.213-10.839 48.142l-.966 78.702-1.152 17.178c-.514 7.594 1.448 14.331-2.367 22.251l-32.003-110.615-11.103-56.265c-2.289-11.576-2.616-24.507 4.937-34.621 3.753-5.01 12.333-5.928 19.108-8.215-11.774-.716-24.279.731-36.301 5.368-15.931 6.146-19.793 37.484-15.246 57.665l20.276 90.107 8.565 44.673c1.153 5.99-1.105 11.218-8.082 12.479l-11.867 2.147-245.631.031c-2.71 0-6.261-.902-7.88-2.069zM1216.7 730.522l-4.06-7.811-18.46-1.385-23.26-1.681-18.94-1.369-17.47-1.058 6.27 25.145c1.58 6.301-6.01 10.783-10.71 12.152l-26.32 7.64c4.91 3.828 8.02 4.839 12.68 5.493l67.01 9.444-1 1.805-73.1-10.331-4.93-2.677c-1.11-.607-.55-4.388-.16-6.239l23.97-6.675c6.94-1.93 12.53-6.613 9.96-15.374l-5.96-20.399-20.62-1.462-21.75-1.541-20.36-1.431-24.79-1.727-20.35-1.416-14.81-1.79c-9.21-1.104-14.424-7.951-14.222-17.256l.654-30.855 1.215-90.73 1.23-94.635c.125-9.663 6.663-14.782 14.783-15.435l17.53-1.401 20.23-1.618 18.7-1.509 18.69-1.51 20.23-1.602 20.26-1.587 18.69-1.51 18.69-1.556 18.68-1.556 18.69-1.587 17.15-1.478 18.67-1.571 20.24-1.634 18.69-1.51 20.21-1.618 23.46-1.385c5.63-.326 11.29.42 15.52 3.859 3.15 2.552 6.33 8.34 6.25 13.397l-.87 55.285-1.25 61.415-.59 20.57 68.21-.249c10.84-.047 21.43-3.828 30.63-11.048-16.65-6.286-33.79-10.985-51.08-10.674-2.68 6.286-6.73 11.468-13.13 11.234-7.29-.264-12.63-4.294-13.16-12.276-.36-5.509 5.72-11.888 11.59-12.931 7.1-1.26 12.08 4.902 14.28 11.655 18.2.218 36.11 4.543 53.74 11.374l18.86-15.544 1.6-1.276c21.56-17.116 29.87-15.265 37.83-20.43.97-.623.66-4.482-.45-4.124l-3.32 1.027c-.48.156-2.12.125-1.91-.327l1.73-3.781-14.24-8.06c-12.75-7.204-25.18-15.062-34.4-26.218-6.01.342-12.63-1.027-15.23-5.975-2.82-5.337-2.52-11.67 1.23-15.731s11.03-5.197 16.6-2.381c9.02 4.559 6.31 17.038.7 23.356 7.57 11.576 19.78 18.78 31.62 24.818l15.4 7.857c.67.343 3.75.452 3.89 1.121l.78 3.61c5.22-1.027 10.03-1.027 13.97.98-4.13.731-9.1 1.151-11.14 2.692-2.04 1.54-1.52 7.733-.06 9.802 1.47 2.07 7.06 3.175 9.81 2.225 2.4-.809 3.35-5.228 5.11-9.771 1.2 2.676.36 7.998-2.26 10.674-1.98 2.023-7.66 3.019-10.57 1.4-3.37-1.851-5.17-5.835-7.17-10.736-2.78 2.894-2.92 8.682-.31 11.794 2.48 2.941 7.03 4.777 12.03 4.98 4.99.202 10.1-4.124 12.02-7.874 2.93-5.757 1.37-10.612.76-17.925 1.87 3.159 3.21 6.831 4.53 11.328 12.98 2.738 27.02 10.441 30.46 23.511-8.64-10.83-17.39-20.337-31.06-20.461l-6 9.102c4.59 8.418 4.77 21.053-2.9 28.708-16.58 16.571-53.41 2.972-77.32-5.648-9.82 6.348-22.25 12.728-35.6 12.775l-66.26.202-1.06 38.168-1.43 51.457-1.29 30.093c-.24 5.555-3.51 12.557-7.32 14.953-5.89 3.719-12.07 3.252-18.66 2.832l-24.88-1.587-24.92-1.588-23.41-1.493-21.83-1.401 2.18 6.053.64 1.136 8.33 21.675c2.04 5.321 1.84 14.097-3.01 17.443-8.22 5.663-17.89 6.83-27.05 8.526 3.21.794 8.23 2.023 11.12 2.054l117.47.825 127.6.047c25.82 0 47.95-9.85 69.55-22.78-18.7 19.248-61.11 26.109-87.98 26.016l-40.63-.14-99.7-1.494-84.7-.778c-8.65-.077-16.03.483-24.44-2.863l30.07-7.017c6.72-1.572 12.45-7.982 10.05-15.264l-8.33-25.223-.44-.731zm-201.12-257.75 19.81-1.26 24.96-1.556 26.47-1.619 24.92-1.524 24.81-1.634 20.37-1.385 26.46-1.665 26.47-1.587 24.92-1.509 24.91-1.525 27.99-1.619 28.23-1.556c3.07-.171 8.71 1.385 10.51 3.922l-.68 54.739-.8 58.474-.82 18.065 14.37-.295 1.37-43.397 1.11-67.732c.15-9.881 2.51-20.259.05-29.595-2.5-9.445-10.08-13.413-19.11-12.712l-18.71 1.462-20.21 1.65-17.14 1.462-18.69 1.587-18.69 1.572-18.69 1.556-18.68 1.556-18.69 1.556-18.69 1.556-18.69 1.525-20.24 1.618-18.71 1.494-20.22 1.618-18.71 1.494-20.23 1.618-18.86 1.509c-4.53.358-9.9.763-13.17 3.346-3.02 2.38-3.61 8.029-3.86 12.463l-1.046 19.014-1.214 95.585-.857 76.912 37.527 1.727 12.38.981 36.74 1.167 41.69 1.634 36.16 1.509 38.62 1.618 39.24 1.494 41.68 1.618 32.23 1.307 21.59 1.043 1.13-18.952.92-52.671.86-18.796-14.73.685-.97 50.725-1.13 17.318c-.18 2.692-.47 6.675-2.04 7.811-1.33.949-5.35 1.805-7.04 1.727l-28.14-1.431-36.91-1.183-42.02-1.571-41.75-1.65-42.34-1.462-43.29-1.65-39.71-1.291-17.4-.918c-4.19-.218-8.19-.747-12.4-1.898l.5-110.989 1-64.356 3.5-6.628 1.76-2.023zm-1.04 3.719-2.17 14.47-1.14 79.885-.87 80.102c-.05 3.906 4.05 6.084 7.59 6.162l32.12.731 45.34 1.463 41.78 1.68 42.32 1.463 41.77 1.649 43.56 1.541 38.11 1.26c4.99.171 12.36 2.91 16.88-1.4l1.34-40.114.54-33.313c-17.83 1.54-53.52 13.194-50.46 18.267l2.18 3.61-29.01-13.942 7.32 30.295c-5-10.347-7.46-19.792-9.72-33.625l25.64 12.106 5.93-4.73c15.04-8.091 32.08-11.748 48.4-14.486l1-28.864.79-67.094c.14-12.355 2.63-23.153-.14-36.379-9.09-1.556-17.63-.405-26.74.14l-27.89 1.68-24.91 1.494-26.48 1.587-26.47 1.587-24.92 1.572-21.91 1.462-24.81 1.65-23.34 1.478-28.06 1.649-24.91 1.494-27.31 1.696-1.39 1.774zm428.41 11.67 1.91-.28 3.79 6.006c5.45-3.112 7.13-9.881 4.4-15.467-2.08-4.279-8.94-6.691-14.15-4.139-3.83 1.867-7.62 8.294-5.95 12.977 1.82 5.135 7.1 8.371 12.36 7.345l-2.35-6.458zm19.24 73.333-17.06 15.14c23.06 9.025 54.1 20.664 71.66 7.531 8.18-6.115 9.8-18.376 4.18-26.592-5.83 3.237-11.4 3.439-17.01.841-5.61-2.599-8.32-7.765-8.08-14.642-12.24 3.034-23.17 9.725-32.84 16.898l-.85.84zm-77.1 1.728c.11-3.672-6.57-8.309-11.07-7.625-5.26.794-9.03 4.824-8.78 10.332.22 4.87 3.44 9.632 8.95 10.254 3.52.389 9.61-3.625 10.28-6.94.09-.482-2.21-2.474-2.6-2.785-1.85-1.431 3.14-.809 3.21-3.236zM1271.3 724.453l24.09 1.541 20.25 1.369c9.84.669 18.51-3.968 19.01-14.393l1.4-29.253-30.77-.902-38.54-1.696-39.25-1.478-43.26-1.603-37.68-1.509-37.1-1.634-39.21-1.463-38.87-1.602-33.482-1.416.078 24.304c0 4.279 4.994 9.85 9.264 10.457l14.06 2.022 21.82 1.665 21.8 1.556 20.34 1.416 24.89 1.665c8.08.545 17.31 2.739 24.65-.467 8.36-3.641 16.52-.466 25.31-.358l50.2.592c2.63 6.473 5.92 7.92 11.81 8.262l23.42 1.354 25.72 1.556zm-59.53-4.139c-.35-2.209-3.88-5.57-6.5-5.586l-51.56-.389-15.9-.762c3.57 1.774 6.9 2.396 11.04 2.645l17.29 1.089 23.28 1.541 22.35 1.478zM945.671 724.048c-1.401-.28-3.317-2.287-3.862-3.345l-8.892-17.552c-.934-1.851-1.402-5.632-1.479-7.92l14.218 28.817z"/><path fill="#b8926a" stroke="#b8926a" stroke-miterlimit="10" stroke-width=".5" d="M931.454 695.232c-.95 1.229-1.183 2.956-1.292 5.352l-2.383 48.298c-.374 7.562 3.769 13.288 11.695 13.553l28.779.934 15.76 1.182 29.467 3.112c-1.19-8.916.59-15.98 8.08-22.048l-18.56-3.439c-15.546-2.879-30.465-5.602-45.492-10.347-6.853-2.163-12.832-.576-17.271 4.232-.109-5.633 2.118-8.06 5.435-11.997 10.341 8.496 50.503 15.156 71.618 18.236 7.71 1.121 13.46 3.999 21.7.841 10.27-3.953 22.22-4.342 32.93-3.377l4.14 5.586c1.39-.093.16 1.883-1.9 2.941-5.49-4.077-12.97-8.714-19.85-7.064l-29.06 6.971c-2.79 6.193-4.31 11.919-5.59 19.854 5.01 1.089 9.12.591 13.89-.7l25.24-6.846-14.18-3.548c8.76-10.441 22.31-8.418 30.26-.249-9.6-2.972-17.9-6.271-25.79-.42l11.49.155c6.13 3.392 13.24 5.493 19.71 6.349l-6.96-7.313 14.88 7.686-4.46-8.527c1.29-1.587 6.57 1.292 7.09 3.719.62 2.941-.95 5.213-3.69 7.096 4.48 5.057 10.98 7.624 18.09 8.713l90.42 11.53 2.46 2.272c.37.342.51.98.01.964l-3.16-.093-4.05-.093c-.74-.016-1.07-1.51-1.41-2.07l-93.32-11.39c3.71 4.108 6.44 7.889 6.25 10.69l-1.84 1.105c-6.94 12.183-18.13-2.941-36.49 4.357l-18.65 7.406 104.52 10.456 36.62-18.485c-8.02 6.847-18.38 9.647-26.74 15.405-7.26 4.994-12.6 4.901-20.98 4.061l-90.95-9.025c-5.21-.514-9.81-3.641-16.15.513l110.54 16.089c5.45.794 10.06.389 16.28.109-5.53 3.066-11.26 2.552-18.21 1.572l-112.95-16.011c-5.09 4.683-11.41 5.446-18.27 5.695l-13.732 5.679c-29.713 7.671-58.773 13.63-89.467 16.789-9.655.996-19.263 1.665-26.77-4.761 7.678 1.742 14.639 3.672 22.285 3.003 35.429-3.081 68.957-10.161 103.684-19.746 5.62-11.483 5.25-26.125-2.09-36.005-8.826-2.163-17.749-2.023-25.816-1.121-20.12 2.225-39.913-1.089-60.034-3.874-5.497 7.64-11.399 15-20.011 19.185-1.028-8.231 3.38-14.315 8.783-17.582l-6.229 13.366c6.883-4.622 12.194-11.079 16.274-17.319l37.827 4.591c6.198.746 12.38.84 18.485.031 19.964-2.614 32.621 2.443 46.451-1.354l-41.063-4.092-15.838-1.152-24.294-.778c-7.272-.233-11.165-5.555-11.337-12.028l-.498-19.169c-1.573 11.327-1.744 21.223-6.992 30.217 2.398-11.841 4.672-22.22 4.999-33.952s-.483-24.086 1.588-36.052c.592-3.439 2.383-7.873 1.526-11.125l-8.207-31.12-6.727 1.431-1.542-11.576c-.638 0-.903.062-.997-.202l-1.199-3.735-30.196-30.31 1.433-1.463 25.104 24.802c3.737-8.433 8.534-13.972 15.619-20.29l-9.53-7.546-1.028-.763c-10.761-7.951-14.28-14.081-12.194-31.586l2.959 17.582c.732 4.388 6.868 10.348 10.232 12.791l1.027.746 9.967 6.971c8.97 6.287 22.705 10.846 29.199 3.143-.669 9.196-14.093 6.489-27.782 1.152-7.942 1.758-13.502 12.526-15.76 19.154l4.112 7.484.218 1.167 3.239 9.15c1.324-8.543.156-13.522-2.383-20.182 3.084 1.868 4.61 5.446 4.454 9.539-.187 5.15 1.76 8.962 3.551 13.615 5.466 14.268 8.175 29.221 10.947 43.256zm168.936 89.5c-6.14-9.787-19.25-13.801-32.66-14.735 7.35-2.49 14.21-.622 22.38 1.976-9.65-12.012-31.29-10.223-47.92-5.29l-20.21 5.99c4.58 8.776 5.23 17.583 5.28 27.557l39.93-11.592c9-2.614 18.87.7 28.7 1.774-5.48-9.492-15.5-9.087-25.93-11.063 9.51-3.066 19.42.186 27.61 7.048l2.4-.124zm-77.24 20.259c2.58-11.639 2.33-20.663-2.98-30.559l-13.08-.545c3.37 12.775 3.69 19.17 3.32 32.365 2.69.171 8.84-.358 12.74-1.261ZM1653.01 495.023c4.5 1.851 7.97 5.29 9.89 10.518 16.07-3.485 30.13-9.694 45.41-16.789-4 4.699-9.91 7.718-15.68 9.694l-27.97 9.522.29 8.247c16.25 6.598 32.1 10.052 49.37 8.807l24.82-1.789c5.58-.405 8.89-3.097 10.39-7.998.79 1.836 1.26 3.952 2.16 4.217l5.24 1.525-7.32 3.174c1.41 2.956 4.93 7.282 7.92 8.246 3.83 1.245 10.55-1.322 12.07-4.823 2.23-5.119.95-10.596-2.88-13.817-3.32-2.786-7.86-2.505-13.78-1.852 5.65-6.068 15.15-2.054 19.22 5.275 3.55 6.395-1.56 14.906-7.46 16.618-8.44 2.443-15.23-2.163-17.4-10.005l-25.99 3.594c-19.28 2.677-39.51-3.579-57.88-8.433-5.59 9.071-16.45 16.198-27.91 8.744-11.04 11.25-20.34 23.574-29.53 38.153 23.99 1.385 48.37 3.408 66.3 21.131-15.48-9.072-30.42-17.303-49.1-17.879l-18.86-.575c-11.39 21.441-18.69 42.603-23.41 65.553l22.72-5.679c-.26-7.92 4.49-16.509 11.09-18.827 8.66-3.035 16.49.466 20.95 7.219 4.79 7.267 3.11 17.287-3.85 22.235l11.52 11.966-1.41 1.354-12.46-12.417c-7.01 5.773-15.25 3.454-21.31-2.038-17.19 21.892-12 46.835 2.06 70.284 6.51-2.07 11.8-.685 15.63 4.154 3.84 4.839 3.24 11.452-.48 15.607-4.26 4.761-13.27 5.897-17.14 1.073 5.43.872 9.95 1.572 14.25-.995 3.51-2.101 4.39-9.196 1.9-13.88-1.76-3.283-8.23-6.333-11.47-3.937l-7.53 4.528.9 12.106c-5.44-4.357-2.74-13.397 1.77-17.863-16.6-28.101-19.76-56.747 4.44-77.473-.56-4.232-.6-8.682-.21-11.203l2.47-1.758c2.91-2.069 9.86-3.594 13.88.093 2.63 2.428 2.92 8.916.88 13.382-3.56 7.795-14.24.358-19.51 3.828 4.5 5.461 9.87 6.317 15.53 4.139 6.06-2.319 10.49-7.236 10.82-13.491.3-5.384-3.81-11.592-9.2-14.642s-11.67-1.82-16.42 2.894c-2.96 2.941-4.68 9.492-4.84 14.876l-25.35 7.468-4.77 23.091c-4.33 20.991-8.97 40.923-18.19 60.248l8.74 16.105.68 1.634 19.02 20.616 1.63.887c15.69 10.394 33.92 19.061 54.28 19.512l70.29 1.588 280.1.84.95 1.431-339.29-.062-15.46-2.069c-19.14-2.568-36.73-7.998-51.58-19.839l-1.47-1.043c-6.94-5.492-13.87-12.619-19.17-20.399l-1.2-1.758-9.09-15.607c-3.05 4.699-6.01 9.336-10 12.713l8.54-15.622c-6.79-20.695-11.32-41.374-.88-59.392-1.33 9.382-5.01 18.78-4.04 27.509 1.13 10.317 3.08 18.89 6.63 29.097 7.49-14.004 11.87-28.287 14.87-44.003l6.48-33.858-10.14 4.123 10.48-7.391c5.25-23.262 12.59-45.466 24.06-67.234-12.6-.109-25.83 2.256-37.34 5.337l4.05 24.118-.08 9.818c-.12 14.019-5.68 26.047-16.71 35.29l-20.59 13.459c-5.11 3.345-8.95 8.791-14 8.807-6.93.016-13.64.233-16.15-7.173 8.43 6.815 19.08 8.34 25.36-1.245-21.09 4.077-21.09-11.11-28.8-8.107l2.96 10.675-5.96-10.737c-12.07-1.26-27.51 5.353-36.09 14.735 2.96 6.987 4.27 14.44-2.08 18.983-6.36 4.544-13.74 3.937-18.22-2.38-4.15-5.851-4.52-15.28 4.72-18.096-4.02 4.979-6.92 9.818-4.94 13.724 3.52 6.955 9.97 9.086 14.34 6.846 6.51-3.33 9.14-10.534 4.39-15.373-1.88-.778-3.83-1.774-3.72-2.879s1.62-2.054 3.38-3.065c9.72-7.625 19.61-12.168 32.55-15.545-30.28-11.296-57.56-13.708-89.48-6.068-.92 5.757-3.06 10.627-7.04 12.713-5.41 2.816-11.26 2.256-14.75-2.443l12.85.995c3.13.249 6.49-7.002 6.01-9.351l-5.86-2.038 5.33-2.023c.76-.296-.78-2.536-1.48-3.361-4.16-4.901-11.23-6.457-15.99-1.774-5 4.917-4.94 10.55-.22 17.131-6.84-2.474-6.34-9.32-3.96-15.061 1.81-4.342 7.26-7.189 13.61-7.034 4.01.094 8.69 5.415 11.67 9.523l27.58-3.734c6.1-.825 11.97-1.012 18 .046l24.12 4.202 25.17 7.577 3.56-7.92.61-1.338c2.57-3.874 7.09-6.333 13.55-7.282-.16-9.631 1.82-20.041 7.38-28.381l1.34-1.323c8.11-12.572 21.91-19.605 36.22-25.502 2.96-1.152 5.86-2.21 8.75-2.599l37.32-4.948c9.62-14.066 19.54-29.424 31.89-39.958 7.21 3.828 19.12 4.077 23.8-4.357.46-.824 1.4-4.17.63-4.683l-4.14-2.801c-2.46 7.158-8.55 9.756-14.85 7.547-4.97-1.743-7.35-9.367-4.71-14.658 2.65-5.29 10.89-7.282 15.87-1.602l3.23 3.687c.87.996 3.72-1.073 6.12-2.925l-8.26-9.725-1.79-.7c-6.98-.747-14.28-.623-19.53 5.057-4.44 4.792-4.33 11.965-3.17 19.979-5.02-6.426-3.73-15.405 1.62-21.193 5.34-5.788 13.75-9.74 21.36-5.103l1.57.964zm-12.86 10.082c-4.07 2.521-4.24 8.449-2.01 11.126 2.91 3.501 7.74 4.31 10.54 2.614 4.44-2.692 4.45-8.216 2.34-11.328-1.87-2.723-7.98-4.217-10.87-2.427zm-118.97 95.818c-4.85 8.683-8.03 17.536-5.59 26.95 12.09 2.256 18.24 12.837 16.28 24.351 34.74-13.755 40.81-43.381 30.19-77.659-16.96 4.31-29.76 12.961-39.96 25.02l-.92 1.354zm93.74 19.808c-2.85 3.33-2.56 8.325.68 11.281a8.153 8.153 0 0 0 11.31-.311c3.07-3.128 3.08-8.138.04-11.297-3.03-3.158-8.03-3.345-11.3-.42-.27.234-.51.482-.73.747Zm-115.73 17.692-1.3 6.566c-.3 1.463 4.86 1.494 5.57.202l2.94-5.321c-.18 3.999-.71 8.122.64 10.394 1.64 2.723 7.87 4.777 10.42 3.329 4.24-2.396 4.55-8.324 2.52-12.121-1.47-2.8-6.75-3.298-11.19-3.967 1.54-.607 8.1-1.027 10.37.062 4.38 2.878 5.36 11.467 2.43 16.229 2.6 1.447 7.38-.747 7.93-3.672a16.606 16.606 0 0 0-9.08-18.19c-7.21-3.423-16.03 0-20.02 5.088-.15.187-1.23 1.229-1.26 1.416z"/><path fill="#b8926a" stroke="#b8926a" stroke-miterlimit="10" stroke-width=".5" d="M843.683 589.175c1.573-3.112 5.466-7.889 8.503-8.915l4.781 2.178c1.059.482 3.083-3.797 2.99-5.01l-1.417-20.726c-2.725-13.864-7.506-26.732-6.323-40.394 1.729-20.212 10.169-35.632 29.153-40.829 13.268-23.542 51.624-9.087 73.239 7.282l-22.176-10.612c-17.737-8.495-42.996-11.296-49.054 5.182-28.436 6.986-32.096 35.352-26.412 64.013l6.167 31.12c1.635 1.027 5.98 3.283 7.88 2.941s4.625-2.288 7.366-3.797c-2.071 6.349-8.083 7.936-15.324 4.155l-3.815 9.164 15.744 15.374-.53 2.303-16.476-15.576-6.899 17.505 12.77 13.802-14.483-10.363c.078 15.139-14.311 21.815-10.309 24.74 7.335 5.353 34.385 7.157 39.041 38.557-4.251-.809-6.867-3.781-8.705-8.262l5.684 3.33c-4.127-14.72-15.915-24.725-30.6-28.568-5.015-1.307-8.067-3.999-10.216-9.803 8.767-3.828 15.074-12.977 11.991-22.951l-6.556-7.873-5.404.373 8.643-7.095c.233-.187.405-.576.763-1.229zm.016 1.79c-2.507 4.403-.545 9.133 5.419 12.681l6.992-17.692-3.721-3.641-7.818 7.827-.857.809z"/><path fill="#b8926a" stroke="#b8926a" stroke-miterlimit="10" stroke-width=".5" d="M969.296 569.912c-4.937-7.329-5.31-15.311-1.09-23.713l.389-22.033c-9.079-5.835-21.21-8.745-32.251-6.379-2.352 8.464-7.039 13.755-16.367 15.357-4.921.84-3.909 10.939-8.659 18.096-.856 1.292-6.151-.7-6.276-2.209-.342-3.921-1.308-11.406-3.161-15.389-1.682-3.594-10.823-3.921-12.365-.762-6.416 13.194 1.464 29.346 3.847 29.097l6.836-.716c-.374 1.245-2.616 4.279-4.189 4.31-9.032.14-13.081-16.774-11.228-29.595.529-3.641 6.54-7.904 9.748-8.122 4.252-.28 9.733 3.983 10.73 8.122l3.784 15.778 6.167-17.007c1.604-4.419 9.624-7.951 14.156-7.78l5.669-11.219c10.402-1.011 19.855.451 30.304 2.459-8.16-4.513-19.668-6.878-29.666-5.571-3.037.405-6.354 6.893-7.568 9.025-.467-3.874 2.476-9.492 5.466-10.876 7.864-3.626 28.81 1.353 39.975 9.009 2.43-1.121 7.818-7.142 7.257-10.254-1.09-6.1-4.235-13.335-7.412-17.225l-16.181-7.578c15.62 1.183 21.382 7.547 24.855 21.426 2.133 8.527-3.457 14.969-11.213 16.68l.685 22.033-4.874 9.725 3.317 14.486.857 1.043c1.728 2.132 2.772 8.651.841 10.145-11.322-.436-7.553 9.461-16.523 22.002l-.53-9.476c4.236-2.568 6.183-5.82 6.136-12.246l10.185-2.318-.997-7.516-.654-.793zM304.97 829.778h-379.2v1.556h379.2zM806.108 713.888c-16.227-18.159-16.196-47.66 0-66.285-10.403 19.372-14.717 42.183-1.448 61.212l1.432-26.981c.561-10.471 3.068-22.25 11.041-29.781 12.225-11.561 32.532-9.134 43.48 1.789-14.125-6.8-29.495-11.25-41.315-.778-14.919 13.226-9.266 39.538-13.19 60.824ZM1552.97 496.936c-3.93 2.365-7.79 7.516-6.43 11.608 1.74 5.275 9.95 4.388 12.86 2.038-2.12 4.622-10.93 4.793-13.55.716-3.46-5.415-.86-12.37 2.12-16.913l-3.99-1.479 7.9-6.146c.93-15.342 1.65-32.271-3.99-46.259-6.88-1.805-14.2-4.699-14.09-13.164.08-6.255 3.94-12.541 10.74-13.973 6.81-1.431 13.72 3.579 15.28 10.005s-2.3 13.428-9.28 16.214l3.63 18.376c1.73 8.729 1.04 17.536.6 26.467-.63 13.148-8.95 9.694-1.8 12.526zm-6.32-67.561 4.42 7.874c3.88-2.926 7.88-8.59 6.98-12.09-1.42-5.478-5.61-9.305-9.57-9.57-5.88-.404-10.73 2.007-11.79 8.122-.48 2.786 0 9.305 2.11 10.737 1.88 1.276 5.62 2.629 8.44 3.563l-.58-8.636z"/><path fill="#b8926a" stroke="#b8926a" stroke-miterlimit="10" stroke-width=".5" d="M1543.98 492.875c-5.21 6.847-6.6 17.459-.56 23.729 4.86 5.042 12.91 4.575 18.24 1.214 4.69-2.956 7.63-10.347 5.92-15.638-.27-.809-2.7-2.552-2.88-1.805l-.83 3.206c-.72 2.785-1.81 5.648-4.47 6.986 1.78-1.431 3.27-7.391 1.7-9.056-1.58-1.665-5.87-3.688-8.13-4.59 2.19-1.089 5.96.498 9.47 2.256l4.79-2.878c2.92 5.695 3.57 13.661-.03 19.045-3.77 5.633-10.52 7.329-18.2 6.348-7.01-.887-10.76-7.033-11.84-13.708-.95-5.928 2.57-11.81 6.84-15.124zM1733.57 703.759l-5.16 2.878c1.48 4.232 9.33 6.52 13.82 4.077 5.9-3.221 5.88-9.772 3.28-17.645 7.21 4.45 4.41 14.315-.75 18.454-7.75 6.208-14.54 1.494-19.76-4.559-17.56 1.058-36.77-2.692-49.82-15.513l-14.51-14.253 1.43-1.385 14.69 14.066c12.46 11.935 30.74 16.618 47.18 14.673-1.07-7.002 1.34-13.101 6.09-15.404 5.24-2.536 13.04-2.007 15.34 3.75-4.67-2.132-9.42-4.528-13.78-2.443-3.22 1.54-5.92 6.924-6.32 11.67l8.3 1.634zM86.902 664.361c-.654 7.064-1.79 10.534-4.672 17.691l-4.095-13.879c1.323-2.552 2.632-6.364 2.632-9.414l-.032-71.778 3.006.032-.296 56.14-1.837 21.301c-.343 4.046-.343 7.718.731 9.912l4.548-10.005zM913.077 766.169c-3.037-1.773-6.26-5.897-7.366-8.947-4.454-12.354-8.939-23.308-15.495-34.589-2.881-4.948-5.139-11.452-5.949-17.21l-3.115-21.892 1.698.856 5.544 27.914 14.56 31.664c3.629 7.905 6.027 14.813 10.123 22.204ZM1677.97 638.64c-1.76-5.041-.56-11.156 3.33-14.533-1.16 6.94-2.6 12.977.97 18.688 2.46 3.936 8.6 8.511 14.61 7.826 4.98-.575 10.06-4.668 12.13-7.795 3.25-4.933 2.58-11.67.48-16.618l-5.71-1.961c20.49-16.089 62.88-14.19 80.9 3.081-26.12-13.864-48.05-15.902-75.53-5.461 4.53 7.64 5.5 15.451 1.34 22.406-3.16 5.275-10.17 9.242-18.11 7.92-6.06-.996-11.84-6.209-14.41-13.553ZM1619.29 428.488c-1.59-5.212-3.66-12.805 1-15.902-.31 5.057-.33 10.021.7 12.806l3.91-1.494c.44-.171 2.16-.124 1.85.218-.46.514-2.46 3.392-2.21 4.046 1.39 3.625 9.78 3.89 12.88.295 4.25-4.901 4.47-9.756 1.34-14.237-4.08-5.851-9.33-5.088-16.68-3.081 4.5-5.617 13.5-4.077 17.47.669 4.18 4.979 4.39 12.339.08 17.303-4.47 5.135-11.96 5.088-18.23 1.104-16.28 16.805-5.77 45.202-27.24 54.32 8.66-8.667 13.55-17.723 14.37-29.844.64-9.165 5.55-17.598 10.73-26.203zM305.08 626.068l-.109-31.058-34.26-.373-.047-2.894 35.678.093.264 33.392zM411.644 576.338l-1.355-26.094-29.184-1.291 29.215-1.525 1.293-21.27 1.448 21.239 16.725 1.54-16.818 1.323z"/><path fill="#b8926a" stroke="#b8926a" stroke-miterlimit="10" stroke-width=".5" d="M1700.96 627.048c-3.27-.964-9.44-1.167-11.34 1.37-2.43 3.252-2.45 9.802.34 11.685 4.07 2.754 9.46 1.229 13.58-1.354-.71 4.513-6.69 6.162-10.82 4.979-4.56-1.322-7.76-6.068-7.49-10.534.31-5.461 4.12-9.04 10.01-9.569l9.31-21.224-5.68 18.454c-.36 1.152 1.74 5.586 2.1 6.193zM851.502 796.853c-4.859-4.154-8.659-9.834-11.758-15.949l-18.127-35.725 1.635-1.245 18.563 36.332 9.702 16.587zM1716.06 481.314c2.87 2.552 4.63 5.384 6.65 5.555 2.32.202 6.17-1.151 9.89-2.209-2.88 5.835-12.75 5.601-17.75 1.244-5-4.356-4.59-16.026 2.4-18.983-2.71 5.166-5.28 10.737-1.17 14.393zM1732.03 578.439l-3.76 5.679c2.84.841 7.49.732 12.77.312-3.95 4.621-11.94 4.434-16.35-.514-3.67-4.123-5.36-10.752-1.67-15.715l1.14 12.183 7.85-1.945zM1797.7 647.929c-4.19 2.661-2.7 9.259.73 14.969-7.01-2.645-6.43-12.635-1.4-18.314l-5.14-8.34 1.24-.98 8.01 9.849c.36.436-.13 3.517.42 3.672.54.156-1.4-.295-3.85-.871zM569.117 728.654c-8.284-13.755-23.53-18.858-38.465-16.991-17.753 2.209-30.647 12.837-43.806 24.896 8.503-15.124 24.153-21.597 41.611-27.183l-29.387-49.621 1.62-1.338 30.694 51.674c14.841-1.789 30.912 2.941 38.683 16.338 2.975 5.135 2.772 12.09.25 16.183l-1.215-13.958zM1066.55 573.086l30.65 9.99.6-31.26-11.43 2.381 11.15-5.26-.11-28.35c-14.51-5.601-27.65-9.149-40.98-16.135l40.75 13.272.17-30.808-36.41 13.101c-.51-.591 1.98-2.552 3.04-2.956l34.7-13.211 46.06 17.676.69 14.58-.05 50.103 24.21.669c4.02.109 9.8 3.081 12.1 5.524l1.25 2.069 7.54 14.72c3.69 7.189 7.46 14.066 15.17 17.66 5.21 2.443 12.75 2.739 18.23.234 4.19-1.914 9.73-8.34 10.17-14.16l1.25-16.867-19.35.156c-2.35.016-6.72-2.77-7.81-4.528l.15-88.365c8.61-3.143 16.04-3.765 25.03-3.734l65.19.156c2.11 0 4.79 5.57 4.78 7.64l-.49 65.491-1.3 23.013-63.74.483-1.05 12.525c-.79 9.507-5.67 19.621-15.93 21.348-10.38 1.743-21.8-.964-26.85-10.674l-12.19-23.511c-.39-.746-.62-1.416-.81-1.587-2.33-2.194-7.88-6.037-11.41-6.037h-26.24l-44.45 17.956-32.27-13.288zm211.62-3.438-15.45 1.416c-8.56.778-16.07.622-23.97-.607l17.73-1.805 25.16-.078 2.38 5.757c.36.887 4.26.903 5.3.716l10.81-1.914-.11-91.71-51.32.327-29.86 1.011c-2.84.094-9.05 1.198-9.05 4.668v85.253l25.41.731-5.39-13.755c7.26.794 6.31 2.334 9.01 7.438l-2.17 7.064 42.64.591 2.12-2.411c.31-.358-2.79-2.723-3.24-2.692Zm-164.53-56.732 26.66-10.907-40.86-15.342-.22 31.462 13.05-4.653zm-.82 2.039-13.44 5.555.6 29.283 43 15.856-.26-61.866-28.53 10.565zm27.51 52.25-40.64-15.404.26 31.819z"/><path fill="#b8926a" stroke="#b8926a" stroke-miterlimit="10" stroke-width=".5" d="m1060.93 500.001-4.52 4.435-4.08 1.463.33 59.516c3.55.265 4.89.249 5.23 1.012.25.575.72 2.318 1.28 2.629l7.39 4.03c-5.03-1.649-11.38-2.8-15.96-5.586l.48-63.188c.04-3.673 7.37-3.408 9.86-4.311zM1173.36 640.897c-.04 5.072-11.97 4.652-15.04 2.209l-62.88-.918-61.61-.918-12.38-2.163-.16-36.628c0-2.365 1.81-7.282 3.85-8.06 2.49-.949 7.33-.031 10.5-.031l49.13-.093 14.81.047 74.16.638-.38 45.901zm-54.27-.125 53.17.623.11-44.891-147.81-.155-.5 30.808c-.04 2.941-2.1 10.55 1.61 10.815l31.02 1.244 62.42 1.572zM1322.07 439.551c2.21-1.307 7.85 1.385 8.36 3.564.58 2.474-1.2 6.659-3.81 8.013-2.03 1.058-6.44-.249-7.67-2.318-1.41-2.381-.51-7.127 3.12-9.259ZM1303.33 449.884c-1.35-2.568-.57-8.994 1.73-9.663 2.62-.747 7.32 1.276 8.88 4.403.89 1.79-.97 6.022-2.76 6.784-1.79.763-6.94.203-7.86-1.524zM1164.7 701.129c-4.46 6.504-11.5 6.924-16.33 3.999-5.65-3.408-7.51-9.461-4.46-16.322 2.56-5.711 10.25-6.66 15.61-4.124s9.22 10.565 5.18 16.447Zm-.73-3.128c2.18-8.044-6.13-14.252-12.85-12.541-4.43 1.136-7.45 6.738-6.89 11.063.42 3.268 4.96 7.033 9.04 8.029 3.12.763 9.58-2.458 10.7-6.566zM1267.63 493.653c-17.2-8.418-35.34-2.24-43.28 12.713-6.14 11.561-4.89 22.748 1.37 34.06-6.37-3.656-6.49-10.596-6.88-17.116-.97-16.68 9.03-30.45 25.11-34.527 8.37-2.116 17.62-2.178 23.68 4.886zM1287.31 534.825c.84-2.35 1.54-6.333.84-8.356-2.75-8.076-15.45 1.618-22.39-2.241l16.13-3.796c2.37-.56 7.18 2.614 8.01 4.901.82 2.287.77 8.06-.55 10.052l-1.79 2.707c-.28.42-1.6.467-1.43 0l1.18-3.283zM1238.12 551.334c14.37 4.73 27.19 3.641 40.27-4.933-9.5 11.203-27.88 13.148-40.27 4.933Z"/><path fill="#b8926a" stroke="#b8926a" stroke-miterlimit="10" stroke-width=".5" d="M1030.67 602.604h132.37v9.335h-132.37zm1.32 4.201c1.36 1.665 5.83 3.47 8.71 3.485l120.47.156.11-4.699-54.99-1.027-67.94-.716-5.38 1.525c-.29.078-.4.28-.98 1.276ZM1110.11 630.907l49.11-.435.88-2.288-25.95-1.587-102.8-.467c2.98 4.746 7.42 4.544 11.68 4.544l49.15-.094.86 1.525-60.7.078c-1-2.38-1.89-8.231-1.56-8.667l9.7-.42 16.76 1.043 96.39.373c2.39 0 7.57 1.556 9.61 2.101-1.37 5.819-4.84 7.842-9.33 7.5l-19.29-1.479-20.34-.56c-.87-.031-2.96-.684-4.19-1.151zM1030.77 615.089l-.06 3.329 122.25 2.154.06-3.33zM1252.54 493.918c2.94-.545 8.33 2.209 9.11 4.885.96 3.299-1.3 8.838-4.13 9.943-3.41 1.323-9.53-1.042-10.28-3.921-1.09-4.232-.12-9.912 5.28-10.923zm.43 12.572c3.68-.031 6.59-1.914 6.95-4.123.39-2.381-2.04-5.882-4.99-5.96-2.94-.078-5.54 2.287-6.32 4.606-.61 1.82 2.09 5.493 4.36 5.477ZM1234.89 533.735c-2.32.685-7.5-1.447-8.58-3.283-1.23-2.1-.36-7.251 1.42-8.9 2.08-1.929 7.68-1.587 9.33.28 3.5 3.968 3.14 10.332-2.17 11.903Zm1.92-7.142a4.39 4.39 0 0 0-4.39-4.388c-2.43 0-4.4 1.961-4.4 4.388a4.39 4.39 0 0 0 4.4 4.388c2.42 0 4.39-1.96 4.39-4.388ZM1243.15 534.482c2.41-1.198 7.86.778 9.26 3.206s-.78 7.531-2.94 9.195c-3.23 2.49-8.21.825-9.47-1.913-1.67-3.657-.72-8.574 3.13-10.488zm7.32 6.209c0-2.614-2.14-4.746-4.75-4.746a4.755 4.755 0 0 0-4.75 4.746 4.754 4.754 0 0 0 4.75 4.745c2.61 0 4.75-2.131 4.75-4.745ZM1261.27 534.545c3.74-1.261 8.32.98 9.06 3.812 1.02 3.765-.81 8.573-4.06 9.631-2.83.918-7.76-.591-9.05-2.878-1.84-3.252-1.49-8.698 4.05-10.565Zm6.4 9.616c2.09-1.276.3-7.142-1.68-7.858-1.64-.591-5.17.747-7.12 2.163-1.4 1.027-.2 5.555 1.26 6.939 1.27 1.183 5.22.187 7.54-1.26zM1236.04 515.064c-3.27.077-6.38-3.813-6.47-6.505-.14-4.123 1.9-8.106 6.82-8.231 3.27-.078 6.38 3.813 6.47 6.504.14 4.124-1.9 8.107-6.82 8.232Zm5.17-7.391a5 5 0 0 0-5-4.995c-2.75 0-4.99 2.24-4.99 4.995a5 5 0 0 0 4.99 4.994 5 5 0 0 0 5-4.994Z"/></svg>