<svg xmlns="http://www.w3.org/2000/svg" width="1446" height="704" fill="none" viewBox="0 0 1446 704"><path fill="#b8926a" d="M718.838 300.529c-12.499-7.77-21.654-20.197-24.375-36.866-.646-3.92-8.509-5.718-12.061-3.343-21.607 14.571-43.791 24.231-66.944 34.814-8.071 3.688-11.369 6.709-19.763.807-16.811-11.805-28.456-26.86-36.873-46.135l-26.566-60.912c-8.071-18.491-19.347-35.575-33.276-49.293-45.429-44.797-116.755 21.28-150.261 66.792 39.502 2.536 76.076 39.955 82.072 74.1 2.767 15.747-3.69 28.658-18.31 33.223-40.356 12.612-92.242-10.352-92.08-48.946.069-18.975 9.731-34.422 17.572-51.576-54.746 18.86-91.919 59.253-151.968 62.527-20.939 1.13-42.685 2.006-63.485-.185-41.486-4.38-81.68-9.937-122.52-22.686 41.416 2.974 79.074 15.378 120.168 18.098 79.881 5.303 104.97-1.59 171.361-41.661 15.612-9.43 32.677-16.462 50.087-21.534 20.985-26.56 42.985-52.313 72.271-70.319 37.243-22.894 68.075-26.975 97.269 8.162 13.029 15.677 22 33.73 30.278 52.543l26.058 59.253c7.403 16.807 21.239 28.957 34.729 35.966 16.489-22.732 71.672-82.907 78.06-68.382 4.081 9.268 2.882 20.957 2.421 30.087l24.928-.715c33.922-.968 81.957 43.76 53.085 45.673-25.297 1.683-43.1-13.026-60.072-31.286 5.142 21.349 23.337 33.015 44.207 34.883 34.729 3.136 76.053 8.346 69.919 38.341 3.067 4.842 6.803 13.764 5.488 19.667-10.608 5.533-26.312 7.101-37.427.369-7.264-4.404-5.627-21.926 2.767-25.892 3.944-1.867 10.746-2.19 17.665-3.251-4.613-3.873-11.646-7.447-18.126-9.014l-50.364-12.127-19.785-4.773c4.565 30.802 10.561 56.647 40.032 58.446l33.669 2.052c19.093 1.175 32.169 6.547 44.368 21.28 13.79 16.646 29.378 31.747 45.313 46.457 19.486 17.96 39.918 32.462 66.76 37.649 4.589.876 17.249.485 18.863-3.919l7.218-19.459-29.402-1.429c-22.368-4.865-43.238-12.819-61.571-26.122-16.419-11.897-24.997-29.442-32.976-47.771-22.738-52.29-46.905-97.917-102.642-116.5-14.113-4.703-27.326-13.902-37.288-24.623l-22.162-23.839c-12.36-13.303-11.83-29.535 1.13-41.685 8.072-7.585 16.396-11.85 28.019-5.787l-4.243-7.055c-1.084-1.775 1.914-6.64 3.805-7.885 22.945-14.986 15.773-42.468 30.047-71.149 7.449-14.986 24.168-20.15 38.995-12.819 21.354 10.583 40.033 23.033 59.634 37.419 3.483 2.559 5.696 9.661 6.573 15.24 40.355-31.932 79.673-64.21 121.758-94.136C986.914 9.913 1003.24 1.083 1023.42 0c9.91 6.432 20.15 22.48 21.15 32.877l-12.25 14.963c-38.165 27.229-77.967 50.054-119.406 72.003-7.241 3.827-16.027 4.011-25.274 6.524 12.245 5.349 24.42 8.646 33.921 14.318 15.843 25.937 30.255 51.39 39.387 80.302 21.331 67.507 55.622 112.672 122.662 138.518 68.85 26.536 138.68 45.281 210.81 60.751 24.82 5.326 75.34 19.966 65.31 30.687-7.52 8.046-22.02 8.392-32.01 6.133l-43.86-9.937-180.77-58.884c-28.32-9.222-54.26-16.831-84.86-20.658l4.8 30.802c-1.94 40.071-36.116 58.999-36.623 68.452-.138 2.582 4.174 5.971 7.08 8.438l85.003 27.459c30.71 11.436 60.21 22.71 89.49 37.235 35.24 17.476 68.52 34.215 102.39 54.573C1329.71 630.222 1389.2 662.8 1446 704l-200.88-118.966c-68.37-40.486-139.12-71.196-215.57-92.983l-39.661-13.949c-3.136-1.107-8.071-6.409-8.371-9.522-1.36-13.211 34.592-29.811 37.032-70.227.65-10.605-8.3-23.355-2.79-31.194 1.39-1.983 7.61-4.288 10.38-3.62l52.42 12.427 196.54 63.656 48.03 12.52c11.26 2.928 22.12 2.835 33.63-3.92-16.26-12.058-34.8-17.153-54.93-21.557-65.31-14.248-128.29-30.479-191.57-52.451-27.37-9.499-53.52-19.482-76.95-36.197-39.362-28.059-62.584-69.351-76.489-114.932-8.602-28.197-22.946-52.174-37.796-77.743-11.692-9.706-25.966-8.946-32.585-14.756-4.335-3.804 5.858-13.579-3.436-21.995-2.444-2.213-4.75-4.219-4.104-5.648l3.297-7.263-40.955 31.402 3.298-17.983c-18.333-16.162-40.679-31.148-63.024-42.215-13.283-6.57-26.981-1.89-33.161 10.882-16.004 33.062-6.457 56.924-34.983 75.853 17.273 11.643 38.465 15.77 56.798 10.513 6.434-6.179 13.191-11.873 20.87-16.669l33.76-21.119c1.73-1.083 8.971-1.36 8.717.623l-1.176 9.291-59.588 34.468c7.61 10.329 16.672 18.859 27.626 25.223l60.533-49.547c11.577-9.475 23.384-10.305 37.543-5.625 10.677 3.527 19.693 9.499 22.414 21.695 4.682 20.981-1.314 40.947-11.714 59.622-5.558 10.006-12.222 19.482-24.191 23.194 42.086 21.672 79.213 62.503 109.26 101.836 23.246 31.678 18.356 75.045-14.873 97.571-11.208 17.591-6.527 35.713-30.117 32.877-24.56-2.951-46.813-14.963-65.538-31.517-19.786-17.499-37.427-35.713-55.276-55.402-5.557-6.133-12.475-14.11-21.1-15.678-36.55-6.64-68.835.369-81.818-19.62-10.331-15.932-21.7-50.676-6.664-54.919zM1006.08 8.946c-13.17 2.697-22.901 9.36-33.048 16.692-30.025 21.695-58.896 42.699-88.068 68.567 38.673-23.31 84.84-52.82 121.116-85.283zM891.883 111.38l19.693-13.58c39.71-23.747 76.607-47.747 114.884-74.676L1014.7 8.254c-19.945 17.568-38.209 31.494-59.355 45.742l-70.657 47.633c1.13 3.043 5.281 8.692 7.171 9.775zm18.771 4.911c40.817-21.788 78.359-43.92 115.906-69.328 2.58-1.73 5.9-6.893 6.57-9.522.67-2.628-2.45-8.254-4.85-10.144-35.831 25.038-70.468 48.393-107.618 70.18-10.17 5.972-17.941 11.575-28.249 20.566 5.926 2.006 12.222 1.453 18.241-1.752m-30.256 118.275c.416 1.867 4.105 5.072 5.858 5.303 12.383 1.613 48.68-63.611 23.544-87.681-6.987-6.686-25.597-13.003-34.936-8.23-17.78 9.083-30.924 22.225-45.429 35.436l21.746-8.969c6.157-1.867 14.828 1.407 16.465 8.093l4.958 20.266 7.771 35.759zm-156.28-33.546 13.076-15.977c-9.109-6.848-20.847-19.851-34.107-20.797-10.769-.76-20.915 13.096-22.483 22.664-.923 5.533 3.366 13.972 6.341 17.545 13.49-10.282 27.88 7.931 37.173-3.435M999.759 410.48c8.461-17.384 5.281-37.857-5.673-54.388-23.014-34.721-52.462-65.27-85.715-91.046-35.997-27.897-95.309-33.5-92.98-74.4-4.427 3.666-14.389 10.398-19.232 7.816-12.983-6.894-21.884-16.669-28.503-27.759-17.387.991-31.961-1.637-49.257-6.594l23.176 17.937c16.188-5.948 36.412 7.862 52.278 20.243 3.943 3.066 7.379 13.211 8.763 17.753 7.079-.208 15.081.991 21.008 4.911 14.343 9.452 28.11 16.715 43.838 23.217 12.153 5.026 21.63 12.888 31.177 21.856 42.339 39.771 97.684 83.945 101.12 140.477zM879.661 242.705c-12.499-22.594-7.311-48.624-19.14-66.515-9.847-4.473-36.874 10.283-39.618 20.197-5.027 18.214 35.766 36.912 58.758 46.318m109.744 140.016c-10.516-23.216-25.09-43.828-43.238-61.212l-48.335-46.249c-11.784-11.297-23.337-19.92-38.672-26.03-35.213-14.041-50.433-38.387-65.884-15.931-3.805 5.533-14.112 11.527-20.247 7.032.577-13.926 20.478-13.857 24.075-20.543 4.797-8.876-27.049-33.684-50.386-35.943-6.411 21.672-21.723 37.672-44.553 35.551 12.153 18.629 30.44 29.742 51.148 37.004 53.315 18.652 77.806 69.397 99.206 119.266 11.576 26.975 28.479 46.757 56.313 57.316 29.217 11.09 57.351 21.534 74.692-.438 11.438-14.478 14.344-31.055 5.858-49.823zM703.618 206.969l-10.723-1.152c9.016 11.666 22.161 10.421 32.123 3.481-8.625-.208-13.491-1.476-21.4-2.329M406.231 310.973c15.243-3.482 23.568-14.802 19.901-30.387-8.394-35.736-45.175-71.726-81.795-68.106-12.775 23.47-27.211 49.753-14.643 70.918 13.698 23.079 47.597 34.192 76.537 27.575m272.804-60.567c0-9.453-.299-14.756-2.467-24.462-13.121 7.793-19.44 13.557-26.589 22.917 11.923-6.248 18.011-7.746 29.079 1.568zm-.899 6.755c-5.765-5.21-9.063-8.208-11.668-9.406-7.08-3.251-28.48 20.726-40.149 36.358 20.317-6.94 35.56-15.908 51.817-26.952m88.206 35.851c-9.616-15.032-22.553-21.395-35.49-28.312-10.216-4.634-19.486-8.784-31.777-4.957l24.398 23.932c10.746 10.536 28.341 15.147 42.869 9.337m44.968 41.039c-2.86-18.997-42.27-25.153-67.29-24.554l42.984 10.075c9.478 2.214 16.996 7.978 24.306 14.456zm6.134 23.886-9.478-18.583c-4.751-.692-14.044-.761-18.933.369-6.756 1.545-8.463 16.485-2.951 19.182 9.916 4.865 21.077 3.597 31.362-.991z"/></svg>