<svg width="1446" height="704" viewBox="0 0 1446 704" fill="none" xmlns="http://www.w3.org/2000/svg">
<path d="M718.838 300.529C706.339 292.759 697.184 280.332 694.463 263.663C693.817 259.743 685.954 257.945 682.402 260.32C660.795 274.891 638.611 284.551 615.458 295.134C607.387 298.822 604.089 301.843 595.695 295.941C578.884 284.136 567.239 269.081 558.822 249.806L532.256 188.894C524.185 170.403 512.909 153.319 498.98 139.601C453.551 94.8043 382.225 160.881 348.719 206.393C388.221 208.929 424.795 246.348 430.791 280.493C433.558 296.24 427.101 309.151 412.481 313.716C372.125 326.328 320.239 303.364 320.401 264.77C320.47 245.795 330.132 230.348 337.973 213.194C283.227 232.054 246.054 272.447 186.005 275.721C165.066 276.851 143.32 277.727 122.52 275.536C81.0341 271.156 40.8399 265.599 0 252.85C41.4164 255.824 79.074 268.228 120.168 270.948C200.049 276.251 225.138 269.358 291.529 229.287C307.141 219.857 324.206 212.825 341.616 207.753C362.601 181.193 384.601 155.44 413.887 137.434C451.13 114.54 481.962 110.459 511.156 145.596C524.185 161.273 533.156 179.326 541.434 198.139L567.492 257.392C574.895 274.199 588.731 286.349 602.221 293.358C618.71 270.626 673.893 210.451 680.281 224.976C684.362 234.244 683.163 245.933 682.702 255.063L707.63 254.348C741.552 253.38 789.587 298.108 760.715 300.021C735.418 301.704 717.615 286.995 700.643 268.735C705.785 290.084 723.98 301.75 744.85 303.618C779.579 306.754 820.903 311.964 814.769 341.959C817.836 346.801 821.572 355.723 820.257 361.626C809.649 367.159 793.945 368.727 782.83 361.995C775.566 357.591 777.203 340.069 785.597 336.103C789.541 334.236 796.343 333.913 803.262 332.852C798.649 328.979 791.616 325.405 785.136 323.838L734.772 311.711L714.987 306.938C719.552 337.74 725.548 363.585 755.019 365.384L788.688 367.436C807.781 368.611 820.857 373.983 833.056 388.716C846.846 405.362 862.434 420.463 878.369 435.173C897.855 453.133 918.287 467.635 945.129 472.822C949.718 473.698 962.378 473.307 963.992 468.903L971.21 449.444L941.808 448.015C919.44 443.15 898.57 435.196 880.237 421.893C863.818 409.996 855.24 392.451 847.261 374.122C824.523 321.832 800.356 276.205 744.619 257.622C730.506 252.919 717.293 243.72 707.331 232.999L685.169 209.16C672.809 195.857 673.339 179.625 686.299 167.475C694.371 159.89 702.695 155.625 714.318 161.688L710.075 154.633C708.991 152.858 711.989 147.993 713.88 146.748C736.825 131.762 729.653 104.28 743.927 75.599C751.376 60.6129 768.095 55.4485 782.922 62.7802C804.276 73.3626 822.955 85.8126 842.556 100.199C846.039 102.758 848.252 109.86 849.129 115.439C889.484 83.5071 928.802 51.2293 970.887 21.3033C986.914 9.91387 1003.24 1.08361 1023.42 0C1033.33 6.43249 1043.57 22.4791 1044.57 32.8772L1032.32 47.8402C994.155 75.0687 954.353 97.8937 912.914 119.843C905.673 123.67 896.887 123.854 887.64 126.367C899.885 131.716 912.06 135.013 921.561 140.685C937.404 166.622 951.816 192.075 960.948 220.987C982.279 288.494 1016.57 333.659 1083.61 359.505C1152.46 386.041 1222.29 404.786 1294.42 420.256C1319.24 425.582 1369.76 440.222 1359.73 450.943C1352.21 458.989 1337.71 459.335 1327.72 457.076L1283.86 447.139L1103.09 388.255C1074.77 379.033 1048.83 371.424 1018.23 367.597L1023.03 398.399C1021.09 438.47 986.914 457.398 986.407 466.851C986.269 469.433 990.581 472.822 993.487 475.289L1078.49 502.748C1109.2 514.184 1138.7 525.458 1167.98 539.983C1203.22 557.459 1236.5 574.198 1270.37 594.556C1329.71 630.222 1389.2 662.8 1446 704L1245.12 585.034C1176.75 544.548 1106 513.838 1029.55 492.051L989.889 478.102C986.753 476.995 981.818 471.693 981.518 468.58C980.158 455.369 1016.11 438.769 1018.55 398.353C1019.2 387.748 1010.25 374.998 1015.76 367.159C1017.15 365.176 1023.37 362.871 1026.14 363.539L1078.56 375.966L1275.1 439.622L1323.13 452.142C1334.39 455.07 1345.25 454.977 1356.76 448.222C1340.5 436.164 1321.96 431.069 1301.83 426.665C1236.52 412.417 1173.54 396.186 1110.26 374.214C1082.89 364.715 1056.74 354.732 1033.31 338.017C993.948 309.958 970.726 268.666 956.821 223.085C948.219 194.888 933.875 170.911 919.025 145.342C907.333 135.636 893.059 136.396 886.44 130.586C882.105 126.782 892.298 117.007 883.004 108.591C880.56 106.378 878.254 104.372 878.9 102.943L882.197 95.6804L841.242 127.082L844.54 109.099C826.207 92.9368 803.861 77.9507 781.516 66.884C768.233 60.3132 754.535 64.9935 748.355 77.7662C732.351 110.828 741.898 134.69 713.372 153.619C730.645 165.262 751.837 169.389 770.17 164.132C776.604 157.953 783.361 152.259 791.04 147.463L824.8 126.344C826.53 125.261 833.771 124.984 833.517 126.967L832.341 136.258L772.753 170.726C780.363 181.055 789.425 189.585 800.379 195.949L860.912 146.402C872.489 136.927 884.296 136.097 898.455 140.777C909.132 144.304 918.148 150.276 920.869 162.472C925.551 183.453 919.555 203.419 909.155 222.094C903.597 232.1 896.933 241.576 884.964 245.288C927.05 266.96 964.177 307.791 994.224 347.124C1017.47 378.802 1012.58 422.169 979.351 444.695C968.143 462.286 972.824 480.408 949.234 477.572C924.674 474.621 902.421 462.609 883.696 446.055C863.91 428.556 846.269 410.342 828.42 390.653C822.863 384.52 815.945 376.543 807.32 374.975C770.77 368.335 738.485 375.344 725.502 355.355C715.171 339.423 703.802 304.679 718.838 300.436V300.529ZM1006.08 8.94554C992.91 11.643 983.179 18.3061 973.032 25.6377C943.007 47.333 914.136 68.3365 884.964 94.2048C923.637 70.8957 969.804 41.3846 1006.08 8.92248V8.94554ZM891.883 111.381L911.576 97.8015C951.286 74.0543 988.183 50.0535 1026.46 23.1247L1014.7 8.25387C994.755 25.8222 976.491 39.7477 955.345 53.996L884.688 101.629C885.818 104.672 889.969 110.321 891.859 111.404L891.883 111.381ZM910.654 116.292C951.471 94.5045 989.013 72.3713 1026.56 46.9641C1029.14 45.2349 1032.46 40.0705 1033.13 37.4422C1033.8 34.8138 1030.68 29.1883 1028.28 27.2977C992.449 52.336 957.812 75.6912 920.662 97.4787C910.492 103.45 902.721 109.053 892.413 118.044C898.339 120.05 904.635 119.497 910.654 116.292ZM880.398 234.567C880.814 236.434 884.503 239.639 886.256 239.87C898.639 241.483 934.936 176.259 909.8 152.189C902.813 145.503 884.203 139.186 874.864 143.959C857.084 153.042 843.94 166.184 829.435 179.395L851.181 170.426C857.338 168.559 866.009 171.833 867.646 178.519L872.604 198.785L880.375 234.544L880.398 234.567ZM724.118 201.021L737.194 185.044C728.085 178.196 716.347 165.193 703.087 164.247C692.318 163.487 682.172 177.343 680.604 186.911C679.681 192.444 683.97 200.883 686.945 204.456C700.435 194.174 714.825 212.387 724.118 201.021ZM999.759 410.48C1008.22 393.096 1005.04 372.623 994.086 356.092C971.072 321.371 941.624 290.822 908.371 265.046C872.374 237.149 813.062 231.546 815.391 190.646C810.964 194.312 801.002 201.044 796.159 198.462C783.176 191.568 774.275 181.793 767.656 170.703C750.269 171.694 735.695 169.066 718.399 164.109L741.575 182.046C757.763 176.098 777.987 189.908 793.853 202.289C797.796 205.355 801.232 215.5 802.616 220.042C809.695 219.834 817.697 221.033 823.624 224.953C837.967 234.405 851.734 241.668 867.462 248.17C879.615 253.196 889.092 261.058 898.639 270.026C940.978 309.797 996.323 353.971 999.759 410.503V410.48ZM879.661 242.705C867.162 220.111 872.35 194.081 860.521 176.19C850.674 171.717 823.647 186.473 820.903 196.387C815.876 214.601 856.669 233.299 879.661 242.705ZM989.405 382.721C978.889 359.505 964.315 338.893 946.167 321.509L897.832 275.26C886.048 263.963 874.495 255.34 859.16 249.23C823.947 235.189 808.727 210.843 793.276 233.299C789.471 238.832 779.164 244.826 773.029 240.331C773.606 226.405 793.507 226.474 797.104 219.788C801.901 210.912 770.055 186.104 746.718 183.845C740.307 205.517 724.995 221.517 702.165 219.396C714.318 238.025 732.605 249.138 753.313 256.4C806.628 275.052 831.119 325.797 852.519 375.666C864.095 402.641 880.998 422.423 908.832 432.982C938.049 444.072 966.183 454.516 983.524 432.544C994.962 418.066 997.868 401.489 989.382 382.721H989.405ZM703.618 206.969L692.895 205.817C701.911 217.483 715.056 216.238 725.018 209.298C716.393 209.09 711.527 207.822 703.618 206.969ZM406.231 310.973C421.474 307.491 429.799 296.171 426.132 280.586C417.738 244.85 380.957 208.86 344.337 212.48C331.562 235.95 317.126 262.233 329.694 283.398C343.392 306.477 377.291 317.59 406.231 310.973ZM679.035 250.406C679.035 240.953 678.736 235.65 676.568 225.944C663.447 233.737 657.128 239.501 649.979 248.861C661.902 242.613 667.99 241.115 679.058 250.429L679.035 250.406ZM678.136 257.161C672.371 251.951 669.073 248.953 666.468 247.755C659.388 244.504 637.988 268.481 626.319 284.113C646.636 277.173 661.879 268.205 678.136 257.161ZM766.342 293.012C756.726 277.98 743.789 271.617 730.852 264.7C720.636 260.066 711.366 255.916 699.075 259.743L723.473 283.675C734.219 294.211 751.814 298.822 766.342 293.012ZM811.31 334.051C808.45 315.054 769.04 308.898 744.02 309.497L787.004 319.572C796.482 321.786 804 327.55 811.31 334.028V334.051ZM817.444 357.937L807.966 339.354C803.215 338.662 793.922 338.593 789.033 339.723C782.277 341.268 780.57 356.208 786.082 358.905C795.998 363.77 807.159 362.502 817.444 357.914V357.937Z" fill="#B8926A"/>
</svg>
