<svg xmlns="http://www.w3.org/2000/svg" width="301" height="301" fill="none" viewBox="0 0 301 301"><path fill="#131313" d="M0 0h301v301H0z"/><g clip-path="url(#a)"><path fill="#fff" fill-rule="evenodd" d="M138.113 68.1a4 4 0 0 0-.754.28 5 5 0 0 0-.615.372c-.143.103-.472.51-.734.903-.409.613-.516.724-.774.791-.163.04-.833.147-1.488.238-.654.087-1.583.214-2.063.285s-1.158.198-1.508.285c-.349.087-.956.277-1.349.42-.392.142-.892.336-1.111.43-.218.096-.63.29-.912.432-.286.143-.714.368-.952.499-.242.135-.814.49-1.27.791-.46.305-1.674 1.224-2.698 2.043-1.028.82-2.206 1.745-2.619 2.054-.416.313-.952.697-1.19.855-.242.158-.742.427-1.111.598-.373.17-1.016.423-1.428.566-.417.142-1.06.364-1.429.494-.373.131-1.301.55-2.063.93-.766.38-1.587.8-1.825.93-.242.131-.687.377-.992.543-.306.166-.968.55-1.468.855a51 51 0 0 0-1.786 1.144 31 31 0 0 0-1.626 1.191 27 27 0 0 0-1.734 1.552c-.536.526-1.198 1.23-1.468 1.575-.266.34-.659.875-.869 1.187-.211.31-.572.958-.806 1.437-.23.48-.476 1.013-.547 1.188a12 12 0 0 0-.318.99c-.107.367-.257 1.028-.333 1.464-.103.566-.143 1.199-.143 2.216 0 1.057.048 1.742.179 2.652.095.673.297 1.912.448 2.751l.548 3.047c.146.84.345 2.023.432 2.633s.183 1.373.214 1.701c.044.519.024.677-.158 1.227-.115.349-.21.749-.207.891 0 .142.08.372.175.515.1.142.944 1.041 1.885 1.998.94.958 1.841 1.936 1.999 2.177.159.238.353.57.437.736.111.23.127.333.059.436-.047.075-.389.293-.754.483s-.972.534-1.341.764c-.373.225-.96.625-1.309.882-.349.258-.956.772-1.349 1.144s-.916.923-1.163 1.223c-.242.301-.61.796-.817 1.101s-.547.91-.758 1.345a17 17 0 0 0-.702 1.742c-.17.522-.373 1.251-.448 1.622a8 8 0 0 0-.135 1.346c.004.368.04.78.08.911.039.13.166.388.28.573.116.186.247.337.29.337.044 0 .096-.151.115-.337.016-.185.072-.783.12-1.326.047-.546.154-1.294.234-1.662.083-.372.262-1.013.4-1.424.14-.416.401-1.057.584-1.426.182-.372.54-.993.797-1.385.306-.463.806-1.045 1.428-1.666.532-.522 1.242-1.14 1.58-1.366.337-.225.658-.411.714-.411s.293.162.535.36c.239.198.917.712 1.508 1.14.587.431 1.278.99 1.536 1.243.254.253.543.605.646.78.1.173.262.546.358.831.142.419.178.692.178 1.464 0 .522-.044 1.164-.095 1.425-.056.261-.242.776-.421 1.147a27 27 0 0 1-.944 1.703c-.337.565-.786 1.238-.996 1.496a3.6 3.6 0 0 1-.897.772c-.317.19-1.13.51-2.134.839-.925.304-1.774.637-1.98.772-.199.13-.425.344-.5.474-.08.131-.214.657-.302 1.168-.09.511-.162 1.152-.162 1.425v.495l1.388 1.322a42 42 0 0 1-.206 2.002c-.044.305-.095.634-.115.733s-.262.352-.552.574c-.432.328-.555.482-.757.93-.135.293-.35.906-.48 1.365a27 27 0 0 0-.385 1.584 35 35 0 0 0-.27 1.543 59 59 0 0 0-.242 1.861c-.068.585-.194 1.975-.282 3.086-.087 1.109-.234 2.981-.321 4.157a161 161 0 0 1-.242 2.929 122 122 0 0 1-.203 1.82 38 38 0 0 1-.273 1.861 49 49 0 0 1-.274 1.385c-.064.305-.242.926-.389 1.385-.15.456-.512 1.524-.801 2.375-.29.847-.611 1.979-.719 2.513-.107.535-.194 1.22-.194 1.524s.055.812.119 1.128c.067.317.254.839.417 1.16.202.403.511.811.972 1.298.369.392.996.946 1.388 1.239.393.289.822.594.953.673.13.083.504.289.833.459.325.17.932.455 1.349.629.413.178 1.147.46 1.627.63s1.924.633 3.213 1.029c1.286.395 2.643.823 3.016.95.369.126.797.281.952.34.151.059.564.226.913.368.349.146.972.439 1.388.653.413.21 1.02.566 1.349.784.326.218.897.649 1.262.961.365.309.881.812 1.143 1.117s.607.748.774.989c.162.238.44.721.619 1.069.178.348.392.847.476 1.108s.198.705.258.99c.055.285.103 1.029.099 1.662 0 .835-.048 1.417-.179 2.137a26 26 0 0 1-.416 1.9c-.131.499-.302 1.16-.385 1.465l-.425 1.623a22 22 0 0 0-.401 1.919 11 11 0 0 0-.126 1.326c0 .261.055.752.119 1.089.067.336.23.843.365 1.128.194.407.44.704 1.174 1.425.686.673 1.095 1.159 1.563 1.86.349.522.818 1.251 1.04 1.622.222.369.535.903.694 1.188.159.281.568 1.085.913 1.781.345.697.738 1.587.877 1.979.135.392.317.97.4 1.286a7 7 0 0 1 .199 1.149c.039.478.02.613-.103.811-.084.13-.361.38-.619.55a10 10 0 0 1-1.187.621c-.393.17-1.234.507-1.865.745-.634.237-1.349.526-1.587.637-.242.114-.757.4-1.15.637-.393.233-1.143.716-1.667 1.065a83 83 0 0 0-2.46 1.765 80 80 0 0 0-2.539 1.987 51 51 0 0 0-1.587 1.37c-.306.277-.825.779-1.151 1.108-.329.328-.825.867-1.107 1.191-.281.329-.658.823-.845 1.108a5.5 5.5 0 0 0-.5 1.01 3.4 3.4 0 0 0-.166 1.048c0 .539.004.554.198.554.163 0 .218-.059.309-.336.06-.186.147-.514.199-.732.051-.218.238-.61.42-.871.183-.261.544-.744.806-1.069.266-.328 1.107-1.219 1.873-1.983.765-.759 1.908-1.816 2.543-2.338a66 66 0 0 1 1.944-1.548c.437-.329.988-.736 1.23-.903a81 81 0 0 1 1.23-.831 43 43 0 0 1 1.667-1.037c.48-.285 1.317-.732 1.864-.997.544-.261 1.25-.57 1.568-.685.317-.115.682-.206.813-.206q.238 0 .238.119c0 .063-.456.467-1.012.894-.555.428-1.94 1.476-3.075 2.328-1.753 1.318-2.087 1.603-2.23 1.895-.095.191-.408.61-.702.939-.293.324-.551.664-.575.752a.42.42 0 0 0 .008.257c.024.056.111.099.186.103.076 0 .389-.174.695-.388s1.126-.891 1.825-1.508c.698-.613 1.377-1.148 1.507-1.188.131-.039.489-.126.794-.194.305-.067.857-.194 1.23-.28.369-.088.809-.179.972-.202.21-.032.298-.016.298.055 0 .056-.465.59-1.032 1.188-.567.597-1.016 1.104-.992 1.128.02.019.175-.04.337-.135.163-.099.742-.487 1.29-.867.543-.384 1.151-.803 1.349-.938l1.21-.835c.468-.325.897-.59.952-.59.056-.004.429.657.833 1.465.405.803.735 1.5.735 1.543 0 .044.051.08.119.08.063 0 .119-.036.119-.08 0-.043-.108-.763-.242-1.602-.135-.84-.231-1.628-.219-1.758.02-.198.195-.348 1.294-1.12.698-.491 1.269-.938 1.269-.998 0-.067-.166-.122-.476-.162-.262-.035-.511-.095-.555-.138q-.077-.08.238-.376c.175-.167.706-.531 1.178-.812.476-.285.992-.625 1.151-.76.159-.134.401-.455.54-.712.138-.258.353-.574.476-.705a4.3 4.3 0 0 1 .583-.487c.194-.134.643-.399.992-.581.349-.186 1.151-.594 1.785-.911a77 77 0 0 1 1.687-.823l1.031-.475c.274-.123 1.068-.467 1.766-.76.698-.289 1.341-.562 1.428-.598l1.349-.534c.218-.091.984-.38 1.706-.649.719-.269 2.31-.823 3.532-1.227a189 189 0 0 1 4.047-1.294c1.004-.301 2.733-.8 3.848-1.105 1.111-.304 2.754-.756 3.651-.993a229 229 0 0 1 3.015-.792c.762-.19 1.782-.443 2.262-.554.48-.114 1.408-.313 2.063-.439a69 69 0 0 1 1.944-.36 40 40 0 0 1 1.825-.242 24 24 0 0 1 2.123-.118h1.051c.23-.459.361-.65.441-.713.103-.091.329-.115.9-.107.603.008.992.071 1.873.301.699.182 1.397.313 1.881.348.623.04.801.083.92.21.084.087.489.53.901.99.413.455 1.393 1.579 2.182 2.493a89 89 0 0 0 2.218 2.494c.432.459 1.091 1.12 1.468 1.464.373.348.98.835 1.349 1.077.365.245 1.238.736 1.937 1.096.698.356 1.535.831 1.864 1.053.326.222 1.096.76 1.707 1.2a89 89 0 0 0 1.864 1.294c.413.272 1.111.676 1.547.89.437.214 1.024.459 1.31.542l.694.202c.1.028.195.02.215-.012.016-.032.008-.099-.02-.15-.032-.048-1.055-.756-2.278-1.571-1.222-.82-2.348-1.58-2.499-1.69a44 44 0 0 1-1.151-.934c-.48-.4-1.591-1.453-2.468-2.34-.877-.883-1.912-1.963-2.301-2.403a45 45 0 0 1-1.306-1.543 42 42 0 0 1-.769-.986c-.091-.13-.278-.593-.409-1.028-.135-.436-.27-.816-.306-.847-.031-.028-.337-.127-.674-.218-.337-.087-.75-.23-.912-.317-.163-.083-.889-.625-1.608-1.199-.721-.574-1.559-1.212-1.864-1.413a13 13 0 0 0-.873-.539 8 8 0 0 0-.714-.312c-.31-.111-.568-.135-1.191-.115-.436.016-1.027.032-1.313.04-.512.011-.528.004-.952-.357-.238-.201-.738-.712-1.107-1.131a18 18 0 0 1-1.246-1.612 19 19 0 0 1-1.048-1.797 19 19 0 0 1-.603-1.305 50 50 0 0 1-.361-1.069 19 19 0 0 1-.428-1.623 21 21 0 0 1-.286-2.019c-.052-.609-.075-1.393-.047-1.741s.095-.796.158-.99c.06-.198.211-.518.333-.712.12-.198.421-.562.663-.816.246-.253.579-.546.742-.653s.325-.182.357-.166.087.135.127.257c.036.127.107.277.159.333.047.055.206.099.349.099.155-.004.274-.052.298-.123a1.6 1.6 0 0 0 .04-.356c0-.131.083-.459.186-.732s.313-.744.468-1.049.54-.946.857-1.425a33 33 0 0 1 1.059-1.504c.266-.349.691-.883.948-1.188.255-.305.667-.767.913-1.029s.75-.756 1.123-1.096c.369-.34.853-.736 1.072-.883.217-.146.563-.313.769-.368.341-.099.381-.095.536.052a.56.56 0 0 1 .163.396c0 .13-.096.573-.207.989-.111.412-.19.875-.178 1.029.019.21.079.301.246.376.178.079.249.079.396-.008.119-.071.215-.253.29-.534.059-.234.206-.748.329-1.14s.278-.847.346-1.009c.071-.163.317-.61.547-.99.234-.38.615-.962.853-1.286.234-.329.73-.986 1.099-1.465s.956-1.227 1.309-1.662 1.413-1.718 2.353-2.85a207 207 0 0 0 2.964-3.641c.69-.871 1.437-1.813 1.663-2.094.226-.277.825-.989 1.333-1.583.507-.59 1.4-1.536 1.984-2.102a39 39 0 0 1 1.733-1.591c.37-.309 1.425-1.18 2.342-1.936.916-.759 1.951-1.626 2.301-1.935.349-.305.916-.823 1.257-1.148.346-.328.742-.756.889-.95a2.7 2.7 0 0 0 .365-.728c.099-.34.096-.38-.051-.534a.57.57 0 0 0-.377-.166c-.187.003-.325.146-.921.933-.385.511-.948 1.176-1.25 1.477-.353.356-.714.629-1.023.772-.262.127-.611.225-.774.225-.21 0-.298-.036-.298-.119 0-.067.131-.36.29-.652l.504-.931c.119-.217.496-.894.833-1.504s.71-1.286.833-1.504l.52-.949c.171-.306.476-.875.687-1.267.21-.392.734-1.425 1.17-2.296.433-.871.964-1.975 1.178-2.454.219-.479.469-1.057.564-1.286.091-.23.242-.602.337-.831.091-.23.29-.756.436-1.168.151-.416.397-1.144.552-1.623a34 34 0 0 0 .516-1.82c.131-.523.306-1.326.389-1.782.083-.459.206-1.338.274-1.959.067-.621.123-1.583.123-2.137s-.056-1.493-.12-2.078a20 20 0 0 0-.194-1.385c-.04-.175-.131-.586-.206-.911a21 21 0 0 0-.734-2.414 28.775 28.775 0 0 0-1.266-2.81 39 39 0 0 0-1.024-1.801 48 48 0 0 0-1.19-1.861 109 109 0 0 0-1.92-2.632 148 148 0 0 0-1.944-2.533c-.35-.435-.961-1.183-1.365-1.662a48 48 0 0 0-1.437-1.627c-.384-.416-.916-.95-1.178-1.187a15 15 0 0 0-.754-.646c-.155-.114-.377-.229-.496-.253-.119-.028-.238-.012-.258.032-.024.043.31.494.734 1.001.425.511 1.119 1.338 1.544 1.841.424.506.773.961.773 1.017.004.055-.075.115-.174.13-.1.02-.27.008-.377-.023-.111-.036-.897-.42-1.746-.859a86 86 0 0 1-2.063-1.081c-.286-.154-.671-.364-.861-.463s-.563-.376-.83-.613c-.261-.242-.836-.899-1.273-1.465a25 25 0 0 0-1.313-1.567c-.29-.297-.675-.645-.861-.772-.187-.131-.429-.253-.536-.273-.155-.032-.206-.004-.246.138-.024.099.008.301.068.456.063.15.42.605.801 1.009.377.404.738.839.806.97.107.217.107.249-.021.364a.34.34 0 0 1-.337.071 4 4 0 0 1-.436-.154c-.131-.056-.452-.262-.714-.459-.262-.198-.814-.709-1.226-1.14a20 20 0 0 1-1.254-1.453c-.278-.372-.524-.764-.548-.871-.024-.111-.027-.206-.016-.217.016-.008.885.075 1.933.182 1.047.11 2.705.281 3.69.384.979.102 1.829.174 1.884.158.056-.02.1-.131.103-.25a.55.55 0 0 0-.138-.348 2.4 2.4 0 0 0-.421-.265c-.155-.079-.564-.222-.913-.325a14 14 0 0 0-1.388-.296c-.417-.064-1.452-.139-2.301-.167-.854-.027-1.869-.106-2.262-.174a8 8 0 0 1-1.19-.3 7.6 7.6 0 0 1-1.032-.52 25 25 0 0 1-1.151-.747A28 28 0 0 0 179 96.74c-.381-.222-.738-.412-.793-.412-.056-.004-.259-.083-.457-.178l-.353-.174a433 433 0 0 0-.524-2.969 19 19 0 0 0-.325-1.464 14 14 0 0 0-.405-1.148 7.4 7.4 0 0 0-.579-1.108 6.2 6.2 0 0 0-.841-.982c-.278-.253-.639-.53-.802-.614-.162-.079-1.075-.308-2.023-.506s-2.246-.463-2.877-.594c-.635-.126-1.67-.34-2.301-.47a2016 2016 0 0 1-4.008-.832c-.353-.075-.599-.174-.674-.27a8 8 0 0 1-.397-.644c-.155-.273-.567-.851-.924-1.295-.353-.439-1.087-1.227-1.627-1.753a36 36 0 0 0-1.654-1.508 42 42 0 0 0-1.548-1.203c-.48-.356-1.286-.89-1.785-1.192-.504-.297-1.235-.669-1.627-.823a5.6 5.6 0 0 0-1.429-.364 28 28 0 0 0-1.507-.13c-.437-.028-.972-.08-1.191-.123a1.55 1.55 0 0 1-.746-.372c-.194-.163-.964-.994-1.706-1.84a263 263 0 0 0-2.392-2.692c-.572-.634-1.23-1.31-1.468-1.512a13 13 0 0 0-.869-.661 8 8 0 0 0-.913-.519 4.7 4.7 0 0 0-.952-.309 4.4 4.4 0 0 0-.635-.079 4 4 0 0 0-.555.1m-2.361 3.304c.056-.182.075-.186.655-.134.325.027.932.134 1.349.241.412.107.948.273 1.19.364.238.091.508.19.595.214.087.028.587.27 1.111.534.524.27 1.274.693 1.667.946.392.254.872.586 1.071.733.194.15.837.712 1.428 1.25a32 32 0 0 1 1.805 1.797c.405.447.846.974.972 1.172.131.194.239.435.239.534 0 .142-.056.186-.298.23a4.4 4.4 0 0 1-.774.016 2.6 2.6 0 0 1-.952-.262c-.329-.158-.682-.44-1.151-.914a155 155 0 0 1-1.547-1.595c-.587-.614-1.028-.998-1.349-1.18a5.2 5.2 0 0 0-1.032-.407 5.3 5.3 0 0 0-1.111-.143c-.305 0-.718.052-.912.119a3.2 3.2 0 0 0-.754.431 6 6 0 0 1-.615.436c-.202.114-.266.107-.952-.119a13 13 0 0 1-1.29-.522c-.305-.155-.619-.337-.698-.412-.075-.071-.139-.174-.139-.23.004-.055.012-.099.024-.103.012 0 1.035-.26 2.281-.577 1.806-.456 2.266-.598 2.282-.709.012-.075-.068-.233-.171-.352-.178-.202-.238-.218-.774-.214-.321 0-.9.071-1.285.158-.698.155-.702.155-.813-.004-.068-.095-.112-.344-.112-.633 0-.261.028-.558.06-.665m-3.313.032c.282-.06.793-.107 1.131-.111s.702.028.813.071c.107.044.278.194.377.337.147.21.179.356.171.811-.008.329-.064.669-.139.831-.072.15-.175.333-.23.4a2.4 2.4 0 0 1-.338.289c-.131.091-.452.238-.714.325s-.889.21-1.388.277c-.504.07-1.183.146-1.508.174-.33.028-1.079.103-1.667.166-.599.067-1.349.206-1.706.317a8 8 0 0 0-1.071.42c-.242.122-.563.296-.714.383-.155.087-.726.435-1.27.772-.547.34-1.226.732-1.508.87a8 8 0 0 1-1.031.42 5.7 5.7 0 0 1-.972.21c-.373.036-.457.02-.457-.075 0-.067.187-.293.417-.507.23-.21.631-.558.893-.776.262-.213.849-.653 1.309-.981a46 46 0 0 1 1.587-1.073 31 31 0 0 1 1.429-.859c.369-.21 1.154-.621 1.745-.914a32 32 0 0 1 1.548-.728c.262-.107.726-.29 1.031-.4.306-.11.822-.281 1.151-.376a15 15 0 0 1 1.111-.273m-2.262 4.013a5 5 0 0 1 .873-.087c.306-.004.877.048 1.27.119.393.067.944.198 1.23.285.282.087.659.23.833.317.175.087.417.253.536.368.123.115.222.237.218.269 0 .031-.294.06-.655.055a4.4 4.4 0 0 0-1.329.19c-.373.111-1.103.38-1.627.606a76 76 0 0 0-1.269.55c-.175.08-.568.245-.873.368-.445.174-.675.218-1.151.214a10 10 0 0 1-1.349-.143c-.416-.079-1.254-.162-1.865-.19-1.075-.047-1.111-.051-1.13-.225q-.019-.18.277-.467c.163-.159.655-.456 1.091-.661.437-.206 1.365-.558 2.064-.78a41 41 0 0 1 1.904-.558c.349-.083.778-.19.952-.23m8.376.428c.246-.087.571-.115 1.067-.1.536.017.826.072 1.151.21.238.104.687.349.988.547.306.202.94.756 1.413 1.235.472.479.857.914.857.97-.004.055-.104.138-.223.185-.119.048-.611.091-1.091.095-.599 0-1.035-.04-1.388-.138a6.7 6.7 0 0 1-1.032-.388c-.349-.166-.698-.431-1.071-.807-.306-.31-.655-.756-.774-.99-.119-.237-.222-.49-.234-.562-.012-.091.091-.17.337-.257m10.197 1.06c.024-.043.175-.079.337-.079s.631.052 1.048.111c.413.064 1.147.242 1.627.4s1.174.443 1.547.63c.369.185.925.494 1.23.68.306.186.821.542 1.151.792.325.249.889.716 1.249 1.037.361.324.929.886 1.258 1.258.333.368.821.938 1.083 1.267.266.325.718.95 1.008 1.385.294.436.659 1.006.814 1.267s.448.787.651 1.167c.201.38.364.745.364.812 0 .063-.035.11-.075.099-.044-.012-.552-.436-1.131-.942-.579-.507-1.611-1.405-2.285-2-.679-.589-1.274-1.076-1.329-1.076-.056 0-.314.143-.576.317s-.52.317-.575.317c-.056 0-.191-.131-.298-.29a3.7 3.7 0 0 0-.595-.6c-.218-.171-.845-.587-1.388-.92-.548-.332-1.155-.767-1.35-.965-.242-.241-.432-.546-.595-.946-.194-.479-.333-.677-.753-1.076-.286-.27-.731-.665-.992-.883a11 11 0 0 1-.841-.78c-.199-.214-.421-.503-.496-.645-.072-.142-.112-.293-.088-.337m-25.96 2.082c.218-.067.702-.087 1.475-.063.631.02 1.453.083 1.826.147.369.063.924.174 1.23.253.305.075.674.214.821.305.206.13.309.296.5.8.131.347.293.72.357.83.067.107.091.226.055.258-.035.031-1.587-.194-3.44-.503-2.162-.356-3.416-.594-3.491-.669-.107-.099-.107-.166 0-.598.063-.265.167-.526.23-.573.06-.052.254-.135.437-.187m20.072.749c.04-.115.143-.139.583-.139.298.004.79.055 1.095.123.306.063.715.198.909.293.214.106.433.304.552.494.15.238.21.452.233.871.016.305.013.796-.016 1.089-.035.348-.086.534-.15.534-.056 0-.809-.705-1.678-1.564-1.183-1.171-1.564-1.599-1.528-1.701m-13.597.514c0-.115.047-.178.139-.178.075 0 .504.34.952.752.448.416.849.732.893.712.043-.023.075-.102.071-.178a2 2 0 0 1-.004-.257c.008-.095.071-.107.31-.063.162.031.634.206 1.051.388.413.182.984.411 1.266.51.512.178.516.182.535.503.02.261-.004.324-.115.332a1 1 0 0 1-.178.008c-.024 0-.524-.043-1.111-.095-.591-.051-1.341-.166-1.667-.25-.329-.082-.769-.264-.988-.407a2.7 2.7 0 0 1-.619-.57 4.5 4.5 0 0 1-.384-.673c-.084-.198-.155-.435-.151-.534m11.823.408c.151-.056.314-.107.358-.107.043-.004.202.123.357.28.15.155.9.757 1.666 1.335.762.582 1.623 1.298 1.909 1.599.285.297.607.72.714.938.131.273.198.562.21.93.02.447 0 .542-.115.586-.099.04-.234-.056-.488-.337-.19-.213-.798-.867-1.349-1.448-.552-.586-1.369-1.37-1.821-1.742a23 23 0 0 0-1.464-1.116c-.353-.241-.651-.479-.667-.534-.012-.056.076-.139.195-.19.119-.048.341-.135.495-.194m21.839 5.874c.008-.143.063-.147.849-.1.464.028 1.178.12 1.595.206.412.084.948.214 1.19.285.238.076.572.198.734.281.219.111.294.194.278.317-.012.103-.163.241-.417.38-.218.119-.789.423-1.269.673-.48.253-.909.49-.948.53-.04.04-.147.072-.239.068-.091 0-.218-.08-.286-.179-.067-.095-.432-.657-.813-1.243-.377-.59-.682-1.135-.674-1.218m-57.786.53c.151-.052.341-.1.417-.1.075-.003.139.048.139.116 0 .063-.064.233-.143.376-.076.142-.23.4-.341.574-.115.174-.663.886-1.222 1.583-.56.696-1.143 1.46-1.298 1.702-.155.237-.377.649-.496.91a5.2 5.2 0 0 0-.317 1.03c-.088.486-.084.625.047 1.147.08.325.147.744.151.926.008.325-.016.36-.706.99-.393.36-1.056.977-1.468 1.37-.75.708-.754.712-.778.474-.016-.13.028-.506.091-.831.068-.329.195-1.005.29-1.504.091-.503.218-1.16.274-1.465l.254-1.302c.079-.411.182-.795.226-.859q.077-.117.297-.067a.5.5 0 0 1 .298.21c.052.103.052.261.004.455-.04.162-.171.598-.29.97-.15.483-.198.756-.162.97q.054.297.258.435c.202.134.214.134.321-.02a.74.74 0 0 0 .107-.376c0-.119.107-.744.238-1.385.131-.642.326-1.437.433-1.762.111-.328.254-.756.325-.95a8 8 0 0 1 .369-.83c.131-.262.369-.674.524-.911a7 7 0 0 1 .682-.859c.222-.23.583-.534.802-.669.218-.138.519-.293.674-.348m63.126 2.644a126 126 0 0 1 3.055-.364c.227-.012.298.027.377.186.056.11.099.443.099.736s-.051.855-.118 1.247c-.068.391-.191.977-.274 1.306-.084.324-.238.859-.345 1.187-.107.325-.294.808-.417 1.069s-.325.645-.448.85c-.123.207-.278.377-.342.377-.067 0-.119-.063-.119-.139 0-.075.068-.494.151-.93.087-.435.23-1.175.321-1.642.088-.467.163-.958.163-1.089 0-.221-.024-.241-.416-.316-.294-.056-.441-.056-.496.004-.044.047-.199.894-.345 1.88-.144.99-.306 1.844-.358 1.903-.075.091-.131.091-.329-.011a19 19 0 0 0-.536-.246c-.162-.067-.412-.178-.555-.237l-.714-.317c-.25-.115-.476-.241-.496-.285-.024-.043.175-.507.436-1.03.262-.522.476-1.028.473-1.127 0-.103-.374-.67-.866-1.326-.67-.887-.845-1.168-.773-1.239.051-.051 1.345-.253 2.872-.447m4.218.083c.02-.032.107-.06.19-.06.084 0 .254.048.373.111.119.06.361.266.54.456s.448.558.603.819c.151.261.389.76.528 1.108s.325.899.412 1.227c.092.333.155.768.119 1.385l-.674.218c-.373.119-.718.202-.774.178-.056-.02-.123-.245-.15-.495a5.5 5.5 0 0 0-.23-.97c-.1-.284-.33-.854-.509-1.266-.178-.415-.381-1.021-.448-1.346-.075-.364-.103-.732-.067-.95.027-.197.067-.383.087-.415m-10.288.724c.285-.079.801-.142 1.15-.146.349 0 .778.035.952.083.179.051.441.214.6.376.238.241.301.384.38.843.076.424.08.685.013 1.108-.048.305-.167.697-.262.867-.096.174-.246.352-.334.4-.099.055-.325.063-.595.028a10 10 0 0 0-.932-.064c-.274 0-.596.044-.714.103-.12.06-.318.222-.437.356-.119.139-.246.25-.278.25-.031 0-.293-.55-.575-1.227-.286-.673-.559-1.227-.615-1.227s-.171.158-.258.356c-.087.194-.214.356-.278.356-.067 0-.139-.063-.162-.138-.02-.076.02-.337.091-.574.099-.325.234-.535.54-.835.222-.218.583-.483.801-.586s.627-.25.913-.329m9.74 3.867c.163-.684.334-1.235.377-1.223.044.016.163.15.262.301.099.147.278.57.397.942.194.61.214.784.21 3.127l-.42.99-.524 1.226c-.06.131-.488 1.144-.956 2.256l-.953 2.257-.186.435c-.044.107-.535 1.266-1.087 2.573s-1.286 3.031-1.627 3.839c-.452 1.065-.666 1.48-.785 1.524a.76.76 0 0 1-.374 0 .46.46 0 0 1-.281-.257c-.044-.123-.036-.361.02-.634.047-.241.214-.882.365-1.425.15-.546.416-1.417.595-1.939a91 91 0 0 1 .881-2.415 158.159 158.159 0 0 1 1.285-3.324c.25-.634.54-1.382.651-1.663.107-.285.254-.657.321-.831a48 48 0 0 0 .544-1.464c.115-.325.385-1.148.599-1.821.214-.677.523-1.789.686-2.474m5.059 2.648c.032-.067.115-.087.222-.055.096.027.318.103.492.174.175.067.532.23.794.36s.726.384 1.032.562c.305.182.734.499.952.705.265.253.369.403.317.459-.055.051-.317.028-.813-.083-.405-.087-.806-.159-.893-.159-.107 0-.198.095-.286.297a3.2 3.2 0 0 0-.178.554c-.048.234-.032.262.127.258.099 0 .678-.072 1.289-.159s1.147-.142 1.191-.118c.043.02.079.09.079.158 0 .063-.099.34-.222.613s-.393.752-.595 1.069a7.4 7.4 0 0 1-.73.93c-.199.194-.421.356-.496.36-.076 0-.286-.15-.46-.336-.179-.186-.366-.475-.417-.637a.9.9 0 0 1-.02-.554c.043-.143.151-.357.238-.475.092-.119.143-.246.119-.278-.02-.031-.19-.011-.377.048-.183.059-.369.123-.413.139a.24.24 0 0 1-.174-.028c-.052-.032-.258-.879-.46-1.88-.203-1.002-.345-1.868-.318-1.924m-51.143.665c.063-.02.369-.032.674-.016.306.012.948.107 2.301.392l.794-.142c.436-.076.881-.127.984-.111a.64.64 0 0 1 .345.225c.143.178.151.242.068.673-.048.261-.06.499-.028.53.031.032.452-.063.932-.21.48-.15.909-.256.952-.237.044.02 1.095 1.425 2.341 3.123 1.242 1.698 2.405 3.301 2.579 3.563.183.265.369.463.437.451.079-.012.127-.127.147-.333a3 3 0 0 0-.068-.752 8 8 0 0 0-.206-.772 7 7 0 0 0-.337-.791 9 9 0 0 0-.711-1.089 10 10 0 0 0-.845-.989c-.198-.198-.361-.412-.361-.475 0-.067.206-.285.456-.487s.723-.526 1.052-.716c.325-.194.861-.46 1.19-.594.326-.135.845-.317 1.151-.404.305-.09.77-.202 1.031-.253.262-.048.5-.06.528-.024.032.036-.103.527-.297 1.093-.195.566-.354 1.064-.354 1.108 0 .047.163.059.421.028.23-.024.952-.226 1.607-.448a68 68 0 0 1 1.785-.574c.429-.126.822-.178 1.393-.186.607-.004.841.024.992.12.167.106.198.197.214.593.012.257.04.483.064.506.024.02.23-.023.456-.095.266-.091.441-.11.492-.063.051.052-.02.273-.218.653-.163.317-.417.788-.564 1.049-.142.261-.603 1.061-1.019 1.781a50 50 0 0 0-1.115 2.019 15 15 0 0 0-.639 1.504 12 12 0 0 0-.405 1.583 11 11 0 0 0-.127 1.346c0 .305.056.91.119 1.345.068.436.215 1.093.33 1.465.111.368.313.902.444 1.187.131.281.659 1.37 1.179 2.415a171 171 0 0 0 1.384 2.731c.246.455.607 1.132.81 1.504.198.368.551.974.781 1.346.227.368.532.759.679.866.146.103.531.325.861.483.325.163.718.396.865.523.15.122.484.49.745.819.263.325.643.768.842.978.206.218.571.487.841.613.353.17.591.23.932.23.25 0 .508-.02.576-.04.063-.024.118-.095.118-.158 0-.067-.079-.174-.178-.241-.099-.068-.464-.207-.813-.317-.349-.107-.75-.265-.893-.353a2 2 0 0 1-.476-.455 2.5 2.5 0 0 1-.33-.653c-.059-.197-.087-.419-.059-.495a.23.23 0 0 1 .19-.138c.076-.004 1.075.317 2.222.713 1.147.391 2.199.712 2.341.716.143 0 .302-.052.357-.119.056-.067.08-.214.06-.32-.024-.123-.167-.277-.377-.412-.187-.115-.964-.53-1.726-.919a46 46 0 0 1-2.024-1.088 6.7 6.7 0 0 1-1.158-.918 9.5 9.5 0 0 1-.94-1.176 12 12 0 0 1-.639-1.108 10.3 10.3 0 0 1-.71-2.335 10 10 0 0 1-.084-1.267c.004-.415.036-.807.076-.871.063-.102.131-.099.551.04.266.087.508.131.54.095.035-.036.016-.249-.044-.475a8 8 0 0 1-.146-1.164 7.6 7.6 0 0 1 .047-1.345c.052-.329.269-1.128.488-1.781.258-.788.456-1.255.587-1.386.155-.154.223-.178.298-.107.055.052.15.424.21.832.055.407.159 1.076.222 1.492.068.411.167.91.222 1.108.056.194.203.566.33.819.127.254.492.752.813 1.109.322.356.667.752.766.882.103.131.345.558.543.95.195.392.504 1.069.691 1.504.182.436.456 1.128.607 1.544.151.411.377 1.053.504 1.425.127.368.567 1.722.98 3.008.416 1.282.877 2.636 1.027 3.008.151.368.58 1.294.949 2.058.369.76.745 1.615.837 1.9.087.281.198.728.246.989.048.262.083.832.083 1.267s-.035 1.021-.079 1.306c-.06.364-.222.8-.575 1.5-.445.887-.496 1.037-.496 1.465 0 .265.055.597.118.74.096.206.1.277.021.356-.08.075-.163.063-.397-.051a11 11 0 0 1-.933-.594 27 27 0 0 1-1.547-1.227c-.5-.432-1.627-1.449-2.5-2.268a173 173 0 0 1-4.086-4.013c-1.377-1.39-2.703-2.775-2.948-3.076a33 33 0 0 1-.993-1.318c-.297-.423-.721-1.025-.94-1.342a19 19 0 0 0-.904-1.171 12 12 0 0 0-.953-.994 10 10 0 0 0-.92-.724 11 11 0 0 0-1.032-.602 13 13 0 0 0-1.269-.53 18 18 0 0 0-1.508-.435 26 26 0 0 0-1.31-.273 40 40 0 0 0-1.269-.179c-.464-.055-2.484-.098-5.277-.114-3.281-.016-4.623-.052-4.88-.123a5 5 0 0 1-.873-.36c-.286-.147-.58-.265-.655-.261q-.14-.002-.139.197c0 .107.028.21.06.23.031.016.083.131.111.257.027.123.019.289-.02.364a.29.29 0 0 1-.23.139c-.092 0-.556-.364-1.091-.851-.512-.467-.988-.895-1.052-.954-.067-.059-.143-.075-.174-.039-.032.035.012.348.099.696s.155.697.155.772c0 .083-.147.222-.358.336-.198.107-.357.25-.357.317 0 .063.088.325.191.574l.484 1.168c.289.696.293.716.139.831-.084.063-.365.281-.623.479-.27.206-.687.653-.984 1.053-.286.383-.75 1.009-1.036 1.385-.345.451-.682.791-.992 1.005a2.9 2.9 0 0 1-.948.424c-.266.059-.635.087-.833.059a6 6 0 0 1-.655-.131 1.5 1.5 0 0 1-.516-.265c-.127-.107-.258-.332-.309-.534a1.7 1.7 0 0 1-.032-.705c.032-.197.155-.712.27-1.147s.21-.919.214-1.069c0-.202-.059-.332-.222-.483a6 6 0 0 0-.611-.475c-.298-.206-.44-.372-.587-.704-.147-.329-.187-.535-.163-.844.02-.261.087-.463.191-.573.13-.143.245-.171.694-.171.448.004.539-.019.559-.134.016-.075-.055-.451-.158-.831a9 9 0 0 0-.405-1.188 2.3 2.3 0 0 0-.615-.831q-.393-.337-.75-.412c-.198-.039-.928-.095-1.627-.118-.698-.024-1.468-.091-1.706-.151a14 14 0 0 1-.734-.198c-.194-.059-.297-.138-.297-.229 0-.076.071-.254.158-.396s.31-.36.496-.483c.187-.127.524-.321.754-.435a4 4 0 0 0 .714-.475c.163-.147.568-.602.901-1.01.329-.411.813-1.045 1.071-1.413a70 70 0 0 0 1.159-1.741c.381-.59.976-1.536 1.325-2.102s.948-1.52 1.333-2.117c.385-.598.992-1.504 1.349-2.019.357-.511.889-1.235 1.183-1.603.293-.372.983-1.12 1.531-1.666.675-.67 1.258-1.164 1.793-1.516.437-.285.973-.594 1.191-.681.218-.091.448-.182.516-.206m51.223 7.801a.8.8 0 0 1 .337-.087.3.3 0 0 1 .258.155c.043.087.055.328.027.534-.027.206-.182.748-.345 1.207a20 20 0 0 1-.555 1.386 133 133 0 0 1-1.036 2.137 86 86 0 0 1-1.384 2.691 69 69 0 0 1-.972 1.702c-.203.325-.457.693-.568.812-.147.154-.282.221-.464.217-.143 0-.278-.043-.306-.099-.023-.055.028-.348.124-.653.091-.304.217-.68.277-.831.063-.154.206-.526.326-.831.115-.305.456-1.124.753-1.821a60 60 0 0 1 .746-1.682c.111-.229.202-.435.202-.455 0-.024.199-.459.441-.97.246-.51.52-1.092.615-1.286.095-.198.341-.641.544-.99.202-.348.472-.728.595-.839.123-.115.297-.249.385-.297m14.756 1.671c.027-.056.075-.099.107-.099.031 0 .162.067.293.146s.524.297.873.487.77.427.932.526c.163.103.314.186.338.186.019 0 .246.131.496.289.25.159.849.547 1.329.863.48.313 1.154.831 1.5 1.152.345.325.71.72.813.883.103.166.186.419.186.574 0 .198-.051.308-.178.395a.7.7 0 0 1-.317.119c-.076 0-.139.052-.139.119 0 .063.166.253.369.415.202.163.571.563.821.891.246.325.607.859.802 1.187.194.325.448.788.559 1.03.115.237.27.629.349.87.079.238.147.622.151.851.004.337-.032.447-.195.61-.115.111-.4.245-.674.316-.262.068-.556.123-.655.123a.9.9 0 0 0-.337.079c-.087.044-.246.265-.357.495-.139.293-.199.55-.199.871 0 .332-.031.467-.118.495-.068.019-.29.039-.496.035-.29 0-.417.04-.548.178-.091.103-.385.626-.643 1.172-.262.542-.563 1.184-.674 1.425-.112.238-.318.685-.457.989-.138.305-.337.732-.436.95-.103.218-.329.709-.508 1.089-.179.379-.325.708-.325.732 0 .02-.147.352-.326.732-.178.38-.412.887-.523 1.128-.107.238-.405.843-.655 1.346-.25.499-.547 1.061-.667 1.247-.115.185-.21.352-.21.376 0 .019-.361.637-.805 1.365a96 96 0 0 1-1.651 2.593c-.464.696-1.075 1.595-1.357 1.995-.281.399-.567.748-.631.771-.067.024-.138.024-.159 0-.023-.023.008-.336.068-.692.071-.416.21-.851.389-1.203.151-.305.448-.875.655-1.267.206-.392.583-1.104.833-1.583s.591-1.121.753-1.425l.715-1.346c.23-.435.551-1.041.714-1.346s.54-1.017.833-1.583c.294-.566.671-1.278.833-1.583l.715-1.346c.23-.435.551-1.041.714-1.346.162-.304.5-.938.742-1.405.246-.467.65-1.234.892-1.702l.755-1.424c.19-.357.305-.673.301-.832a2.2 2.2 0 0 0-.063-.455c-.032-.111-.115-.206-.191-.218-.076-.011-.25.115-.393.285a5.3 5.3 0 0 0-.508.772c-.139.258-.4.859-.583 1.338a17 17 0 0 1-.508 1.227c-.099.194-.297.57-.444.831-.143.262-.456.811-.695 1.228l-.972 1.662c-.293.498-.619 1.053-.718 1.227-.095.174-.428.759-.734 1.306a71 71 0 0 0-1.202 2.256 42 42 0 0 0-1.028 2.177c-.21.498-.432 1.052-.5 1.227-.067.174-.17.431-.229.573-.104.238-.136.258-.786.218l.012-.673c.008-.49.067-.855.222-1.345.119-.372.429-1.108.686-1.643s.707-1.369.996-1.86 1.357-2.137 2.369-3.661c1.016-1.524 1.932-2.933 2.039-3.127.111-.198.333-.677.496-1.069s.425-1.017.584-1.385c.162-.372.436-.887.611-1.148.174-.257.472-.578.662-.712.274-.19.44-.242.814-.258.424-.019.467-.035.467-.198 0-.098-.067-.391-.154-.653-.087-.261-.266-.589-.397-.732-.159-.166-.317-.257-.46-.261-.123 0-.345.095-.5.218a4.4 4.4 0 0 0-.528.498c-.131.151-.722 1.006-1.309 1.9-.587.891-1.178 1.758-1.317 1.92s-.31.297-.373.297c-.088 0-.107-.056-.072-.218.028-.119.139-.416.25-.653a7 7 0 0 1 .496-.871c.159-.241.488-.72.73-1.069.242-.348.512-.775.599-.949a4 4 0 0 0 .238-.594c.048-.155.163-.618.262-1.029.099-.416.242-.859.322-.99.075-.13.242-.312.364-.403.123-.092.394-.234.604-.317.206-.083.377-.194.377-.249-.004-.056-.389-.432-.858-.836s-.932-.859-1.023-1.009c-.095-.15-.23-.522-.301-.827a7 7 0 0 0-.203-.752c-.04-.111-.496-.538-1.008-.95a26 26 0 0 1-1.309-1.128c-.21-.206-.405-.455-.429-.554-.027-.099-.027-.222.005-.277m-88.084 12.471c.262-.071.623-.134.798-.134.175-.004.496.075.714.178.226.103.504.317.643.491.135.174.321.506.409.748.091.237.206.736.254 1.108.051.368.071.752.047.851q-.043.178-.222.178c-.099 0-.393-.127-.655-.281-.262-.158-.67-.435-.908-.613a17 17 0 0 1-.901-.768 6 6 0 0 1-.702-.792c-.127-.198-.23-.411-.23-.475-.004-.067.059-.174.135-.237.075-.068.353-.178.618-.254m6.234 2.015c.151-.043.508-.087.793-.091.282-.004.695.04.913.095.218.059.627.233.912.388.282.154.727.475.984.708a6.6 6.6 0 0 1 .723.78c.142.194.341.499.436.673.099.174.246.53.329.791.096.301.151.701.147 1.089 0 .352-.055.776-.127.99a2.8 2.8 0 0 1-.416.724 2.8 2.8 0 0 1-.608.53 5.4 5.4 0 0 1-.793.348 8 8 0 0 1-1.032.277c-.305.06-.841.131-1.19.159a6.7 6.7 0 0 1-1.27-.032 6.5 6.5 0 0 1-.952-.194c-.174-.059-.353-.178-.397-.261-.055-.111-.004-1.037.175-3.083.139-1.607.254-3 .258-3.1.004-.126.127-.253.42-.443.231-.142.54-.3.695-.348m16.902.503c.413-.107.976-.202 1.25-.202.44-.004.528.024.774.234.15.13.277.288.277.356 0 .063-.063.134-.138.154s-.215.119-.31.217c-.091.1-.214.325-.274.5-.079.233-.107.854-.111 4.353l-.266.673c-.146.368-.428 1.081-.623 1.583-.194.499-.48 1.212-.634 1.584-.155.368-.35.772-.433.89a1.15 1.15 0 0 1-.365.329 9 9 0 0 1-.813.324c-.33.119-.703.277-.833.356a.96.96 0 0 0-.342.369 1.2 1.2 0 0 0-.079.502c.02.242.048.277.222.262.107-.008.448-.072.754-.143.46-.107.643-.111 1.071-.036.282.048.782.222 1.111.384.326.163.933.475 1.349.697a10 10 0 0 0 1.429.597 19 19 0 0 0 1.071.29c.218.047.754.134 1.19.201.437.063 1.417.19 2.182.281.762.095 1.798.258 2.302.368.5.111 1.127.246 1.388.297.465.091.477.099.5.368.012.163-.055.436-.166.669-.1.218-.449.677-.774 1.021-.325.341-.968.914-1.424 1.275-.461.356-1.139.851-1.508 1.1-.373.25-1.067.645-1.548.879a23 23 0 0 1-1.507.669c-.349.131-.905.308-1.23.396-.33.087-.953.213-1.389.281-.436.063-1.115.118-1.508.118a13 13 0 0 1-1.507-.115 16 16 0 0 1-1.548-.312 24 24 0 0 1-1.508-.471 31 31 0 0 1-1.547-.606 53 53 0 0 1-1.448-.645c-.361-.166-.655-.324-.655-.344 0-.024-.067-.297-.151-.614a18 18 0 0 1-.246-1.049l-.202-1.028a59 59 0 0 1-.29-1.663c-.146-.918-.178-1.429-.178-2.968 0-1.473.028-1.999.139-2.534.075-.372.214-.922.305-1.227.092-.304.326-.894.516-1.306.194-.415.417-.815.488-.894.075-.076.179-.139.234-.139.056.004.722.305 1.488.677.762.368 1.44.673 1.508.673.063 0 .119-.028.119-.06.004-.031-.222-.205-.496-.387-.274-.178-.853-.558-1.29-.84a27 27 0 0 0-.972-.601c-.099-.052-.178-.163-.178-.249 0-.088.258-.543.571-1.01.365-.546.873-1.152 1.409-1.686.503-.503 1.122-1.025 1.555-1.306a13 13 0 0 1 1.23-.72c.282-.139.69-.325.909-.412.218-.087.734-.249 1.15-.36m3.337.288q.198-.092 1.424-.098c.675 0 1.837.055 2.579.122.742.064 1.615.17 1.945.238.325.063.785.214 1.023.332.25.127.643.448.952.772.294.305.711.855.929 1.227.218.368.508.938.651 1.267.138.324.361.93.496 1.346.135.411.313 1.088.396 1.504.084.411.191 1.108.242 1.543.056.459.076 1.239.048 1.86-.024.586-.103 1.299-.175 1.584-.071.281-.218.7-.321.93-.167.356-.226.416-.413.416-.119 0-2.309-.519-4.86-1.152-2.555-.63-5.035-1.243-5.515-1.358-.52-.127-.948-.277-1.06-.376-.178-.154-.186-.202-.146-.835.024-.372.174-1.207.333-1.861.159-.652.341-1.429.401-1.721.063-.293.115-.72.111-.95 0-.23-.056-.649-.119-.93a30 30 0 0 1-.238-1.168c-.084-.479-.095-.736-.036-.97.052-.197.282-.557.619-.969.298-.36.627-.697.734-.753m73.113.278a.5.5 0 0 1 .226-.06c.075 0 .19.016.258.04.083.028.119.154.119.436 0 .217.055.743.123 1.167.067.423.194 1.108.282 1.524.087.411.241 1.179.345 1.702.107.522.234 1.306.282 1.741.051.436.067.95.039 1.148a6 6 0 0 1-.17.712c-.068.194-.231.586-.365.871-.136.281-.461.871-.723 1.307a36 36 0 0 1-1.071 1.662c-.329.479-.92 1.298-1.313 1.82a67 67 0 0 1-1.266 1.623c-.302.368-.774.914-1.055 1.208-.278.293-.54.534-.584.534s-.079-.056-.079-.119c0-.067.103-.431.23-.811.131-.38.294-.855.365-1.049.076-.198.341-.768.591-1.267a39 39 0 0 1 1.02-1.86c.314-.522.675-1.128.806-1.346.135-.217.444-.736.686-1.148.246-.415.655-1.163.905-1.662.253-.503.523-1.053.595-1.227s.238-.637.365-1.029.242-.867.25-1.057c.016-.305-.012-.372-.258-.582-.155-.13-.321-.217-.377-.19-.056.028-.802 1.445-1.654 3.155-.857 1.71-1.615 3.186-1.687 3.289-.071.099-.139.17-.151.159-.011-.016.104-1.057.258-2.32.151-1.263.318-2.474.365-2.692a8 8 0 0 1 .179-.673c.051-.154.238-.562.417-.91.174-.348.436-.839.575-1.088.135-.249.365-.661.5-.91.139-.25.373-.689.52-.97.146-.285.289-.642.313-.792.027-.154.091-.305.139-.336m-64.106.811c.023-.043.139-.055.258-.032.119.028.765.286 1.444.574.674.285 1.674.748 2.222 1.03.543.28 1.214.648 1.488.815.273.166.511.304.535.304.02 0 .139.068.258.151.119.079.484.317.814.527.325.209.952.633 1.388.937.437.305.936.665 1.111.8.175.138.674.526 1.111.871.437.344 1.151.926 1.587 1.298a63 63 0 0 1 1.821 1.631c.568.522 1.508 1.413 2.095 1.979a55 55 0 0 1 2.111 2.177 94 94 0 0 1 1.877 2.137c.5.589.877 1.116.94 1.306.068.202.088.475.052.752a7 7 0 0 1-.238 1.029 10 10 0 0 1-.536 1.267c-.19.368-.583 1.029-.869 1.464a28 28 0 0 1-1.317 1.782c-.441.541-.929 1.112-1.087 1.266-.159.15-.29.313-.29.356 0 .044.206.146.461.226.249.083.686.301.972.487.281.181.801.633 1.15 1.001.349.364.948 1.013 1.329 1.437.381.423.694.803.694.847s-.841 1.085-1.864 2.315c-1.028 1.231-1.865 2.3-1.865 2.375 0 .103.067.139.258.139.143 0 .452-.096.69-.218.25-.127.592-.4.817-.653.211-.242.731-.93 1.155-1.532.425-.606.929-1.247 1.127-1.425.202-.182.714-.487 1.171-.7.448-.21.848-.381.892-.381s.194-.051.338-.11c.142-.06.4-.162.575-.23.174-.063.46-.17.634-.237.175-.071.675-.254 1.112-.416a23 23 0 0 0 1.27-.503c.305-.138.737-.451 1.213-.882.405-.369.913-.819 1.131-1.006.215-.186.445-.336.512-.336.064 0 .182.135.258.297.075.162.179.297.23.297s.23-.127.397-.277c.166-.154.575-.511.9-.8.33-.285.881-.736 1.23-.997.35-.265.83-.582 1.072-.701.313-.158.595-.229.991-.257a3.6 3.6 0 0 1 1.072.095c.281.071.944.289 1.468.483.524.19 1.166.407 1.428.475.262.071.778.15 1.151.174.591.035.75.016 1.309-.174.468-.158.679-.194.794-.139.087.044.234.214.325.384.095.17.246.657.338 1.08.099.444.21 1.386.261 2.217a21 21 0 0 1 0 3.028 42 42 0 0 1-.214 2.533 26 26 0 0 1-.305 1.781c-.104.455-.294 1.061-.425 1.346-.194.408-.417.681-1.064 1.306a24 24 0 0 1-1.892 1.591 60 60 0 0 1-2.261 1.584c-.655.431-1.369.894-1.588 1.033-.218.134-.825.506-1.349.819-.523.317-1.523.895-2.221 1.286a79 79 0 0 1-2.54 1.366c-.698.356-1.662.819-2.143 1.025s-1.086.447-1.348.53c-.262.087-.782.226-1.151.309a7 7 0 0 1-1.23.151c-.306 0-.734-.044-.952-.104a5 5 0 0 1-.794-.296c-.218-.103-.647-.439-.956-.744-.31-.305-.71-.768-.885-1.029a11 11 0 0 1-.46-.753c-.08-.154-.282-.668-.453-1.147-.17-.479-.396-.986-.503-1.128-.108-.143-.266-.258-.354-.258-.107 0-.317.214-.646.654-.27.36-.793 1.025-1.167 1.484-.373.455-1.341 1.488-2.15 2.295-.809.804-1.901 1.821-2.425 2.256a74 74 0 0 1-2.142 1.706c-.655.499-1.389 1.053-1.627 1.231-.242.178-.778.57-1.198.871-.416.301-.996.717-1.29.922-.289.206-.519.416-.507.467.012.048.25.174.535.281.282.107.544.218.584.246.035.031.015.098-.04.154-.06.055-.341.221-.623.364-.286.143-.714.372-.952.507-.242.13-.651.313-.913.4s-.924.198-1.468.249c-.659.059-2.698.083-6.071.067-3.753-.015-5.348.004-6.11.079-.567.056-2.174.242-3.571.412-1.396.17-3.023.364-3.61.432-.592.063-1.5.162-2.024.213-.524.048-1.988.091-3.253.087-1.294 0-2.615-.043-3.016-.095-.393-.051-.865-.162-1.051-.245-.234-.107-.337-.202-.337-.313 0-.13.051-.158.297-.158.163 0 1.369.071 2.678.158 1.31.083 2.718.159 3.135.166.567.008 1.535-.111 3.928-.474a298 298 0 0 0 3.372-.531c.159-.032.175-.055.08-.115-.068-.043-2.083-.075-4.801-.075-2.575 0-5.468-.035-6.428-.079s-2.281-.115-2.936-.158c-.655-.044-1.924-.155-2.817-.242-.897-.091-2.484-.269-3.531-.396-1.048-.13-2.619-.344-3.492-.475a88 88 0 0 1-2.222-.364l-1.389-.269a18 18 0 0 1-1.309-.312 11 11 0 0 1-.873-.285 3 3 0 0 1-.575-.317c-.143-.103-.35-.368-.456-.586a5.3 5.3 0 0 1-.326-.89 2.3 2.3 0 0 1-.071-.93c.032-.242.103-.563.155-.713.055-.154.317-.724.579-1.267.266-.546.571-1.31.682-1.701.107-.392.254-.947.322-1.228.067-.284.158-.712.202-.95.048-.241.226-1.254.4-2.256s.374-2.125.441-2.493c.072-.372.199-1.029.286-1.464.091-.436.25-1.133.357-1.544.107-.416.325-1.128.48-1.583.155-.46.377-1.022.492-1.251.167-.337.262-.435.484-.507.175-.055.603-.067 1.151-.039.48.027 1.265.122 1.746.213.48.095 1.122.242 1.428.329.377.107.901.368 1.627.819.587.364 1.714 1.053 2.499 1.532a49 49 0 0 0 2.064 1.199c.349.182.884.439 1.19.57s.714.285.912.345c.195.063.552.134.794.162.317.035.52.016.734-.079.163-.072.369-.242.456-.384s.159-.357.159-.476c0-.146-.083-.288-.258-.435-.143-.122-.508-.297-.813-.388-.306-.095-.79-.221-1.072-.288a5 5 0 0 1-.872-.285c-.199-.092-.679-.408-1.072-.705a82 82 0 0 1-1.547-1.192c-.46-.36-1.067-.795-1.349-.965a9 9 0 0 0-1.131-.55 8 8 0 0 0-1.408-.357c-.504-.075-1.365-.118-2.361-.118-1.147.004-1.599-.024-1.694-.099-.068-.056-.187-.333-.258-.614-.076-.285-.473-1.211-.885-2.058-.413-.851-.806-1.777-.881-2.058-.103-.4-.123-.72-.087-1.425.04-.78.123-1.227.599-3.087.301-1.199.595-2.482.647-2.85.055-.372.119-.697.146-.728.028-.032.088-.032.135 0 .044.031.155.178.246.332.092.151.345.57.98 1.583l-.206.495c-.115.273-.313.76-.444 1.089-.135.324-.294.7-.361.831-.068.13-.1.301-.072.376.048.13.075.13.429.012.206-.068.412-.111.456-.092.044.021.143.167.218.325.099.206.191.289.318.289.099 0 .349-.055.555-.119.29-.091.377-.094.377-.019.004.055-.532.589-1.19 1.187-.774.708-1.191 1.144-1.191 1.247q.002.156.258.265c.143.059.488.162.774.23.282.063.71.158.952.209.238.048.873.179 1.409.285.535.111 1.071.246 1.19.309.119.059.861.629 1.647 1.267.785.637 1.48 1.147 1.547 1.135.067-.015.107-.091.091-.182-.016-.083-.158-.367-.317-.629a7 7 0 0 0-.726-.938 6.5 6.5 0 0 0-.952-.804 8 8 0 0 0-.992-.538 9 9 0 0 0-.953-.324 4.6 4.6 0 0 0-.892-.127c-.23 0-.433-.028-.453-.059-.02-.032.131-.293.338-.574.206-.285.424-.606.484-.713.059-.11.166-.376.234-.593.075-.242.123-.673.119-1.108-.004-.559-.052-.852-.222-1.346a9 9 0 0 0-.556-1.267c-.186-.348-.48-.867-.655-1.148-.174-.285-.67-1.049-1.095-1.702-.428-.653-.972-1.563-1.206-2.018-.234-.459-.496-1.065-.583-1.346-.087-.285-.159-.586-.159-.673s.171-.328.758-.922l.833.083c.456.043 1.099.103 1.429.131.325.023.88.079 1.23.122a10 10 0 0 1 1.19.242c.305.091.785.281 1.071.423.282.147.766.44 1.071.653.306.214 1.215.918 2.024 1.568.805.645 1.734 1.346 2.063 1.559.326.214.845.507 1.151.649.305.143.69.301.853.349.242.075.297.13.297.288a.9.9 0 0 1-.138.408c-.076.115-.588.503-1.131.863-.548.36-1.107.772-1.246.919-.139.146-.27.363-.298.482q-.043.218.056.218c.055.004.242-.055.417-.127.174-.067.511-.218.753-.324.238-.107.667-.309.953-.448.281-.134.722-.38.976-.546.254-.162.543-.412.646-.554.1-.142.203-.356.231-.475a.83.83 0 0 0-.028-.416.62.62 0 0 0-.298-.288 19 19 0 0 1-.774-.364c-.305-.155-.86-.475-1.229-.713a24 24 0 0 1-1.27-.89c-.329-.254-1.187-.927-1.905-1.501a45 45 0 0 0-2.142-1.603c-.46-.304-.996-.637-1.191-.736a8 8 0 0 0-.872-.356c-.425-.143-.742-.178-1.786-.202-.698-.02-1.397-.055-1.547-.079-.155-.028-.326-.091-.381-.142a.4.4 0 0 1-.103-.25c0-.087.047-.197.103-.249s.726-.254 1.492-.451a49 49 0 0 0 2.222-.634c.456-.15 1.083-.38 1.388-.51.306-.135.877-.408 1.27-.614.393-.201 1-.522 1.349-.708a84 84 0 0 0 1.428-.788c.437-.245.802-.443.814-.443.012.004.599-.341 1.309-.76.71-.42 1.591-.97 1.964-1.219.369-.246.778-.555.901-.677.123-.127.301-.364.396-.526.096-.167.187-.301.211-.301.02 0 .412.198.873.435.456.237.857.479.884.535.028.055-.178.902-.456 1.884a54 54 0 0 0-.714 2.77 11.6 11.6 0 0 0-.25 2.177c-.028.752-.004 1.433.06 1.86.055.388.246 1.073.452 1.623.198.523.444 1.18.547 1.465.108.28.227.692.27.91.044.249.044.499-.004.673-.039.15-.19.376-.591.708l.635.602c.349.328.885.768 1.19.973.306.206.877.539 1.27.74a13.5 13.5 0 0 0 1.666.689c.524.175 1.31.388 1.746.476.437.09 1.167.201 1.627.253.504.055 1.416.075 2.301.047q1.468-.04 2.341-.206c.48-.091 1.139-.237 1.468-.328.325-.091.825-.258 1.111-.364a22 22 0 0 0 1.032-.443 12 12 0 0 0 1.051-.59c.294-.186.536-.376.536-.42s-.246-.079-.576-.079c-.317 0-.63-.032-.694-.071-.067-.04-.091-.111-.059-.159.031-.047.095-.087.138-.087s.302-.111.576-.245c.273-.131.762-.424 1.091-.645.325-.218.825-.594 1.111-.831.282-.238.69-.634.904-.879s.532-.646.707-.883c.174-.241.492-.649.698-.91a5.6 5.6 0 0 1 .762-.764c.21-.158.603-.364.877-.455.357-.119.698-.166 1.21-.166.678 0 .714-.008.75-.179a.56.56 0 0 0-.08-.356.6.6 0 0 0-.333-.229c-.119-.028-.397-.024-.615.003-.218.028-.512.016-.655-.027-.142-.048-.258-.139-.258-.202 0-.067.044-.131.1-.146.055-.012.793-.008 1.646.012.849.019 1.683.016 1.845-.012.27-.048.298-.076.302-.309 0-.158-.087-.38-.226-.574-.123-.174-.314-.376-.417-.443a8 8 0 0 0-.472-.285 13 13 0 0 0-.992-.463c-.393-.166-.829-.376-.968-.467-.139-.087-.27-.234-.294-.321s-.004-.463.04-.831c.044-.372.095-.752.115-.851.024-.123.091-.178.214-.178.099.004.623.166 1.171.364.543.197 1.127.412 1.289.471.163.063.433.162.595.226.163.059.457.17.655.245.194.071.464.178.595.237.131.056.595.269 1.032.475.436.202 1.079.542 1.428.756a20 20 0 0 1 1.48 1.041c.468.36 1.27.982 1.785 1.378.52.396 1.207.878 1.536 1.072.326.194.782.432 1.012.527.23.094.48.174.555.178.127.004.127-.012.02-.151-.067-.087-.889-.807-1.825-1.598-.94-.796-2.118-1.758-2.619-2.134a35 35 0 0 0-1.468-1.041 11 11 0 0 0-1.032-.582c-.261-.123-.924-.38-1.468-.57-.547-.194-1.241-.435-1.547-.538s-.877-.297-1.269-.435a16 16 0 0 1-1.29-.523c-.432-.202-.607-.333-.706-.526-.072-.143-.218-.563-.318-.931a38 38 0 0 1-.384-1.543 28 28 0 0 0-.397-1.544 11 11 0 0 0-.548-1.385c-.19-.392-.512-.899-.714-1.128-.202-.23-.345-.451-.321-.495m65.804 9.357c.167-.257.325-.412.401-.396.067.012.186.139.265.281.12.218.128.305.056.554-.051.162-.305.705-.568 1.208a61 61 0 0 1-.92 1.662c-.238.411-1.067 1.765-1.841 3.008a218 218 0 0 0-1.797 2.929 61 61 0 0 0-1.195 2.137c-.17.325-.495 1.029-.722 1.564-.381.906-.42.969-.626.966a.6.6 0 0 1-.361-.139c-.088-.083-.139-.249-.139-.431a2.3 2.3 0 0 1 .134-.634c.072-.186.211-.515.31-.732l.314-.713c.071-.173.182-.478.246-.672.059-.198.11-.483.11-.634.005-.213.187-.558.818-1.523.444-.685 1.396-2.146 2.115-3.246a1270 1270 0 0 1 3.4-5.189M97.809 151.942c.024-.067.103-.118.178-.118.072 0 .29.099.488.221.195.123.477.344.623.495.143.15.334.431.42.629.088.194.195.535.235.752.044.218.06.531-.008.99h-.615c-.337 0-.698.028-.797.059-.111.036-.21.158-.258.317-.04.142-.111.257-.155.257s-.1-.056-.12-.119c-.023-.067-.039-.851-.039-1.742 0-.894.02-1.677.048-1.741m88.983 4.754c.472-.729.627-.914.774-.914s.191.051.222.257c.02.142.048.364.06.495.016.173.083.269.262.356.134.063.305.17.381.237.075.064.139.19.134.277a.4.4 0 0 1-.099.258.4.4 0 0 1-.258.099c-.091 0-.348.09-.579.197-.27.127-.504.317-.662.535a8 8 0 0 0-.516.87c-.147.293-.405.665-.568.828s-.706.597-1.21.969c-.5.373-1.012.74-1.13.816-.152.095-.219.107-.215.039 0-.055.421-.74.933-1.523.507-.784 1.142-1.754 1.404-2.154.262-.404.742-1.144 1.067-1.642m-31.19 12.088a.5.5 0 0 1 .262-.099c.08 0 .349.205.6.463.249.253.713.796 1.031 1.207.314.407 1.012 1.33 1.547 2.05.897 1.203 1.024 1.342 1.647 1.762.369.249.905.593 1.19.763.282.166.71.479.945.693.237.21.496.527.575.7.079.175.143.44.143.594 0 .151-.092.614-.203 1.029-.194.705-.198.8-.123 1.505.048.411.179 1.25.29 1.86.111.609.258 1.357.326 1.662.067.305.154.697.194.871.039.174.218.922.393 1.662.178.74.504 2.023.722 2.85.222.827.682 2.482 1.027 3.681.341 1.195.77 2.605.949 3.127.182.522.416 1.179.528 1.464.107.282.36.907.559 1.386a59 59 0 0 0 1.142 2.612c.119.261.203.511.187.554s-.131.123-.25.174a3 3 0 0 1-.46.143 1 1 0 0 1-.476-.044c-.131-.051-.437-.265-.675-.479-.274-.245-.539-.411-.714-.443-.155-.028-.635-.008-1.071.048a23 23 0 0 0-1.548.249c-.416.087-1.004.214-1.309.285-.306.071-1.218.304-2.024.514-.809.214-2.166.602-3.015.859-.853.257-2.047.63-2.658.832s-1.417.474-1.786.605c-.373.13-.817.289-.992.356-.174.072-.444.17-.595.226a37 37 0 0 0-1.19.483c-.504.206-1.254.59-1.667.851-.417.257-1.273.779-1.904 1.16-.635.379-1.722.969-2.421 1.313-.698.345-1.503.729-1.785.851-.286.123-.694.309-.913.408a24 24 0 0 1-.833.353c-.242.094-.543.221-.674.277-.131.059-.516.213-.853.352l-1.21.482-1.211.484c-.337.134-.865.348-1.17.466-.306.123-1.377.57-2.381.994-1.004.423-2.325 1.025-2.936 1.338-.611.317-1.238.645-1.389.728-.154.087-.547.305-.872.479-.33.178-.973.515-1.429.752-.46.234-1.226.59-1.706.791a23 23 0 0 1-1.309.5c-.242.07-.461.102-.492.067-.032-.036-.167-.388-.302-.78a47 47 0 0 0-.452-1.227 59 59 0 0 0-.722-1.742 67 67 0 0 0-1.377-2.928 85 85 0 0 0-1.143-2.217c-.158-.285-.615-1.069-1.011-1.741-.631-1.065-.822-1.318-1.445-1.912-.432-.416-.789-.835-.904-1.069a3.7 3.7 0 0 1-.274-.898 2.7 2.7 0 0 1 .012-1.049c.051-.293.17-.756.262-1.029.087-.274.381-1.014.65-1.643.266-.633.81-1.789 1.21-2.573.401-.783.881-1.71 1.068-2.058.19-.348.662-1.167 1.051-1.821s.945-1.528 1.234-1.939c.286-.415.758-.978 1.044-1.255.285-.277 1.019-.835 1.63-1.239.611-.403 1.306-.839 1.548-.969l1.071-.586c.349-.19 1.151-.602 1.786-.91.63-.313 1.38-.673 1.666-.804.282-.127.96-.42 1.508-.645.543-.23 1.127-.463 1.289-.526.163-.06.449-.171.635-.238l.615-.233c.151-.06.599-.218.992-.357.393-.135 1.016-.356 1.389-.487.369-.13 1.174-.415 1.785-.637a52 52 0 0 0 2.301-.91 40 40 0 0 0 2.262-1.061c.587-.309 1.48-.827 1.984-1.159.5-.329 1.234-.852 1.627-1.152a49 49 0 0 0 1.547-1.271c.457-.392 1.547-1.429 2.421-2.304a82 82 0 0 0 2.816-2.968c.679-.764 1.425-1.619 1.663-1.9.238-.285.484-.558.551-.613m-33.594 51.719c.262-.162.492-.249.559-.218.064.028.151.159.195.29.043.13.079.371.075.534a.75.75 0 0 1-.218.542c-.119.138-.536.4-.933.586-.392.186-.821.447-.952.585-.131.139-.274.25-.317.25-.044 0-.135-.119-.318-.519l-.654.02c-.361.012-.671-.007-.691-.039-.016-.032-.008-.099.02-.147.032-.047.278-.214.552-.376.273-.158.512-.289.535-.289.02 0 .397-.213.834-.475.436-.261.809-.475.833-.475.02 0 .238-.122.48-.269m-18.672-82.861c-.099.028-.286.15-.417.269s-.238.281-.238.356a.35.35 0 0 0 .068.218c.039.043.186.293.329.554s.377.653.52.871.396.534.567.7c.167.167.444.377.619.468.206.106.48.166.786.17.258.003.484-.028.5-.072.019-.043-.437-.506-1.008-1.029-.587-.538-1.036-1.009-1.036-1.088.004-.079.08-.155.183-.174.099-.02.301-.008.456.031.151.036.365.099.476.143.107.043.393.202.635.352.238.155.667.467.952.701.282.229 1.087.961 1.786 1.618.698.661 1.476 1.366 1.726 1.568.333.273.515.368.674.352.187-.016.222-.059.242-.297.016-.209-.047-.38-.27-.712-.162-.242-.547-.685-.857-.994a20 20 0 0 0-1.317-1.155 25.102 25.102 0 0 0-2.579-1.809 25 25 0 0 0-.992-.57 7 7 0 0 0-.893-.384c-.25-.087-.519-.151-.595-.146a1.7 1.7 0 0 0-.317.059m73.7 10.117a13 13 0 0 0-.873.158c-.329.071-.952.253-1.388.404-.437.15-1.187.459-1.667.684s-1.214.602-1.627.836c-.417.229-1.167.688-1.666 1.017-.504.328-1.298.886-1.77 1.238-.782.586-.853.658-.853.895.004.222.04.269.262.337.143.043.488.213.773.379.282.167.758.4 1.052.515.294.119.686.214.873.214.186.003.496-.052.695-.123.193-.067.622-.281.951-.479.326-.198.77-.471.981-.609.325-.214.396-.234.456-.135.043.063.059.19.039.277a9 9 0 0 1-.202.633c-.091.262-.162.555-.162.654 0 .11.067.205.178.253.099.039.25.055.337.035.135-.031.167-.122.206-.649.029-.38.12-.776.235-1.045.107-.241.512-.862.904-1.385.389-.523.754-1.077.81-1.227.055-.154.103-.562.103-.91.004-.348.032-.673.063-.721.032-.047.167-.142.298-.21.131-.063.468-.158.754-.205a7 7 0 0 1 1.031-.091c.282 0 .639.035.794.079.151.039.412.182.575.316.179.143.393.44.536.733.127.273.29.708.357.97.067.261.158.724.202 1.028s.131 1.318.199 2.257c.063.934.17 2.022.238 2.414s.186.835.258.99c.075.15.186.288.254.301.095.019.151-.163.261-.832.076-.471.175-1.159.219-1.528.043-.371.079-1.171.079-1.781.004-.609-.016-1.306-.047-1.544-.028-.241-.123-.72-.211-1.068a6.4 6.4 0 0 0-.373-1.069 5 5 0 0 0-.448-.744 3.6 3.6 0 0 0-.591-.566 5 5 0 0 0-.893-.467c-.381-.143-.738-.21-1.23-.233a7.5 7.5 0 0 0-.972.004m-10.13 7.29c-.027.076.008.404.08.733l.246 1.108c.063.281.119.613.119.732.004.178-.092.289-.508.594-.278.205-.79.554-1.131.767-.341.218-.797.574-1.016.8-.218.222-.468.538-.555.696-.127.234-.139.313-.06.388.076.08.318.036 1.151-.197.579-.163 1.587-.44 2.242-.614.654-.178 1.238-.364 1.293-.419.06-.052.139-.222.179-.372a2.8 2.8 0 0 0 .075-.554 3 3 0 0 0-.115-.673c-.063-.218-.325-.772-.579-1.227-.254-.459-.524-1.045-.599-1.307-.076-.261-.183-.502-.235-.534a.8.8 0 0 0-.321-.059c-.135 0-.238.051-.266.138m1.671.238c-.088.019-.143.087-.131.162s.139.384.285.689c.147.305.374.732.504.95.127.217.33.637.449.93.155.395.21.672.21 1.068 0 .293-.052.693-.107.891-.06.194-.159.443-.218.554-.06.107-.179.285-.262.396a2.8 2.8 0 0 1-.476.44c-.179.13-.433.284-.564.344-.131.059-.63.245-1.111.415-.48.174-1.047.412-1.258.527a3.2 3.2 0 0 0-.694.55c-.171.186-.309.372-.309.416s.063.078.138.078 1.814-.415 3.865-.929c2.048-.511 3.777-.974 3.849-1.022.111-.083.107-.118-.044-.317a.88.88 0 0 0-.476-.3c-.242-.056-.468-.036-1.024.103-.393.095-.777.17-.853.17s-.138-.02-.138-.04c0-.023.087-.154.194-.296.103-.143.234-.365.282-.495.051-.131.091-.523.091-.871a5.1 5.1 0 0 0-.163-1.266 11 11 0 0 0-.297-.95 15 15 0 0 0-.365-.792 6 6 0 0 0-.504-.831c-.147-.198-.369-.412-.496-.479-.123-.068-.294-.111-.377-.095m-69.788 4.975c-.068.02-.167.127-.218.233a1 1 0 0 0-.096.372c-.003.099.04.301.088.456.051.15.17.36.262.463.09.103.31.257.484.348.174.087.476.21.674.266.195.059.552.106.794.106.381 0 .5-.044.952-.348.282-.194.706-.538.94-.772.282-.281.413-.471.397-.578-.02-.114-.079-.154-.226-.138-.111.011-.433.024-.714.027-.306.008-.885-.075-1.429-.197-.504-.115-1.11-.226-1.349-.242-.242-.02-.492-.016-.56.004m47.152 32.986c-.186.068-.611.483-1.365 1.326-.603.673-1.678 1.924-2.392 2.779-.711.854-1.599 1.939-1.976 2.414-.373.471-1.111 1.429-1.635 2.126a71 71 0 0 0-1.781 2.493 61 61 0 0 0-1.31 2.019c-.266.435-.579.969-.702 1.187a64 64 0 0 0-.488.891c-.147.273-.258.558-.246.629.016.119.047.111.202-.06.103-.106.536-.656.96-1.222a90 90 0 0 0 1.33-1.821c.305-.436.69-.99.857-1.227l.666-.95c.199-.285.663-.942 1.036-1.465a54 54 0 0 1 1.269-1.701c.326-.416.937-1.144 1.357-1.623a24 24 0 0 1 1.456-1.504c.381-.349.754-.634.83-.634.091 0 .143.075.158.238.016.17-.071.376-.289.712-.175.262-.5.831-.73 1.267s-.5.926-.603 1.089-.187.312-.187.336c0 .02-.162.305-.357.633-.198.325-.357.61-.357.633 0 .02-.155.297-.341.614a39 39 0 0 0-.901 1.682 34 34 0 0 0-.857 1.821 67 67 0 0 0-.405.989l-.361.99a8 8 0 0 1-.591 1.266c-.278.455-.317.558-.206.578.071.016.301-.031.508-.099.273-.091.428-.201.575-.419.111-.162.198-.325.198-.357s.191-.459.429-.95c.234-.49.555-1.167.714-1.504.155-.336.417-.89.575-1.227.159-.336.445-.953.643-1.365.195-.416.476-1.009.623-1.326s.389-.831.54-1.148c.147-.316.408-.878.583-1.246.175-.372.44-.942.595-1.267.155-.329.421-.899.595-1.267.175-.372.441-.942.595-1.266.155-.329.449-.95.651-1.385.203-.436.464-.971.575-1.188.111-.218.179-.439.151-.495-.024-.055-.111-.098-.186-.095-.076 0-.258.048-.405.099" clip-rule="evenodd"/></g><defs><clipPath id="a"><path fill="#fff" d="M93 68h115v166H93z"/></clipPath></defs></svg>