<svg xmlns="http://www.w3.org/2000/svg" width="1323" height="606" fill="none" viewBox="0 0 1323 606"><g clip-path="url(#a)"><path fill="#b8926a" d="M1323 413.608v5.841l-207.63.046c-22.78 13.365-48.48 16.093-73.26 7.092-1.69-6.365 4.61-11.888 11.47-12.07l59.82-1.591c.36-20.367 10.88-37.847 13.49-55.509 3.14-21.298-5-47.757 13.45-65.055 2.71-2.546 10.11-5.864 13.59-5.683 15.76.887.07 48.553-17.11 77.989 23.06-17.502 40.48-75.875 24.76-82.58-4.04-1.728-14.42-1.137-17.92 1.591l-16.84 13.093 11.2-51.303c-19.06 8.274-31.67 13.502-50.04 13.479l-29.56-.046-53.64-5.978c-1.18 8.547-1.16 20.731-.16 30.959l3.2 32.869c3.21 32.823 8.93 63.532 21.2 94.014 2 5.001 2 12.07-.5 17.48l-74.472-1.068c-20.583-.296-36.69-8.161-51.026-23.072l-6.316 24.254-91.374.545-41.802 1.932c-4.635 44.28-48.164 58.532-93.215 60.691-82.151 3.955-133.109-50.325-165.483 7.32l42.211-15.571c73.268 5.569 144.264 16.252 214.556 35.778 12.904 3.592 25.853 6.569 33.6 20.844l-186.815-31.732c-17.244-2.932-35.192-5.819-52.503-5.478-13.427.273-55.07 21.867-58.092 25.413-1.499 1.75-.273 7.183.818 11.002 65.134 16.388 128.633 29.959 195.153 42.983 41.894-3.273 77.676-17.775 111.072-43.165l-2.363 28.845c-33.305 12.752-67.179 40.711-105.732 37.983-56.797-4.001-111.413-22.003-166.915-33.869l-85.535-18.298c-5.067-23.276 16.493-37.233 42.779-44.552.772-19.276 12.518-34.937 29.33-43.711 17.993-9.411 35.804-9.524 55.274-3.001 42.848 14.389 88.558 21.822 132.586 11.979 23.355-5.228 43.802-19.23 47.096-43.188l-64.884 1.569-164.642 2.773c-43.37.727-128.225 8.183-137.789-7.661-3.317-5.5-3.454-14.047-2.863-24.867l-60.25 11.615c-14.722 2.842-29.67 12.139-45.687 12.661l-57.297 1.864c-2.317.069-7.679 1.91-9.655 3.16-1.977 1.25-3.044 8.092-2.59 10.433 7.043 36.301-30.125 42.893-69.315 54.372-39.916 11.706-78.652 22.413-117.024 38.665L0 545.923v-5.115c13.95-8.274 29.125-16.343 46.71-21.798l134.131-41.575c31.352-9.729 15.199-44.325 23.65-49.484 2.544-1.546 9.065-2.887 12.541-3.069l27.33-1.387c21.787-1.113 41.507-2.477 61.931-8.887l-67.156-2.114c-12.291-.387-28.626-7.706-34.851-17.48-14.63-22.913 15.813-56.1-13.472-53.986l-40.848 2.933c-24.309 1.75-47.459 3.864-74.972-6.956 17.925-17.343 39.417-17.684 62.204-22.276 19.152-3.841 40.417 2.478 58.842 6.501 22.764-25.822 58.409-8.001 107.868-27.072 10.223-3.933 19.879 3.364 23.264 13.479 6.747-7.592 18.856-10.001 27.876-15.661 26.24-16.48 44.119-41.507 64.203-66.419l-81.015-34.824c-.705-3.932 5.475-13.002 9.337-14.093 29.58 14.843 56.865 26.163 86.786 37.688 6.974-10.366 14.539-22.686 25.422-25.572 16.971-4.524 34.101 6.046 49.299 13.661 3.022-8.456 8.361-14.912 15.608-16.071 8.451-1.364 18.834 3.751 18.061 12.547-2.953 33.756 21.924 25.959 12.7 46.644 21.106 5.342 34.192 22.48 28.921 43.256l43.529 32.005c-19.334 11.047-34.896 1.318-47.618-10.274l-12.382 12.684c-14.086 14.434-37.577 25.549-56.592 10.478l46.846-13.183c1.908-.546 5.884-4.387 7.088-5.569 6.679-6.592-33.851-11.525-56.093 19.775-29.602 41.688-68.269 71.897-121.181 70.42-2.726 3.887-3.044 14.866-.341 18.707 2.317 3.319 10.428 7.683 14.835 7.615l128.111-1.773 170.481-2.591 49.254-2.41c-1.635-2.932-8.61-8.342-12.109-8.296l-172.207 1.636c-35.555.341-103.87 6.16-108.3-4.364-4.726-11.184 20.833-33.619 37.122-49.007l34.01-3.615 44.438-2.318c48.322-2.523 95.736-2.91 143.945.5 50.89 3.614 98.599 17.253 148.512 26.413 12.859 2.364 23.151 11.911 33.897 20.435 3.226-31.846-77.835-40.188-118.683-47.007l-61.499-10.274 7.542-31.846c27.49-79.171 58.137-155.433 89.625-232.99 5.975-14.706 12.927-23.935 29.126-27.936L1071.5 0c-20.85 63.191-42.87 118.881-67.24 176.958l-58.14 138.589-38.1 83.672c16.017 26.254 51.731 22.14 85.832 24.004 11.498.636 23.288 2.227 33.468-1.933-22.38-56.031-29.97-118.472-27.675-174.48l38.435 5.069c24.79 3.273 48.28 5.114 73.48-2.432l-74.27-1.023-28.35-5.433c-2.37-.455-6.52-5.251-6.91-7.478-.39-2.228 4.27-7.206 6.5-7.615l28.83-5.342c36.37-.773 85.83-4.478 98.48 12.843 5.02 6.887 6.61 19.389 4.64 26.959l-4.98 19.093c11.25-5.637 19.86-7.614 28.06-3.864 22.51 10.252 1.95 64.601-20.54 90.832l-11.74-.568c-2.43-.114-5.16 7.546-5.68 9.956l-8 35.891 205.45-.136zm-563.174-63.283c49.436 9.115 110.663 10.002 145.491 42.825C962.818 264.812 1017.09 138.498 1064.44 6.456L858.903 57.418c-11.632 3.614-21.197 7.274-31.261 13.66l-83.037 210.896-19.788 61.873 35.032 6.456zM502.81 334.209c14.608-20.389 37.736-34.209 62.522-27.868 2.544 2.41 7.679 5.956 8.678 3.842 16.017-34.096-57.637-23.367-66.656-57.418 5.498-.977 17.72-.318 23.105 2.887l48.686 28.959c4.498-26.663-19.379-33.892-47.028-41.506-29.512-8.138-26.263-26.777-50.572-38.097l17.539-1.25c-9.701-4.546-25.967-15.434-39.212-9.206-9.747 4.591-17.062 16.343-25.014 25.845l-91.556-36.619c19.765 17.161 80.424 30.754 79.379 42.87-.886 10.115-39.758 51.053-59.455 67.692l-30.965 15.047 48.345 2.887c16.153-29.845 37.781-55.554 61.113-80.353 21.447-22.799 41.871-25.004 43.847-17.275l3.34 13.025c.659 2.545 7.066 6.182 6.884 8.842l-.659 9.819 12.086 15.98 8.065 12.184c1.954 2.955-2.34 10.683-4.793 15.479-1.999 3.887-.886 12.32-.909 18.912-.182 37.188-78.129 68.942-117.228 88.491 43.96 7.705 85.717-28.55 110.481-63.101zm19.697-110.926c9.042 8.32 18.607 15.798 31.443 12.866-15.631-9.888-18.448-23.14-16.04-37.392.182-3.887-8.883-9.001-12.404-7.569-3.09 1.25-9.974 7.887-8.86 9.365l16.789 14.934c-10.86-1.296-16.994-3.91-27.672-7.638l16.789 15.434zm-18.402 85.513c-1.272-12.933-.159-18.684 6.429-31.573l-14.449-20.889c-.977-1.432-8.179-2.091-7.86-3.796l1.544-8.297c.364-1.977 1.341-8.956-.59-8.842l-9.656.591 3.158-20.003c-14.403-.318-23.4 5.978-32.692 15.502-25.581 26.141-49.868 53.917-66.657 87.354-16.811-2.25-35.804-2.705-51.639-2.205l6.02 42.029c2.249 15.73-5.27 34.165-10.428 49.212l57.002-11.001 31.828-17.071c28.49-15.275 90.762-42.938 87.99-70.988zm628.445-67.055c-6.41-10.388-15.99-13.184-24.51-13.229l-73.52-.387c-8.02-.045-17.79 3.114-27.56 7.001 8.25 4.546 18.38 8.024 27.72 7.91l97.89-1.295zm22.63 52.803c-16.41-8.046-29.61 32.187-20.61 59.714 12.52-17.571 19.9-37.915 20.61-59.714m-539.776 24.072c-11.814-10.274-22.833-18.139-34.305-23.344 1.953 19.48 19.038 25.299 34.305 23.344m-420.523 16.889c3.453-.205 10.882 2.523 12.631 5.114 7.543 11.207-6.997 30.073-.204 48.553 3.794 10.297 20.151 18.003 31.306 18.048l81.083.205c18.925-28.254 13.586-68.056 1.636-100.561-6.407-17.434-26.308-.227-56.32 1.796l-35.214 2.387c-14.358.977-25.603 5.25-30.715 20.298-31.443-19.912-75.358-12.547-113.684 2.751 24.127 9.842 46.437 5.159 70.496 3.705l38.985-2.319zm562.787 89.104c.159-7.887-2.249-14.002.023-14.093l9.564-.409 35.192-1.478 87.489-2.704c-12.836-12.957-26.989-16.889-43.074-19.299-41.553-6.228-81.719-18.707-124.067-21.526-55.933-3.705-110.64-1.091-166.937-.977l-27.081 2.5c-8.769.818-25.626.523-32.215 4.819-15.721 10.797-27.126 23.89-35.895 41.643 52.366.568 99.871-.319 149.557-.955l122.067-1.546c11.723-.159 19.47 4.887 25.354 14.071zm51.14-.955c25.854-1.318 53.275-1.318 77.493.228 2.227.136 8.474-1.41 8.134-3.273l-1.704-9.138-69.474 2.159-60.023.75 1.204 11.525zm293.232-3.205-47.51-1.272c-1-.023-6.04 5.159-5.04 5.273l5.93.75c16.7 2.114 32.9.477 46.62-4.751M502.855 546.15c-5.588-1.205-12.063-8.933-11.768-13.343 1.022-15.479 56.206-36.733 67.134-35.869l23.923 1.864 194.54 32.528c-26.672-12.411-54.684-17.526-84.105-22.731-47.527-8.41-94.169-17.73-142.991-18.548-18.652-.318-33.715 15.002-52.935 17.798l5.498-20.276c-7.588 3.342-8.883 16.253-8.156 24.481-23.15 7.274-45.755 15.275-44.96 36.869l142.287 32.005 105.415 22.344c32.964-6.933 61.567-18.593 90.715-34.255 7.202-2.818 12.337-8.956 11.496-18.798-31.397 20.139-64.18 34.164-102.166 37.915l-193.904-41.938z"/></g><defs><clipPath id="a"><path fill="#fff" d="M0 0h1323v606H0z"/></clipPath></defs></svg>