<svg xmlns="http://www.w3.org/2000/svg" width="1280" height="720" fill="none"><g clip-path="url(#a)"><path fill="#fffff6" d="M0 0h1280v720H0z"/><path fill="#003837" d="M110.32 358.28c-12.24 0-18-9.2-18-21.36 0-19.6 14.8-45.12 34.4-45.12 5.44 0 8.8 1.84 11.44 5.2.96 1.36 1.52 1.36 2.24-.24l1.76-4.24 1.84.24-6.4 22.32h-1.92c1.52-11.36.32-19.68-8.24-19.68-15.04 0-25.44 25.44-25.44 41.2 0 10.48 4.4 16.24 11.76 16.24 9.36 0 16.48-9.12 21.36-19.92h2.32c-6.16 14.24-13.44 25.36-27.12 25.36m34.648-1.28h-7.841l18.241-56.08c1.44-4.48.72-6.08-4.88-6.08l.48-1.84c7.68 0 12.96-.72 14.24-2.32l.96.56-15.92 47.92h.8c8.16-17.68 14.56-25.68 20.96-25.68 3.76 0 5.76 2.4 5.76 5.84 0 5.84-5.84 17.36-9.76 26.56-.72 1.84-1.84 4.56-1.84 5.68 0 1.2.32 1.84 1.44 1.84 2.96 0 6.56-5.04 9.2-10.88h1.84c-2.88 7.12-8.08 15.2-14.64 15.2-4.24 0-5.68-2.24-5.68-5.12 0-1.84 1.04-3.68 2.4-7.04 4.24-10.72 8.72-20.64 8.72-23.84 0-1.76-.56-2.56-1.68-2.56-3.12 0-11.2 7.84-22.8 37.84m57.538-51.52c-3.04 0-5.12-2-5.12-4.96 0-3.04 2.08-4.96 5.12-4.96s5.12 1.92 5.12 4.96c0 2.96-2.08 4.96-5.12 4.96m-17.12 40.16 6.88-19.36c.96-2.64 2.08-5.92 2.08-7.04 0-1.04-.4-1.36-1.04-1.36-2.4 0-5.92 4.24-8.96 9.28h-1.92c3.68-7.12 9.68-13.52 15.52-13.52 2.88 0 4.24 2.08 4.24 4.4 0 2.08-1.04 4.88-2.32 8.4l-6.96 19.44c-.64 1.76-1.68 4.56-1.68 5.68 0 1.2.32 1.84 1.44 1.84 2.96 0 6.56-5.04 9.2-10.88h1.84c-2.88 7.12-8.08 15.2-14.64 15.2-4.24 0-5.68-2.24-5.68-5.12 0-1.84.88-3.76 2-6.96m55.798-29.52c0 7.36-19.76 19.92-30 30.56.8-.32 1.6-.4 2.4-.4 6.72 0 10.32 7.04 14.64 7.04 2.72 0 3.92-2.88 3.92-6.32 0-1.84-.32-3.84-.88-5.6l1.92-.56c.64 2 1.04 4 1.04 6.24 0 8.24-3.28 13.6-8.08 13.6-6.64 0-9.68-10.4-16.4-10.4-1.76 0-3.12.88-3.12 2.48 0 1.04.8 1.84.8 2.88 0 1.2-1.12 2.08-2.24 2.08-1.28 0-2.16-1.12-2.16-2.72 0-8.32 19.04-21.04 29.52-31.04-.96.48-2 .8-3.2.8-4.16 0-7.44-4.08-10.96-4.08-2.56 0-4.4 2.64-5.36 6.32l-1.76-.16c2.72-10.72 6.24-13.12 9.28-13.12 5.12 0 8.08 6.32 14 6.32 2.32 0 3.36-.96 3.36-2.24 0-.96-.96-1.52-.96-2.4s.72-1.6 2-1.6c1.44 0 2.24 1.04 2.24 2.32m6.799 40.88h-7.84l10.56-30.72c.96-2.64 2.08-5.92 2.08-7.04 0-1.04-.4-1.36-1.04-1.36-2.4 0-5.92 4.24-8.96 9.28h-1.92c3.68-7.12 9.68-13.52 15.52-13.52 2.88 0 4.24 2.08 4.24 4.4 0 2.08-1.2 4.88-2.56 8.32l-4.72 12.8h.72c8.32-17.68 13.92-25.68 20.32-25.68 3.12 0 4.88 2.56 4.88 5.44 0 4.72-3.44 11.44-7.2 20.24h.72c8.24-17.76 14.56-25.68 21.04-25.68 3.76 0 5.68 2.4 5.68 5.84 0 5.84-5.84 17.36-9.76 26.56-.64 1.84-1.84 4.56-1.84 5.68 0 1.2.4 1.84 1.44 1.84 2.96 0 6.56-5.04 9.2-10.88h1.92c-2.96 7.12-8.16 15.2-14.64 15.2-4.24 0-5.68-2.24-5.68-5.12 0-1.84 1.04-3.68 2.32-7.04 4.32-10.72 8.72-20.64 8.72-23.84 0-1.76-.56-2.56-1.68-2.56-2.4 0-7.84 4.64-15.2 20.08-2.32 4.72-4.8 10.64-7.52 17.76h-7.84l6.48-16.56c2.96-7.52 6.4-15.76 6.4-18.72 0-1.76-.56-2.56-1.76-2.56-3.12 0-10.56 7.84-22.08 37.84m84.96-3.6c2.96 0 6.48-5.04 9.2-10.88h1.84c-2.88 7.12-8.16 15.2-14.64 15.2-4.24 0-5.68-2.24-5.68-5.12 0-1.84.96-3.76 2.16-6.96l3.12-8.8h-.72c-3.84 8.32-11.2 21.04-18.32 21.04-5.04 0-7.28-4.32-7.28-10.48 0-14.24 12.88-33.92 24-33.92 5.36 0 7.52 3.92 7.2 9.04h.24l2.32-6.4c3.2 0 5.76-1.44 7.12-3.12l1.28.72-11.52 32.16c-.64 1.84-1.76 4.56-1.76 5.68 0 1.2.32 1.84 1.44 1.84m-19.76-1.36c4.72 0 13.2-12.48 16.24-21.28.88-2.56 1.52-5.12 1.52-7.76 0-3.44-.96-5.44-3.6-5.44-7.12 0-16.8 17.52-16.8 28.88 0 3.6.72 5.6 2.64 5.6m43.675 6.08c-6.16 0-10-4.96-10-13.04 0-14.24 11.12-31.76 22.8-31.76 4.24 0 7.44 2.72 7.44 7.44 0 4.48-2.64 9.12-5.84 9.12-1.76 0-2.88-1.36-2.88-2.96 0-3.28 4.32-3.44 4.32-7.6 0-1.52-.8-2.88-3.12-2.88-7.68 0-14.64 16.08-14.64 27.2 0 5.28 1.44 9.28 5.2 9.28 4.4 0 8.88-4.96 12.48-12.08h1.76c-4.4 10.88-10.64 17.28-17.52 17.28M382.78 357h-7.84l18.24-56.08c1.44-4.48.72-6.08-4.88-6.08l.48-1.84c7.68 0 12.96-.72 14.24-2.32l.96.56-15.92 47.92h.8c8.16-17.68 14.56-25.68 20.96-25.68 3.76 0 5.76 2.4 5.76 5.84 0 5.84-5.84 17.36-9.76 26.56-.72 1.84-1.84 4.56-1.84 5.68 0 1.2.32 1.84 1.44 1.84 2.96 0 6.56-5.04 9.2-10.88h1.84c-2.88 7.12-8.08 15.2-14.64 15.2-4.24 0-5.68-2.24-5.68-5.12 0-1.84 1.04-3.68 2.4-7.04 4.24-10.72 8.72-20.64 8.72-23.84 0-1.76-.56-2.56-1.68-2.56-3.12 0-11.2 7.84-22.8 37.84m57.538-51.52c-3.04 0-5.12-2-5.12-4.96 0-3.04 2.08-4.96 5.12-4.96s5.12 1.92 5.12 4.96c0 2.96-2.08 4.96-5.12 4.96m-17.12 40.16 6.88-19.36c.96-2.64 2.08-5.92 2.08-7.04 0-1.04-.4-1.36-1.04-1.36-2.4 0-5.92 4.24-8.96 9.28h-1.92c3.68-7.12 9.68-13.52 15.52-13.52 2.88 0 4.24 2.08 4.24 4.4 0 2.08-1.04 4.88-2.32 8.4l-6.96 19.44c-.64 1.76-1.68 4.56-1.68 5.68 0 1.2.32 1.84 1.44 1.84 2.96 0 6.56-5.04 9.2-10.88h1.84c-2.88 7.12-8.08 15.2-14.64 15.2-4.24 0-5.68-2.24-5.68-5.12 0-1.84.88-3.76 2-6.96m46.377-54.96.96.56-17.68 54.56c-.64 1.84-1.52 4.64-1.52 5.76 0 1.2.32 1.84 1.44 1.84 2.96 0 6.48-5.04 9.2-10.88h1.84c-2.88 7.12-8.16 15.2-14.64 15.2-4.24 0-5.68-2.24-5.68-5.12 0-1.84.64-3.84 1.76-7.04l14.4-44.64c1.52-4.48.8-6.08-4.8-6.08l.48-1.84c9.28 0 12.48-.72 14.24-2.32m17.931 14.8c-3.04 0-5.12-2-5.12-4.96 0-3.04 2.08-4.96 5.12-4.96s5.12 1.92 5.12 4.96c0 2.96-2.08 4.96-5.12 4.96m-17.12 40.16 6.88-19.36c.96-2.64 2.08-5.92 2.08-7.04 0-1.04-.4-1.36-1.04-1.36-2.4 0-5.92 4.24-8.96 9.28h-1.92c3.68-7.12 9.68-13.52 15.52-13.52 2.88 0 4.24 2.08 4.24 4.4 0 2.08-1.04 4.88-2.32 8.4l-6.96 19.44c-.64 1.76-1.68 4.56-1.68 5.68 0 1.2.32 1.84 1.44 1.84 2.96 0 6.56-5.04 9.2-10.88h1.84c-2.88 7.12-8.08 15.2-14.64 15.2-4.24 0-5.68-2.24-5.68-5.12 0-1.84.88-3.76 2-6.96m49.897 6.88c2.72 0 5.68-3.92 8.4-9.52h1.84c-3.52 7.68-7.92 14.72-14.4 14.72-5.441 0-7.2-5.44-7.6-14-.16-2.16-.24-4.64-.08-7.04 11.52-2.8 15.52-11.04 15.52-14.72 0-1.92-.88-2.64-2.08-2.64-3.36 0-14.08 7.52-25.12 37.68h-7.761l18.241-56.08c1.44-4.48.72-6.08-4.88-6.08l.48-1.84c7.92 0 12.72-.56 14.24-2.32l1.04.56-15.84 47.92h.56c8-17.84 16.88-25.52 23.12-25.52 3.92 0 5.76 2.72 5.76 5.6 0 5.04-5.52 13.84-15.84 16.96 0 2.24.4 5.36.64 7.84.56 5.52 1.36 8.48 3.76 8.48m32.014 5.261q-5.196 0-9.102-2.578-3.867-2.618-6.015-7.344-2.15-4.766-2.149-11.171v-.04q0-6.405 2.149-11.132 2.187-4.727 6.054-7.305 3.867-2.617 8.946-2.617 2.89 0 5.351.937a13.7 13.7 0 0 1 4.453 2.617 13.9 13.9 0 0 1 3.204 4.024h.156v-22.539h6.797V357h-6.797v-6.875h-.156a14.5 14.5 0 0 1-3.165 4.102 14.3 14.3 0 0 1-4.375 2.617q-2.421.937-5.351.937m1.328-6.015q3.438 0 6.094-1.875t4.14-5.274q1.524-3.398 1.524-7.929v-.04q0-4.53-1.524-7.89-1.522-3.399-4.179-5.274-2.617-1.875-6.055-1.875-3.594 0-6.211 1.836t-4.023 5.196q-1.407 3.358-1.407 8.007v.04q0 4.648 1.407 8.046 1.405 3.399 4.023 5.235 2.617 1.797 6.211 1.797m39.57 6.015q-4.023 0-7.07-1.523-3.047-1.524-4.766-4.297-1.679-2.773-1.679-6.445v-.078q0-3.477 1.718-6.016 1.758-2.54 5.04-4.024 3.32-1.484 7.968-1.757l15.039-.86v5.274l-14.257.859q-4.063.234-6.329 1.953-2.226 1.719-2.226 4.571v.078q0 2.93 2.187 4.648 2.227 1.719 5.899 1.719 3.202 0 5.742-1.328 2.578-1.368 4.062-3.711 1.524-2.344 1.524-5.274v-11.992q0-3.711-2.344-5.82-2.304-2.149-6.562-2.149-3.907 0-6.329 1.719-2.382 1.68-2.968 4.414l-.078.352h-6.563l.039-.43q.313-3.36 2.266-6.094 1.992-2.734 5.469-4.336 3.476-1.64 8.242-1.64 4.804 0 8.281 1.64 3.516 1.641 5.43 4.649 1.914 2.969 1.914 7.031V357h-6.797v-6.602h-.156a13.3 13.3 0 0 1-3.125 3.907 15.3 15.3 0 0 1-4.414 2.578q-2.423.898-5.157.898m28.282-.781v-40.625h6.796v5.781h.157q1.64-2.851 4.765-4.687 3.126-1.875 7.735-1.875 6.68 0 10.351 4.062 3.711 4.024 3.711 10.977V357h-6.797v-25.156q0-4.962-2.343-7.578-2.306-2.657-6.993-2.657-3.202 0-5.586 1.446-2.382 1.406-3.711 3.984-1.289 2.578-1.289 6.055V357zm58.593 0v-40.625h6.797v6.875h.156q1.016-3.516 3.516-5.586t5.938-2.07q.898 0 1.601.117.743.078 1.133.156v6.602q-.39-.156-1.406-.274a19 19 0 0 0-2.227-.117q-2.617 0-4.609 1.172-1.953 1.172-3.047 3.398-1.055 2.188-1.055 5.274V357zm35.782.781q-4.024 0-7.071-1.523-3.047-1.524-4.765-4.297-1.68-2.773-1.68-6.445v-.078q0-3.477 1.719-6.016 1.758-2.54 5.039-4.024 3.32-1.484 7.968-1.757l15.04-.86v5.274l-14.258.859q-4.063.234-6.328 1.953-2.227 1.719-2.227 4.571v.078q0 2.93 2.188 4.648 2.226 1.719 5.898 1.719 3.202 0 5.742-1.328 2.578-1.368 4.063-3.711 1.523-2.344 1.523-5.274v-11.992q0-3.711-2.344-5.82-2.305-2.149-6.562-2.149-3.907 0-6.328 1.719-2.383 1.68-2.969 4.414l-.078.352h-6.563l.039-.43q.313-3.36 2.266-6.094 1.992-2.734 5.469-4.336 3.477-1.64 8.242-1.64 4.805 0 8.281 1.64 3.516 1.641 5.43 4.649 1.914 2.969 1.914 7.031V357h-6.797v-6.602h-.156a13.3 13.3 0 0 1-3.125 3.907 15.3 15.3 0 0 1-4.414 2.578q-2.423.898-5.156.898m56.601 12.891v-20.274h-.156a13.6 13.6 0 0 1-3.125 3.868q-1.915 1.64-4.414 2.539-2.462.898-5.391.898-5.117 0-9.023-2.578-3.868-2.618-6.055-7.344-2.148-4.766-2.148-11.133v-.039q0-6.366 2.187-11.054 2.226-4.688 6.133-7.266 3.906-2.617 9.062-2.617 2.891 0 5.313.976a13.5 13.5 0 0 1 4.297 2.657 14.6 14.6 0 0 1 3.164 3.945h.156v-6.875h6.797v54.297zm-11.601-18.984q3.476 0 6.054-1.836 2.617-1.875 4.063-5.274 1.484-3.399 1.484-7.93v-.039q0-4.53-1.484-7.851-1.446-3.36-4.063-5.196-2.618-1.875-6.054-1.874-3.594 0-6.25 1.835-2.656 1.836-4.102 5.196-1.406 3.32-1.406 7.89v.039q0 4.649 1.406 8.047 1.446 3.36 4.102 5.196 2.656 1.797 6.25 1.797m39.062 6.093q-4.023 0-7.07-1.523-3.048-1.524-4.766-4.297-1.68-2.773-1.68-6.445v-.078q0-3.477 1.719-6.016 1.758-2.54 5.039-4.024 3.32-1.484 7.969-1.757l15.039-.86v5.274l-14.258.859q-4.062.234-6.328 1.953-2.226 1.719-2.226 4.571v.078q0 2.93 2.187 4.648 2.226 1.719 5.899 1.719 3.202 0 5.742-1.328 2.578-1.368 4.062-3.711 1.524-2.344 1.524-5.274v-11.992q0-3.711-2.344-5.82-2.305-2.149-6.563-2.149-3.906 0-6.328 1.719-2.382 1.68-2.969 4.414l-.078.352h-6.562l.039-.43q.312-3.36 2.266-6.094 1.992-2.734 5.468-4.336 3.476-1.64 8.243-1.64 4.804 0 8.281 1.64 3.515 1.641 5.429 4.649 1.914 2.969 1.914 7.031V357h-6.796v-6.602h-.157a13.3 13.3 0 0 1-3.125 3.907 15.3 15.3 0 0 1-4.414 2.578q-2.421.898-5.156.898m28.281-.781v-40.625h6.797v5.937h.156q1.368-3.007 4.297-4.843 2.93-1.875 6.836-1.875 2.774 0 5 .937a10.64 10.64 0 0 1 3.907 2.657q1.64 1.718 2.5 4.218h.156q1.133-2.46 3.008-4.179a13.5 13.5 0 0 1 4.375-2.696q2.5-.937 5.351-.937 4.023 0 6.992 1.679 2.969 1.641 4.61 4.649 1.64 2.969 1.64 7.031V357h-6.797v-26.484q0-2.813-1.015-4.805-.977-1.992-2.852-3.047t-4.57-1.055-4.766 1.25q-2.07 1.211-3.242 3.399-1.172 2.148-1.172 4.922V357h-6.797v-27.227q0-2.46-1.054-4.296a7.1 7.1 0 0 0-2.891-2.852q-1.836-1.016-4.375-1.016-2.695 0-4.805 1.329-2.07 1.289-3.281 3.515-1.21 2.227-1.211 5.078V357zm64.649 0v-56.367h6.797V357zm16.406 0v-40.625h6.797V357zm3.398-47.5q-1.757 0-3.007-1.25t-1.25-3.008q0-1.796 1.25-3.008 1.25-1.25 3.007-1.25 1.797 0 3.008 1.25 1.25 1.212 1.25 3.008 0 1.758-1.25 3.008-1.21 1.25-3.008 1.25m-804.96 128.281q-5.196 0-9.102-2.578-3.867-2.618-6.016-7.344-2.148-4.766-2.148-11.171v-.04q0-6.405 2.148-11.132 2.188-4.727 6.055-7.305 3.867-2.617 8.945-2.617 2.89 0 5.352.937a13.7 13.7 0 0 1 4.453 2.617 13.8 13.8 0 0 1 3.203 4.024h.156v-22.539h6.797V437h-6.797v-6.875h-.156a14.5 14.5 0 0 1-3.164 4.102 14.3 14.3 0 0 1-4.375 2.617q-2.422.937-5.351.937m1.328-6.015q3.437 0 6.093-1.875t4.141-5.274q1.523-3.398 1.523-7.929v-.04q0-4.53-1.523-7.89-1.524-3.399-4.18-5.274-2.617-1.875-6.054-1.875-3.594 0-6.211 1.836t-4.024 5.196q-1.406 3.358-1.406 8.007v.04q0 4.648 1.406 8.046 1.407 3.399 4.024 5.235 2.617 1.797 6.211 1.797M137.141 437v-40.625h6.797V437zm3.398-47.5q-1.757 0-3.008-1.25-1.25-1.25-1.25-3.008 0-1.796 1.25-3.008 1.25-1.25 3.008-1.25 1.797 0 3.008 1.25 1.25 1.212 1.25 3.008 0 1.758-1.25 3.008-1.21 1.25-3.008 1.25m11.797 47.5v-4.844l22.461-30.039V402h-22.422v-5.625h30.156v4.961l-22.304 29.922v.117h22.421V437zm50.156.781q-4.023 0-7.07-1.523-3.047-1.524-4.766-4.297-1.68-2.773-1.679-6.445v-.078q0-3.477 1.718-6.016 1.758-2.54 5.039-4.024 3.32-1.484 7.969-1.757l15.039-.86v5.274l-14.258.859q-4.062.234-6.328 1.953-2.226 1.719-2.226 4.571v.078q0 2.93 2.187 4.648 2.227 1.719 5.899 1.719 3.203 0 5.742-1.328 2.578-1.368 4.062-3.711 1.524-2.344 1.524-5.274v-11.992q0-3.711-2.344-5.82-2.304-2.149-6.562-2.149-3.907 0-6.329 1.719-2.382 1.68-2.968 4.414l-.079.352H190.5l.039-.43q.313-3.36 2.266-6.094 1.992-2.734 5.468-4.336 3.477-1.64 8.243-1.64 4.804 0 8.281 1.64 3.516 1.641 5.43 4.649 1.914 2.969 1.914 7.031V437h-6.797v-6.602h-.156a13.3 13.3 0 0 1-3.126 3.907 15.3 15.3 0 0 1-4.414 2.578q-2.421.898-5.156.898m32.188 12.891q-.976 0-1.992-.117a18 18 0 0 1-1.641-.196v-5.547q.43.08.976.157.587.078 1.211.078 3.243 0 5.157-1.133 1.953-1.133 3.164-4.57l.82-2.305-15.078-40.664h7.265l11.719 35.391-1.445-1.563h2.031l-1.445 1.563 11.758-35.391h7.148l-15.859 43.164q-1.446 3.868-3.242 6.328-1.797 2.462-4.336 3.633-2.54 1.172-6.211 1.172m35-13.672v-40.625h6.797v5.781h.156q1.64-2.851 4.765-4.687 3.126-1.875 7.735-1.875 6.68 0 10.351 4.062 3.711 4.024 3.711 10.977V437h-6.797v-25.156q0-4.962-2.343-7.578-2.305-2.657-6.993-2.657-3.203 0-5.585 1.446-2.384 1.406-3.711 3.984-1.29 2.578-1.289 6.055V437zm59.375 14.453q-5 0-8.75-1.445-3.71-1.407-6.016-3.867-2.265-2.423-2.93-5.43l-.078-.352h6.836l.156.352q.977 2.187 3.75 3.437 2.813 1.29 6.954 1.29 5.351 0 8.281-2.774 2.93-2.734 2.93-7.461v-5.195h-.157a13.4 13.4 0 0 1-3.125 3.906q-1.914 1.64-4.414 2.578-2.46.899-5.39.899-5.118 0-9.024-2.579-3.867-2.616-6.055-7.304-2.148-4.727-2.148-11.055v-.039q0-6.329 2.187-10.976 2.227-4.688 6.133-7.266t9.063-2.578q2.89 0 5.312.976a14.1 14.1 0 0 1 4.297 2.696 15.1 15.1 0 0 1 3.164 3.984h.157v-6.875h6.796v39.492q0 4.727-2.187 8.203-2.187 3.516-6.211 5.43-4.023 1.953-9.531 1.953m-.469-20.078q3.477 0 6.055-1.836 2.617-1.875 4.062-5.234 1.485-3.36 1.485-7.852v-.039q0-4.492-1.485-7.812-1.445-3.321-4.062-5.157t-6.055-1.836q-3.594 0-6.25 1.836-2.656 1.797-4.102 5.117-1.406 3.32-1.406 7.852v.039q0 4.61 1.406 7.969 1.446 3.32 4.102 5.156 2.656 1.797 6.25 1.797m39.062 6.406q-4.023 0-7.07-1.523-3.047-1.524-4.766-4.297-1.679-2.773-1.679-6.445v-.078q0-3.477 1.719-6.016 1.757-2.54 5.039-4.024 3.32-1.484 7.968-1.757l15.039-.86v5.274l-14.257.859q-4.063.234-6.329 1.953-2.226 1.719-2.226 4.571v.078q0 2.93 2.187 4.648 2.227 1.719 5.899 1.719 3.202 0 5.742-1.328 2.578-1.368 4.063-3.711 1.523-2.344 1.523-5.274v-11.992q0-3.711-2.344-5.82-2.304-2.149-6.562-2.149-3.907 0-6.328 1.719-2.383 1.68-2.969 4.414l-.078.352h-6.563l.039-.43q.313-3.36 2.266-6.094 1.992-2.734 5.469-4.336 3.476-1.64 8.242-1.64 4.804 0 8.281 1.64 3.516 1.641 5.43 4.649 1.914 2.969 1.914 7.031V437H380.5v-6.602h-.156a13.3 13.3 0 0 1-3.125 3.907 15.3 15.3 0 0 1-4.414 2.578q-2.423.898-5.157.898m45.118 0q-5.743 0-10-2.578-4.219-2.618-6.524-7.344-2.304-4.765-2.304-11.211v-.039q0-6.405 2.343-11.132t6.563-7.305 9.844-2.578q5.078 0 8.71 1.992 3.633 1.953 5.704 5.078 2.109 3.125 2.539 6.602l.039.312h-6.641l-.078-.312q-.743-3.047-3.281-5.352-2.5-2.304-6.992-2.305-3.517 0-6.172 1.875-2.656 1.836-4.141 5.235-1.485 3.359-1.484 7.969v.039q0 4.727 1.484 8.085 1.524 3.36 4.18 5.157 2.695 1.797 6.211 1.797 4.18 0 6.757-2.11 2.617-2.148 3.477-5.547l.078-.312h6.68l-.039.273a15.2 15.2 0 0 1-2.852 6.992q-2.265 3.087-5.898 4.922-3.594 1.797-8.203 1.797m23.593-.781v-56.367h6.797v22.226h.156q1.641-3.437 4.883-5.351t7.774-1.914q4.335 0 7.578 2.109 3.28 2.07 5.117 5.781 1.836 3.711 1.836 8.633V437h-6.797v-23.711q0-5.507-2.656-8.594t-7.422-3.086q-3.125 0-5.508 1.485-2.343 1.484-3.672 4.101-1.289 2.617-1.289 6.094V437zm54.649.781q-4.023 0-7.07-1.523-3.048-1.524-4.766-4.297-1.68-2.773-1.68-6.445v-.078q0-3.477 1.719-6.016 1.758-2.54 5.039-4.024 3.32-1.484 7.969-1.757l15.039-.86v5.274l-14.258.859q-4.062.234-6.328 1.953-2.226 1.719-2.227 4.571v.078q0 2.93 2.188 4.648 2.226 1.719 5.898 1.719 3.204 0 5.742-1.328 2.578-1.368 4.063-3.711 1.524-2.344 1.523-5.274v-11.992q0-3.711-2.343-5.82-2.305-2.149-6.563-2.149-3.906 0-6.328 1.719-2.383 1.68-2.969 4.414l-.078.352h-6.562l.039-.43q.312-3.36 2.265-6.094 1.992-2.734 5.469-4.336 3.477-1.64 8.242-1.64 4.805 0 8.281 1.64 3.516 1.641 5.43 4.649 1.914 2.969 1.914 7.031V437h-6.797v-6.602h-.156a13.3 13.3 0 0 1-3.125 3.907 15.3 15.3 0 0 1-4.414 2.578q-2.422.898-5.156.898"/><path fill="#b8926a" d="M976.904 556.118c-6.292-3.907-10.901-10.156-12.271-18.538-.325-1.97-4.284-2.875-6.072-1.681-10.879 7.327-22.047 12.185-33.704 17.506-4.063 1.855-5.724 3.374-9.95.406-8.463-5.936-14.326-13.506-18.564-23.198l-13.374-30.629c-4.064-9.298-9.741-17.889-16.754-24.787-22.871-22.526-58.781 10.701-75.65 33.586 19.888 1.275 38.301 20.091 41.32 37.261 1.393 7.918-1.858 14.41-9.218 16.705-20.318 6.342-46.44-5.205-46.359-24.612.035-9.541 4.9-17.309 8.847-25.934-27.562 9.483-46.277 29.794-76.509 31.441-10.542.568-21.49 1.008-31.962-.093-20.887-2.203-41.123-4.997-61.684-11.408 20.851 1.496 39.81 7.733 60.499 9.101 40.217 2.666 52.849-.8 86.274-20.949 7.86-4.742 16.451-8.278 25.216-10.828 10.565-13.356 21.641-26.305 36.386-35.36 18.75-11.512 34.272-13.564 48.97 4.104 6.56 7.884 11.076 16.961 15.244 26.421l13.12 29.795c3.726 8.452 10.692 14.561 17.484 18.086 8.301-11.431 36.084-41.69 39.3-34.386 2.055 4.66 1.451 10.538 1.219 15.129l12.55-.359c17.078-.487 41.258 22.004 26.726 22.966-12.736.846-21.699-6.55-30.244-15.732 2.589 10.735 11.749 16.601 22.256 17.541 17.48 1.576 38.29 4.196 35.2 19.279 1.55 2.435 3.43 6.921 2.76 9.889-5.34 2.783-13.24 3.571-18.84.186-3.66-2.215-2.83-11.026 1.4-13.02 1.98-.939 5.41-1.101 8.89-1.634-2.32-1.948-5.86-3.745-9.13-4.533l-25.353-6.098-9.961-2.4c2.298 15.489 5.317 28.485 20.154 29.389l16.95 1.032c9.61.591 16.2 3.292 22.34 10.7 6.94 8.371 14.79 15.964 22.81 23.361 9.81 9.031 20.1 16.323 33.61 18.931 2.31.441 8.69.244 9.5-1.97l3.63-9.785-14.8-.719c-11.26-2.446-21.77-6.446-31-13.135-8.26-5.982-12.58-14.805-16.6-24.021-11.45-26.294-23.61-49.237-51.676-58.581-7.105-2.365-13.757-6.991-18.773-12.382l-11.157-11.987c-6.223-6.689-5.956-14.851.569-20.961 4.063-3.814 8.255-5.959 14.106-2.91l-2.136-3.547c-.546-.893.963-3.339 1.915-3.965 11.552-7.536 7.941-21.355 15.128-35.777 3.75-7.535 12.164-10.132 19.634-6.446 10.75 5.322 20.15 11.582 30.02 18.816 1.75 1.287 2.87 4.858 3.31 7.663 20.32-16.056 40.11-32.287 61.3-47.335 8.07-5.727 16.29-10.167 26.45-10.712 4.99 3.235 10.15 11.303 10.64 16.532l-6.16 7.524c-19.21 13.692-39.25 25.169-60.12 36.206-3.64 1.924-8.07 2.017-12.72 3.281 6.16 2.689 12.29 4.347 17.08 7.199 7.97 13.042 15.23 25.841 19.83 40.379 10.74 33.945 28 56.657 61.75 69.653 34.67 13.343 69.82 22.769 106.14 30.548 12.49 2.678 37.93 10.04 32.88 15.43-3.79 4.046-11.09 4.22-16.12 3.084l-22.08-4.996-91.01-29.61c-14.26-4.637-27.32-8.463-42.72-10.387l2.41 15.488c-.97 20.149-18.18 29.668-18.44 34.421-.07 1.298 2.11 3.002 3.57 4.243l42.79 13.807c15.47 5.751 30.32 11.42 45.06 18.724 17.74 8.787 34.49 17.204 51.55 27.441 29.87 17.935 59.82 34.316 88.42 55.033l-101.13-59.821c-34.43-20.358-70.05-35.8-108.53-46.756l-19.97-7.014c-1.58-.556-4.07-3.223-4.22-4.788-.68-6.643 17.42-14.99 18.65-35.313.32-5.333-4.18-11.744-1.41-15.685.7-.997 3.84-2.157 5.23-1.821l26.39 6.249 98.95 32.009 24.18 6.295c5.67 1.473 11.14 1.426 16.93-1.971-8.19-6.063-17.52-8.625-27.66-10.839-32.87-7.165-64.58-15.327-96.44-26.375-13.78-4.776-26.95-9.796-38.74-18.201-19.82-14.109-31.51-34.873-38.51-57.793-4.33-14.178-11.55-26.235-19.03-39.092-5.89-4.881-13.07-4.498-16.4-7.42-2.19-1.913 2.94-6.828-1.73-11.06-1.24-1.113-2.4-2.121-2.07-2.84l1.66-3.652-20.62 15.79 1.66-9.043c-9.23-8.127-20.48-15.662-31.73-21.227-6.69-3.304-13.583-.951-16.695 5.472-8.057 16.625-3.251 28.624-17.612 38.142 8.696 5.854 19.365 7.93 28.597 5.286 3.24-3.107 6.64-5.97 10.51-8.382l16.99-10.619c.87-.545 4.52-.684 4.39.313l-.59 4.672-30 17.332c3.83 5.194 8.39 9.483 13.91 12.683l30.47-24.914c5.83-4.765 11.78-5.182 18.9-2.829 5.38 1.774 9.92 4.777 11.29 10.91 2.36 10.55-.66 20.589-5.9 29.98-2.8 5.031-6.15 9.796-12.18 11.663 21.19 10.897 39.88 31.429 55.01 51.207 11.7 15.929 9.24 37.736-7.49 49.063-5.64 8.845-3.28 17.958-15.16 16.532-12.37-1.484-23.57-7.524-33-15.848-9.96-8.8-18.84-17.958-27.83-27.859-2.79-3.084-6.28-7.095-10.62-7.883-18.4-3.339-34.654.185-41.19-9.866-5.202-8.011-10.925-25.482-3.356-27.615zm144.616-146.62c-6.63 1.357-11.53 4.707-16.64 8.394-15.12 10.909-29.65 21.47-44.34 34.478 19.47-11.721 42.72-26.56 60.98-42.883zm-57.49 51.509 9.91-6.828c19.99-11.941 38.57-24.01 57.84-37.551l-5.92-7.478c-10.04 8.834-19.24 15.837-29.88 23.001l-35.58 23.952c.57 1.53 2.66 4.371 3.61 4.916zm9.45 2.469c20.55-10.955 39.45-22.085 58.35-34.861 1.3-.869 2.97-3.466 3.31-4.788.33-1.321-1.23-4.15-2.44-5.101-18.04 12.591-35.48 24.335-54.19 35.29-5.12 3.003-9.03 5.82-14.22 10.341 2.99 1.009 6.16.731 9.19-.881m-15.24 59.474c.21.939 2.07 2.55 2.95 2.666 6.24.812 24.51-31.986 11.86-44.089-3.52-3.362-12.89-6.539-17.59-4.139-8.95 4.568-15.57 11.176-22.87 17.819l10.94-4.51c3.1-.939 7.47.708 8.29 4.07l2.5 10.19 3.91 17.981zm-78.677-16.868 6.583-8.035c-4.586-3.443-10.495-9.981-17.171-10.457-5.422-.382-10.53 6.585-11.32 11.397-.464 2.782 1.695 7.025 3.193 8.822 6.792-5.171 14.036 3.988 18.715-1.727m138.777 105.324c4.26-8.741 2.66-19.036-2.86-27.348-11.59-17.46-26.41-32.821-43.15-45.782-18.13-14.028-47.99-16.845-46.81-37.411-2.23 1.843-7.25 5.228-9.69 3.93-6.53-3.467-11.02-8.382-14.35-13.959-8.751.499-16.089-.823-24.796-3.315l11.668 9.019c8.15-2.991 18.328 3.954 26.318 10.179 1.99 1.542 3.72 6.643 4.41 8.927 3.57-.104 7.6.499 10.58 2.469 7.22 4.754 14.15 8.405 22.07 11.675 6.12 2.527 10.89 6.48 15.7 10.99 21.31 19.999 49.18 42.211 50.91 70.638zm-60.47-84.364c-6.29-11.361-3.68-24.45-9.63-33.446-4.96-2.249-18.57 5.17-19.95 10.155-2.53 9.159 18.01 18.561 29.58 23.291m55.25 70.406c-5.29-11.674-12.63-22.039-21.76-30.78l-24.34-23.256c-5.93-5.681-11.75-10.017-19.47-13.089-17.73-7.06-25.39-19.303-33.17-8.011-1.91 2.783-7.1 5.797-10.19 3.536.29-7.002 10.31-6.967 12.12-10.33 2.41-4.463-13.62-16.937-25.369-18.073-3.228 10.897-10.937 18.943-22.431 17.876 6.119 9.368 15.326 14.956 25.751 18.608 26.839 9.379 39.169 34.895 49.949 59.971 5.83 13.565 14.34 23.512 28.35 28.821 14.71 5.577 28.87 10.828 37.6-.22 5.76-7.281 7.22-15.616 2.95-25.053zm-143.878-88.375-5.399-.58c4.54 5.866 11.157 5.24 16.173 1.751-4.342-.105-6.792-.742-10.774-1.171M819.52 561.37c7.675-1.751 11.866-7.443 10.02-15.28-4.226-17.97-22.744-36.067-41.181-34.247-6.432 11.802-13.699 25.019-7.372 35.661 6.896 11.605 23.963 17.193 38.533 13.866m137.346-30.456c0-4.753-.151-7.419-1.243-12.3-6.606 3.918-9.787 6.817-13.386 11.524 6.003-3.142 9.068-3.896 14.64.788zm-.453 3.397c-2.903-2.62-4.563-4.127-5.875-4.73-3.564-1.635-14.338 10.422-20.213 18.283 10.229-3.49 17.903-8 26.088-13.553m44.407 18.028c-4.84-7.559-11.354-10.759-17.867-14.237-5.143-2.33-9.81-4.417-15.998-2.492l12.283 12.033c5.41 5.299 14.269 7.617 21.582 4.696m22.64 20.636c-1.44-9.553-21.28-12.649-33.878-12.347l21.638 5.066c4.78 1.113 8.56 4.011 12.24 7.269zm3.09 12.01-4.77-9.344c-2.39-.348-7.07-.382-9.53.186-3.41.776-4.27 8.289-1.49 9.645 4.99 2.446 10.61 1.809 15.79-.498z"/><path fill="#003836" d="M576.871 127.448q-3.734 0-6.515-1.718-2.763-1.717-4.276-4.835-1.512-3.136-1.512-7.374v-.019q0-4.238 1.512-7.356t4.276-4.816q2.763-1.718 6.515-1.718 2.8 0 5.097 1.064t3.827 2.969q1.55 1.904 2.054 4.462l.037.186h-3.398l-.13-.41q-.524-1.644-1.569-2.782a6.76 6.76 0 0 0-2.52-1.774q-1.494-.616-3.398-.616-2.688 0-4.686 1.344-1.979 1.326-3.08 3.753-1.083 2.409-1.083 5.694v.019q0 3.267 1.083 5.713 1.101 2.427 3.099 3.771 1.997 1.344 4.667 1.344 1.886 0 3.361-.616a6.9 6.9 0 0 0 2.557-1.811q1.065-1.214 1.643-2.987l.056-.168h3.398l-.037.187q-.505 2.576-2.035 4.499a10.3 10.3 0 0 1-3.827 2.95q-2.296 1.045-5.116 1.045m14.656-.448v-26.94h3.248v10.623h.075a5.8 5.8 0 0 1 2.333-2.558q1.55-.915 3.716-.914 2.071 0 3.622 1.008 1.568.989 2.445 2.763.878 1.773.878 4.126V127h-3.249v-11.332q0-2.632-1.269-4.108-1.27-1.474-3.547-1.474-1.494 0-2.633.709-1.12.71-1.755 1.96-.615 1.251-.616 2.913V127zm20.648 0v-19.416h3.248V127zm1.624-22.702q-.84 0-1.437-.597a1.96 1.96 0 0 1-.598-1.438q0-.859.598-1.437a1.96 1.96 0 0 1 1.437-.598q.86 0 1.438.598.597.578.597 1.437 0 .84-.597 1.438a1.92 1.92 0 0 1-1.438.597M619.437 127v-2.315l10.735-14.357v-.056h-10.716v-2.688h14.413v2.371l-10.661 14.301v.056h10.717V127zm18.11 0v-19.416h3.248v2.838h.075q.653-1.438 2.053-2.315 1.401-.897 3.267-.896 1.326 0 2.39.448a5.1 5.1 0 0 1 1.867 1.269q.784.822 1.195 2.016h.075a6.2 6.2 0 0 1 1.437-1.997q.915-.84 2.091-1.288a7.2 7.2 0 0 1 2.558-.448q1.923 0 3.342.802a5.5 5.5 0 0 1 2.202 2.222q.785 1.419.785 3.36V127h-3.249v-12.658q0-1.344-.485-2.296a3.3 3.3 0 0 0-1.363-1.456q-.897-.504-2.184-.504t-2.278.597a4.06 4.06 0 0 0-1.55 1.624q-.56 1.027-.56 2.353V127h-3.248v-13.013q0-1.176-.504-2.053a3.4 3.4 0 0 0-1.382-1.363q-.878-.486-2.091-.485-1.288 0-2.296.634a4.43 4.43 0 0 0-1.568 1.681q-.579 1.063-.579 2.427V127zm36.405.373q-1.924 0-3.379-.728-1.457-.728-2.278-2.053-.803-1.326-.803-3.081v-.037q0-1.662.822-2.875.84-1.213 2.408-1.923 1.587-.71 3.808-.84l7.188-.411v2.52l-6.814.411q-1.942.112-3.025.934-1.064.82-1.064 2.184v.037q0 1.4 1.046 2.222 1.064.822 2.819.821 1.53 0 2.744-.634a5.05 5.05 0 0 0 1.942-1.774q.728-1.12.728-2.52v-5.732q0-1.773-1.12-2.782-1.102-1.026-3.137-1.026-1.867 0-3.024.821-1.139.802-1.419 2.11l-.037.168h-3.137l.019-.206a5.85 5.85 0 0 1 1.083-2.912q.952-1.307 2.613-2.072 1.662-.784 3.94-.784 2.296 0 3.957.784 1.681.784 2.596 2.221.914 1.419.914 3.361V127h-3.248v-3.155h-.075a6.3 6.3 0 0 1-1.493 1.867 7.3 7.3 0 0 1-2.11 1.232 7 7 0 0 1-2.464.429m21.563 0q-2.745 0-4.78-1.232-2.016-1.251-3.117-3.51-1.102-2.277-1.102-5.358v-.018q0-3.062 1.12-5.321t3.137-3.491q2.016-1.233 4.704-1.232 2.427 0 4.164.952 1.736.933 2.725 2.427 1.008 1.493 1.214 3.155l.018.149h-3.173l-.038-.149q-.354-1.457-1.568-2.558-1.194-1.101-3.342-1.101-1.68 0-2.949.896-1.27.878-1.979 2.501-.71 1.606-.71 3.809v.019q0 2.259.71 3.864.728 1.606 1.997 2.465 1.289.858 2.969.858 1.997 0 3.229-1.008 1.251-1.026 1.662-2.651l.037-.149h3.193l-.019.13a7.24 7.24 0 0 1-1.363 3.342q-1.082 1.476-2.819 2.353-1.718.858-3.92.858m11.276-.373v-26.94h3.248v10.623h.075a5.8 5.8 0 0 1 2.334-2.558q1.55-.915 3.715-.914 2.072 0 3.622 1.008 1.567.989 2.445 2.763.878 1.773.878 4.126V127h-3.249v-11.332q0-2.632-1.269-4.108-1.27-1.474-3.547-1.474-1.494 0-2.633.709-1.119.71-1.755 1.96-.615 1.251-.616 2.913V127zm20.648 0v-19.416h3.249V127zm1.624-22.702q-.84 0-1.437-.597a1.96 1.96 0 0 1-.598-1.438q0-.859.598-1.437a1.96 1.96 0 0 1 1.437-.598q.86 0 1.438.598.597.578.597 1.437 0 .84-.597 1.438a1.92 1.92 0 0 1-1.438.597M735.28 127v-26.94h3.249V127zm7.841 0v-19.416h3.249V127zm1.625-22.702q-.84 0-1.438-.597a1.96 1.96 0 0 1-.597-1.438q0-.859.597-1.437a1.96 1.96 0 0 1 1.438-.598q.858 0 1.437.598.597.578.598 1.437 0 .84-.598 1.438a1.92 1.92 0 0 1-1.437.597m6.31 22.702v-26.94h3.248V127zm12.266 0-7.393-9.279 2.165-2.165L767.093 127zm-9.746-6.628v-4.219h.803l8.513-8.569h3.939l-9.204 9.167h-.261zm66.78 7.076q-2.819 0-5.096-.971a10.9 10.9 0 0 1-3.902-2.837q-1.606-1.85-2.483-4.444-.86-2.595-.859-5.806v-.019q0-4.219 1.512-7.299 1.531-3.081 4.294-4.761 2.782-1.7 6.534-1.699 3.099 0 5.358 1.102 2.278 1.083 3.734 2.968a11.5 11.5 0 0 1 2.073 4.257l.093.354h-3.529l-.074-.205q-.934-2.557-2.875-3.958-1.942-1.419-4.78-1.419-2.763 0-4.76 1.288-1.998 1.27-3.081 3.66-1.064 2.39-1.064 5.712v.019q0 2.539.616 4.574.616 2.016 1.774 3.454a8 8 0 0 0 2.819 2.184q1.643.747 3.696.747 2.39 0 4.201-.952 1.83-.971 2.838-2.689 1.026-1.717 1.026-3.976v-.486h-7.598v-2.949h10.959v2.557q0 2.727-.784 4.873-.766 2.147-2.241 3.659-1.474 1.494-3.603 2.278-2.109.784-4.798.784M835.59 127v-19.416h3.249v3.286h.075q.485-1.68 1.68-2.67t2.838-.989q.429 0 .765.056.355.036.541.074v3.155q-.186-.074-.672-.13a9 9 0 0 0-1.064-.056q-1.25 0-2.203.56-.933.56-1.456 1.624-.504 1.046-.504 2.52V127zm17.102.373q-1.923 0-3.38-.728t-2.277-2.053q-.803-1.326-.803-3.081v-.037q0-1.662.821-2.875.84-1.213 2.409-1.923 1.587-.71 3.808-.84l7.188-.411v2.52l-6.814.411q-1.942.112-3.025.934-1.064.82-1.064 2.184v.037q0 1.4 1.046 2.222 1.064.822 2.819.821 1.53 0 2.744-.634a5.05 5.05 0 0 0 1.942-1.774q.728-1.12.728-2.52v-5.732q0-1.773-1.12-2.782-1.102-1.026-3.137-1.026-1.867 0-3.024.821-1.14.802-1.419 2.11l-.038.168h-3.136l.019-.206a5.85 5.85 0 0 1 1.083-2.912q.952-1.307 2.613-2.072 1.662-.784 3.939-.784 2.297 0 3.958.784 1.681.784 2.595 2.221.915 1.419.915 3.361V127h-3.248v-3.155h-.075a6.3 6.3 0 0 1-1.493 1.867 7.3 7.3 0 0 1-2.11 1.232 7 7 0 0 1-2.464.429m14.562-.373v-16.728h-2.707v-2.688h2.707v-2.39q0-1.866.578-3.08.598-1.232 1.774-1.83 1.176-.597 2.968-.597.541 0 1.083.037.542.038.896.093v2.633a9 9 0 0 0-.672-.056 13 13 0 0 0-.728-.019q-1.344 0-2.016.71-.672.69-.672 2.128v2.371h3.995v2.688h-3.958V127zm10.772 0v-19.416h3.248V127zm1.624-22.702q-.84 0-1.438-.597a1.96 1.96 0 0 1-.597-1.438q0-.859.597-1.437a1.96 1.96 0 0 1 1.438-.598q.86 0 1.438.598.597.578.597 1.437 0 .84-.597 1.438a1.92 1.92 0 0 1-1.438.597M885.96 127v-26.94h3.249V127zm12.266 0-7.393-9.279 2.166-2.165L901.997 127zm-9.745-6.628v-4.219h.802l8.514-8.569h3.939l-9.204 9.167h-.262zm30.916 7.001q-2.482 0-4.35-1.232-1.848-1.251-2.875-3.51-1.027-2.277-1.027-5.339v-.019q0-3.061 1.027-5.32 1.045-2.259 2.894-3.492 1.848-1.25 4.275-1.25 1.382 0 2.558.448a6.5 6.5 0 0 1 2.128 1.25 6.6 6.6 0 0 1 1.531 1.923h.074V100.06h3.249V127h-3.249v-3.286h-.074a7 7 0 0 1-1.512 1.96 6.8 6.8 0 0 1-2.091 1.251q-1.158.448-2.558.448m.635-2.875q1.643 0 2.912-.896 1.27-.895 1.979-2.52.728-1.624.728-3.79v-.019q0-2.165-.728-3.771-.727-1.624-1.998-2.52-1.25-.897-2.893-.896-1.718 0-2.969.877-1.251.878-1.923 2.483t-.672 3.827v.019q0 2.221.672 3.846t1.923 2.502q1.251.858 2.969.858M933.474 127v-19.416h3.248V127zm1.624-22.702q-.84 0-1.438-.597a1.96 1.96 0 0 1-.597-1.438q0-.859.597-1.437a1.96 1.96 0 0 1 1.438-.598q.859 0 1.437.598.598.578.598 1.437a1.96 1.96 0 0 1-.598 1.438 1.92 1.92 0 0 1-1.437.597M940.736 127v-2.315l10.735-14.357v-.056h-10.716v-2.688h14.412v2.371l-10.66 14.301v.056h10.716V127zm23.971.373q-1.923 0-3.379-.728-1.457-.728-2.277-2.053-.803-1.326-.803-3.081v-.037q0-1.662.821-2.875.84-1.213 2.409-1.923 1.586-.71 3.808-.84l7.188-.411v2.52l-6.815.411q-1.941.112-3.024.934-1.064.82-1.064 2.184v.037q0 1.4 1.045 2.222 1.065.822 2.819.821 1.531 0 2.745-.634a5.05 5.05 0 0 0 1.941-1.774q.729-1.12.729-2.52v-5.732q0-1.773-1.121-2.782-1.1-1.026-3.136-1.026-1.867 0-3.025.821-1.139.802-1.418 2.11l-.038.168h-3.136l.019-.206a5.85 5.85 0 0 1 1.082-2.912q.952-1.307 2.614-2.072 1.662-.784 3.939-.784 2.296 0 3.958.784 1.68.784 2.595 2.221.915 1.419.915 3.361V127h-3.248v-3.155h-.075a6.3 6.3 0 0 1-1.494 1.867 7.3 7.3 0 0 1-2.109 1.232 7 7 0 0 1-2.465.429m15.384 6.161q-.467 0-.952-.056a9 9 0 0 1-.784-.093v-2.651q.205.038.466.075.28.037.579.037 1.55 0 2.464-.542.934-.54 1.513-2.184l.392-1.101-7.207-19.435h3.473l5.601 16.914-.691-.746h.971l-.691.746 5.619-16.914h3.417l-7.58 20.63q-.69 1.848-1.549 3.024-.86 1.176-2.073 1.736t-2.968.56M996.819 127v-19.416h3.251v2.763h.07q.78-1.363 2.28-2.24c1-.598 2.23-.896 3.7-.896 2.12 0 3.77.647 4.94 1.941 1.19 1.282 1.78 3.031 1.78 5.246V127h-3.25v-12.023c0-1.581-.38-2.788-1.12-3.622-.74-.846-1.85-1.269-3.34-1.269q-1.53 0-2.67.69c-.76.448-1.35 1.083-1.78 1.905-.41.821-.61 1.786-.61 2.893V127zm59.871 0v-26.94h10.1c1.73 0 3.24.336 4.52 1.008 1.29.66 2.3 1.593 3 2.801.71 1.195 1.07 2.601 1.07 4.219v.037c0 1.867-.49 3.485-1.46 4.854-.96 1.357-2.27 2.303-3.96 2.838L1076.2 127h-3.94l-5.77-10.66h-6.44V127zm3.36-13.629h6.44c1.73 0 3.06-.448 4-1.344s1.42-2.172 1.42-3.827v-.037q0-2.409-1.5-3.753c-.98-.908-2.34-1.363-4.07-1.363h-6.29zm27.05 14.002c-1.85 0-3.45-.41-4.79-1.232-1.34-.821-2.36-1.979-3.09-3.472-.7-1.506-1.06-3.274-1.06-5.302v-.019q0-3.006 1.08-5.283c.73-1.531 1.74-2.72 3.05-3.566 1.3-.859 2.84-1.288 4.61-1.288s3.28.41 4.55 1.232c1.29.809 2.27 1.948 2.95 3.416.69 1.469 1.03 3.174 1.03 5.116v1.194h-15.65v-2.539h14.04l-1.64 2.353v-1.251q0-2.26-.69-3.734c-.45-.983-1.07-1.711-1.87-2.184-.79-.486-1.71-.728-2.74-.728s-1.96.255-2.78.765c-.82.498-1.47 1.245-1.94 2.24-.48.984-.71 2.197-.71 3.641v1.251q0 2.054.69 3.51c.47.97 1.14 1.717 1.99 2.24.86.51 1.88.765 3.05.765.82 0 1.55-.124 2.2-.373a4.6 4.6 0 0 0 1.63-1.027q.645-.654.93-1.493l.05-.168h3.2l-.04.186a6.3 6.3 0 0 1-.93 2.241 7.2 7.2 0 0 1-1.74 1.848q-1.065.784-2.43 1.232c-.91.286-1.89.429-2.95.429m18.5 0c-1.51 0-2.83-.242-3.93-.728q-1.665-.727-2.64-2.035c-.63-.871-1.02-1.885-1.15-3.043l-.02-.168h3.25l.03.187c.2.971.67 1.73 1.4 2.278.74.535 1.76.802 3.08.802.89 0 1.64-.112 2.26-.336q.93-.354 1.44-.989c.34-.436.5-.946.5-1.531v-.019q0-1.046-.63-1.68c-.42-.423-1.19-.772-2.3-1.045l-3.08-.747c-1.22-.299-2.23-.685-3.04-1.158-.8-.485-1.39-1.076-1.79-1.773q-.6-1.046-.6-2.446v-.019q0-1.68.9-2.968.915-1.288 2.52-2.016c1.08-.486 2.32-.728 3.71-.728 1.42 0 2.65.255 3.7.765 1.06.498 1.88 1.182 2.48 2.054.61.858.95 1.829 1.03 2.912l.02.243h-3.1l-.02-.131c-.13-.946-.54-1.705-1.25-2.278-.7-.572-1.65-.858-2.86-.858-.78 0-1.46.118-2.03.354-.58.237-1.02.573-1.33 1.008q-.45.635-.45 1.494v.019q0 .653.3 1.194.315.524.99.915.675.392 1.74.654l3.08.746c1.96.473 3.35 1.127 4.14 1.961q1.2 1.232 1.2 3.304v.019q0 1.699-.99 3.006c-.65.871-1.55 1.555-2.69 2.053q-1.695.729-3.87.728m17.55 0c-1.42 0-2.63-.292-3.64-.877a5.83 5.83 0 0 1-2.29-2.483c-.53-1.083-.79-2.359-.79-3.827v-12.602h3.25v12.023c0 1.581.37 2.794 1.1 3.64q1.125 1.251 3.36 1.251c.77 0 1.47-.13 2.08-.392a4.7 4.7 0 0 0 1.6-1.101 5 5 0 0 0 1.03-1.736 7 7 0 0 0 .35-2.259v-11.426h3.25V127h-3.25v-2.763h-.07c-.35.597-.8 1.133-1.37 1.606-.54.472-1.2.846-1.97 1.12-.78.273-1.65.41-2.64.41m13.54-.373v-19.416h3.25v3.286h.07q.495-1.68 1.68-2.67c.8-.66 1.74-.989 2.84-.989.29 0 .54.018.77.056q.345.036.54.074v3.155c-.13-.049-.35-.093-.68-.13a9 9 0 0 0-1.06-.056c-.83 0-1.57.186-2.2.56-.62.373-1.11.915-1.46 1.624-.33.697-.5 1.537-.5 2.52V127zm18.69.373c-1.52 0-2.83-.242-3.94-.728-1.11-.485-1.99-1.163-2.63-2.035-.64-.871-1.03-1.885-1.16-3.043l-.02-.168h3.25l.03.187q.3 1.456 1.41 2.278c.73.535 1.76.802 3.08.802q1.32 0 2.25-.336.945-.354 1.44-.989.51-.654.51-1.531v-.019c0-.697-.22-1.257-.64-1.68s-1.19-.772-2.29-1.045l-3.09-.747c-1.22-.299-2.23-.685-3.04-1.158-.8-.485-1.39-1.076-1.79-1.773q-.6-1.046-.6-2.446v-.019q0-1.68.9-2.968.915-1.288 2.52-2.016c1.08-.486 2.32-.728 3.71-.728 1.42 0 2.65.255 3.7.765 1.06.498 1.89 1.182 2.48 2.054.61.858.96 1.829 1.03 2.912l.02.243h-3.1l-.02-.131c-.12-.946-.54-1.705-1.25-2.278-.7-.572-1.65-.858-2.86-.858-.78 0-1.46.118-2.03.354-.57.237-1.02.573-1.33 1.008-.3.424-.44.921-.44 1.494v.019c0 .435.09.834.29 1.194q.33.524.99.915.675.392 1.74.654l3.08.746q2.955.71 4.14 1.961 1.2 1.232 1.2 3.304v.019q0 1.699-.99 3.006c-.65.871-1.54 1.555-2.69 2.053-1.13.486-2.42.728-3.86.728m11.09-.373v-26.94h3.24V127zm13.31.373c-1.28 0-2.41-.242-3.38-.728a5.55 5.55 0 0 1-2.28-2.053c-.53-.884-.8-1.911-.8-3.081v-.037c0-1.108.27-2.066.82-2.875.56-.809 1.36-1.45 2.41-1.923q1.59-.71 3.81-.84l7.18-.411v2.52l-6.81.411c-1.29.075-2.3.386-3.02.934-.71.547-1.07 1.275-1.07 2.184v.037q0 1.4 1.05 2.222 1.065.822 2.82.821c1.02 0 1.93-.211 2.74-.634.82-.436 1.47-1.027 1.94-1.774.49-.747.73-1.587.73-2.52v-5.732c0-1.182-.37-2.109-1.12-2.782-.73-.684-1.78-1.026-3.14-1.026-1.24 0-2.25.273-3.02.821-.76.535-1.23 1.238-1.42 2.11l-.04.168h-3.13l.01-.206c.1-1.07.47-2.041 1.09-2.912q.945-1.307 2.61-2.072c1.11-.523 2.42-.784 3.94-.784q2.295 0 3.96.784c1.12.522 1.98 1.263 2.59 2.221.61.946.92 2.066.92 3.361V127h-3.25v-3.155h-.07a6.5 6.5 0 0 1-1.5 1.867 7.2 7.2 0 0 1-2.11 1.232q-1.155.429-2.46.429m13.51-.373v-19.416h3.25v3.286h.08q.48-1.68 1.68-2.67c.79-.66 1.74-.989 2.84-.989.28 0 .54.018.76.056q.36.036.54.074v3.155c-.12-.049-.35-.093-.67-.13a9 9 0 0 0-1.06-.056c-.84 0-1.57.186-2.21.56-.62.373-1.1.915-1.45 1.624q-.51 1.046-.51 2.52V127z"/><path fill="#003837" d="M178.921 108.505c-2.102-7.344-7.239-10.835-12.003-10.835-6.164 0-11.769 5.893-9.387 16.728 1.915 8.658 7.986 12.058 13.964 12.058s12.283-3.626 13.638-8.885l.56.045c-1.961 7.389-7.706 11.424-16.066 11.424-9.621 0-17.187-5.893-17.187-16.32s7.566-16.32 17.187-16.32c4.203 0 12.844 2.222 12.844 7.707 0 2.358-1.635 3.582-2.989 4.171zM189.803 96.854h4.95v14.778h15.879V96.854h4.998v31.733h-4.998V112.63h-15.879v15.957h-4.95zM221.981 96.854h4.951v31.733h-4.951zM233.097 102.566v-5.712h22.09L237.58 127.68h3.69c3.409 0 7.566-1.269 10.368-3.219l2.195-1.632v5.758h-22.371l17.654-30.69h-3.596c-3.13 0-6.959 1.088-9.575 2.765zM278.446 122.827v5.757h-18.681v-31.73h4.903v30.735h1.448c3.27 0 7.239-1.224 9.948-2.992l2.382-1.768zM287.693 128.584h-8.127l14.385-31.732h4.577l13.123 31.732h-5.884l-3.97-10.29h-16.066c-.607 3.173-.093 6.709 1.495 9.429zm13.73-11.288-6.912-18.042-.327-.68-7.565 17c-.281.544-.467 1.133-.654 1.722zM315.154 96.854h11.536c8.453 0 10.508 3.717 10.508 8.16 0 4.17-3.036 7.298-7.285 7.298v.227c7.285 0 9.387 3.763 9.387 7.661 0 4.125-2.569 8.387-11.349 8.387h-12.797zm12.143 15.322c2.942 0 4.997-3.717 4.997-7.344 0-3.626-1.961-6.98-4.997-6.98h-7.192l-.047 14.324zm.047 15.413c4.297 0 6.678-3.808 6.678-7.298 0-3.717-2.568-7.117-6.258-7.117h-7.659v14.415zM145.115 140.439H88V85h57.115zm-55.558-1.511h54.002V86.511H89.557z"/><path fill="#003837" d="M134.802 122.968c0 2.241-.428 4.387-1.215 6.359h-6.006c1.354-2.236 2.143-4.911 2.143-7.784 0-7.86-5.895-14.23-13.165-14.23s-13.165 6.37-13.165 14.23c0 2.873.789 5.548 2.143 7.784h-6.01a17.1 17.1 0 0 1-1.213-6.359c0-9.782 8.167-17.71 18.245-17.71 10.077 0 18.243 7.928 18.243 17.71M130.505 96.109c-3.329 4.264-8.604 7.019-14.543 7.019-4.588 0-8.783-1.645-11.987-4.36l1.432-1.45c2.309 2.143 5.371 3.445 8.733 3.445 3.957 0 7.501-1.806 9.886-4.654zM104.748 96.69l-1.445 1.469-.696-2.05z"/><path fill="#003837" stroke="#003837" stroke-miterlimit="10" stroke-width=".637" d="M793.922 121.242c-.323 2.964-3.408 2.495-5.342 5.046-.923-1.08-2.03-1.845-3.315-2.376-1.552-.642-2.312-2.146-2.074-3.931-1.865.182-3.382-.582-4.045-2.278-.476-1.218-1.282-2.241-2.275-3.137 1.053-.933 1.821-1.993 2.335-3.25.653-1.598 2.179-2.374 3.956-2.15-.22-1.795.595-3.351 2.224-4.002 1.225-.489 2.26-1.264 3.176-2.297.861.952 1.861 1.762 3.062 2.222 1.731.662 2.583 2.224 2.351 4.115 1.896-.273 3.388.601 4.046 2.254.485 1.218 1.239 2.287 2.276 3.087-1.107.94-1.851 2.103-2.419 3.394-.499 1.133-1.439 1.863-2.67 1.99l-1.156.119zm-5.327 4.621c.859-.918 1.82-1.639 2.941-2.074 1.687-.655 2.429-2.203 2.146-4.055 2.166.054 3.259-.331 4.081-2.182a9.2 9.2 0 0 1 2.124-2.999c-.987-.868-1.645-1.911-2.169-3.088-.469-1.051-1.311-1.909-2.513-1.988l-1.471-.098c.106-1.908-.346-3.194-2.031-3.933-1.175-.515-2.219-1.171-3.113-2.168-.893.895-1.949 1.691-3.192 2.183-2.516.996-1.857 3.938-2.07 3.944l-.432.012c-1.523-.108-2.857.582-3.442 2.006-.486 1.186-1.2 2.208-2.171 3.15.992.92 1.683 2.003 2.21 3.218.436 1.007 1.27 1.752 2.37 1.852l1.541.141c-.071 1.827.317 3.15 1.968 3.872 1.222.534 2.273 1.218 3.223 2.207Z"/><g clip-path="url(#b)"><path fill="#003837" stroke="#003837" stroke-miterlimit="10" stroke-width=".637" d="M1040.54 121.242c-.33 2.964-3.41 2.495-5.35 5.046-.92-1.08-2.03-1.845-3.31-2.376-1.55-.642-2.31-2.146-2.08-3.931-1.86.182-3.38-.582-4.04-2.278-.48-1.218-1.28-2.241-2.28-3.137 1.06-.933 1.83-1.993 2.34-3.25.65-1.598 2.18-2.374 3.96-2.15-.22-1.795.59-3.351 2.22-4.002 1.22-.489 2.26-1.264 3.18-2.297.86.952 1.86 1.762 3.06 2.222 1.73.662 2.58 2.224 2.35 4.115 1.89-.273 3.39.601 4.04 2.254.49 1.218 1.24 2.287 2.28 3.087-1.11.94-1.85 2.103-2.42 3.394-.5 1.133-1.44 1.863-2.67 1.99l-1.15.119zm-5.33 4.621c.86-.918 1.82-1.639 2.94-2.074 1.69-.655 2.43-2.203 2.15-4.055 2.16.054 3.25-.331 4.08-2.182a9.3 9.3 0 0 1 2.12-2.999c-.99-.868-1.65-1.911-2.17-3.088-.47-1.051-1.31-1.909-2.51-1.988l-1.47-.098c.1-1.908-.35-3.194-2.03-3.933-1.18-.515-2.22-1.171-3.12-2.168-.89.895-1.95 1.691-3.19 2.183-2.51.996-1.86 3.938-2.07 3.944l-.43.012c-1.52-.108-2.86.582-3.44 2.006-.49 1.186-1.2 2.208-2.17 3.15.99.92 1.68 2.003 2.21 3.218.43 1.007 1.27 1.752 2.37 1.852l1.54.141c-.07 1.827.31 3.15 1.97 3.872 1.22.534 2.27 1.218 3.22 2.207Z"/></g><path stroke="#003837" stroke-linecap="round" stroke-linejoin="round" stroke-width="2" d="M104.5 663.25c7.594 0 13.75-6.156 13.75-13.75s-6.156-13.75-13.75-13.75-13.75 6.156-13.75 13.75 6.156 13.75 13.75 13.75"/><path stroke="#003837" stroke-linecap="round" stroke-linejoin="round" stroke-width="2" d="M99 649.5a19.94 19.94 0 0 1 5.5-13.75 19.937 19.937 0 0 1 0 27.5A19.94 19.94 0 0 1 99 649.5M90.75 649.5h27.5"/><path fill="#003837" d="M135.5 658.312q-2.297 0-4-1.031-1.688-1.047-2.609-2.937-.922-1.906-.922-4.485v-.015q0-2.563.937-4.453.938-1.892 2.625-2.922t3.938-1.031q2.03 0 3.484.796 1.453.781 2.281 2.032.844 1.25 1.016 2.64l.016.125h-2.657l-.031-.125q-.297-1.219-1.312-2.14-1-.922-2.797-.922-1.407 0-2.469.75-1.062.734-1.656 2.094-.594 1.343-.594 3.187v.016q0 1.89.594 3.234.609 1.343 1.672 2.063 1.077.718 2.484.718 1.673 0 2.703-.844 1.047-.859 1.391-2.218l.031-.125h2.672l-.016.109a6.1 6.1 0 0 1-1.14 2.797q-.907 1.234-2.36 1.969-1.437.718-3.281.718m9.438-.312v-22.547h2.718v8.891h.063a4.86 4.86 0 0 1 1.953-2.141q1.297-.765 3.109-.765 1.735 0 3.031.843 1.314.828 2.047 2.313.735 1.484.735 3.453V658h-2.719v-9.484q0-2.204-1.063-3.438t-2.968-1.234q-1.25 0-2.203.594a4.1 4.1 0 0 0-1.469 1.64q-.516 1.047-.516 2.438V658zm17.281 0v-16.25h2.719V658zm1.359-19a1.64 1.64 0 0 1-1.203-.5 1.64 1.64 0 0 1-.5-1.203q0-.718.5-1.203.5-.5 1.203-.5.719 0 1.203.5.5.485.5 1.203 0 .704-.5 1.203-.484.5-1.203.5m4.719 19v-1.938l8.984-12.015V644h-8.969v-2.25h12.063v1.984l-8.922 11.969v.047h8.969V658zm15.453 0v-22.547h2.719V658zm11.141.312q-1.61 0-2.829-.609a4.6 4.6 0 0 1-1.906-1.719q-.672-1.109-.672-2.578v-.031q0-1.39.688-2.406.703-1.016 2.016-1.61 1.327-.593 3.187-.703l6.016-.344v2.11l-5.703.344q-1.626.093-2.532.781-.89.688-.89 1.828v.031q0 1.172.875 1.86.89.687 2.359.687 1.281 0 2.297-.531a4.24 4.24 0 0 0 1.625-1.484 3.8 3.8 0 0 0 .609-2.11v-4.797q0-1.484-.937-2.328-.923-.86-2.625-.859-1.563 0-2.531.687-.954.672-1.188 1.766l-.031.141h-2.625l.015-.172a4.9 4.9 0 0 1 .907-2.438q.797-1.093 2.187-1.734 1.39-.656 3.297-.656 1.922 0 3.312.656 1.407.656 2.172 1.859.766 1.188.766 2.813V658h-2.719v-2.641h-.062a5.3 5.3 0 0 1-1.25 1.563 6.1 6.1 0 0 1-1.766 1.031 5.9 5.9 0 0 1-2.062.359m19.39 0a6 6 0 0 1-2.14-.374 5.7 5.7 0 0 1-1.75-1.047 6.2 6.2 0 0 1-1.266-1.641h-.063V658h-2.718v-22.547h2.718v9.016h.063a5.9 5.9 0 0 1 1.281-1.61 5.5 5.5 0 0 1 1.782-1.047 6 6 0 0 1 2.14-.374q2.047 0 3.578 1.046 1.548 1.032 2.406 2.922.876 1.891.876 4.453v.016q0 2.562-.86 4.469-.86 1.89-2.422 2.937-1.546 1.031-3.625 1.031m-.531-2.406q1.437 0 2.484-.718 1.047-.735 1.61-2.094.562-1.359.562-3.219v-.016q0-1.859-.562-3.203t-1.61-2.078-2.484-.734q-1.375 0-2.438.75-1.046.75-1.656 2.109-.609 1.344-.609 3.156v.016q0 1.812.594 3.172.609 1.359 1.671 2.109t2.438.75m10.906 2.313q-.75 0-1.265-.516a1.72 1.72 0 0 1-.516-1.265q0-.75.516-1.266a1.72 1.72 0 0 1 1.265-.516q.75 0 1.266.516t.516 1.266-.516 1.265a1.72 1.72 0 0 1-1.266.516m10.75.093q-1.78 0-3.047-.734a4.87 4.87 0 0 1-1.921-2.078q-.657-1.36-.657-3.203V641.75h2.719v10.062q0 1.985.922 3.047.937 1.047 2.812 1.047.969 0 1.735-.328a3.9 3.9 0 0 0 1.343-.922q.564-.609.86-1.453a5.8 5.8 0 0 0 .297-1.891v-9.562h2.719V658h-2.719v-2.312h-.063q-.437.75-1.14 1.343a5.1 5.1 0 0 1-1.657.938q-.968.343-2.203.343m10.985-.312v-1.938l8.984-12.015V644h-8.969v-2.25h12.063v1.984l-8.922 11.969v.047h8.969V658z"/></g><defs><clipPath id="a"><path fill="#fff" d="M0 0h1280v720H0z"/></clipPath><clipPath id="b"><path fill="#fff" d="M1022.45 101.833h25.49v25.49h-25.49z"/></clipPath></defs></svg>